SplineFontDB: 3.0
FontName: TlwgTypewriter-BoldOblique
FullName: Tlwg Typewriter Bold Oblique
FamilyName: TlwgTypewriter
Weight: Bold
Copyright: Tlwg Typewriter-Bold, Free Thai Pseudo Monospace outline font. Copyright (C) 2003, 2004 Poonlap Veerathanabutr <poonlap@linux.thai.net>
UComments: "2003-11-25: Created. +AAoA-PfaEdit 1.0 (http://pfaedit.sf.net).+AAoACgAA-TLWG is Thai Linux Working Group http://linux.thai.net+AAoACgAA-Imported ISO-8859-1 from FreeMono.sfd.+AAoA-http://www.nongnu.org/freefont/+AAoACgAA" 
Version: 001.017: 2012-01-07
ItalicAngle: -12
UnderlinePosition: -100
UnderlineWidth: 50
Ascent: 800
Descent: 200
LayerCount: 2
Layer: 0 0 "Back"  1
Layer: 1 0 "Fore"  0
NeedsXUIDChange: 1
FSType: 0
OS2Version: 0
OS2_WeightWidthSlopeOnly: 0
OS2_UseTypoMetrics: 0
CreationTime: 1153666223
ModificationTime: 1326030083
PfmFamily: 49
TTFWeight: 700
TTFWidth: 5
LineGap: 90
VLineGap: 0
Panose: 2 0 6 3 0 0 0 0 0 0
OS2TypoAscent: 0
OS2TypoAOffset: 1
OS2TypoDescent: 0
OS2TypoDOffset: 1
OS2TypoLinegap: 0
OS2WinAscent: 0
OS2WinAOffset: 1
OS2WinDescent: 0
OS2WinDOffset: 1
HheadAscent: 0
HheadAOffset: 1
HheadDescent: 0
HheadDOffset: 1
OS2Vendor: 'PfEd'
Lookup: 6 0 0 "'ccmp' Thai Conditional Descender Removal"  {"'ccmp' Thai Conditional Descender Removal"  } ['ccmp' ('DFLT' <'dflt' > 'thai' <'KUY ' 'PAL ' 'THA ' 'dflt' > ) ]
Lookup: 6 0 0 "'ccmp' Thai General Composition"  {"'ccmp' Thai Below Vowel Tone Reordering"  "'ccmp' Thai General Composition"  } ['ccmp' ('DFLT' <'dflt' > 'thai' <'KUY ' 'PAL ' 'THA ' 'dflt' > ) ]
Lookup: 5 0 0 "Required Thai Descender Removal"  {"Required Thai Descender Removal"  } [' RQD' ('thai' <'PAL ' > ) ]
Lookup: 1 0 0 "Thai Descender Removal Single Substitution"  {"Thai Descender Removal Single Substitution" ("descless" ) } []
Lookup: 2 0 0 "Thai Sara Am Decomposition"  {"Thai Sara Am Decomposition"  } []
Lookup: 2 0 0 "Thai Tone Nikhahit Attachment"  {"Thai Tone Nikhahit Attachment"  } []

StartChar: mu
Encoding: 181 181 0
Width: 600
Flags: W
HStem: -16 100<226.015 372.242> 0 21G<410 515.5> 337 100<128.557 167 424.514 482>
DStem2: 62.9713 -153 162.971 -153 0.207912 0.978148<37.6217 170.052 302.584 500.921> 377.146 -153 477.223 -153 0.207912 0.978148<281.097 501.093>
LayerCount: 2
Fore
SplineSet
151 337 m 2xa0
 130 337 94 337 94 378 c 0
 94 397 108 420 128 430 c 0
 140 436 145 437 172 437 c 2
 288 437 l 1
 226 144 l 2
 224 136 223 129 223 122 c 0
 223 95 241 84 278 84 c 0xa0
 322 84 367 99 439 138 c 1
 482 337 l 1
 447 337 l 2
 422 337 411 339 404 347 c 1
 395 354 390 366 390 378 c 0
 390 397 404 420 424 430 c 0
 435 436 444 437 468 437 c 2
 603 437 l 1
 531 100 l 1
 565 100 583 86 583 61 c 0
 583 35 565 16 548 7 c 0
 539 2 526 0 505 0 c 2
 410 0 l 1x60
 415 22 l 1
 355 -4 302 -16 250 -16 c 0
 229 -16 212 -13 194 -7 c 1
 177 -87 l 2
 171 -113 167 -122 158 -132 c 0
 145 -145 128 -153 112 -153 c 0
 88 -153 73 -135 73 -117 c 0
 73 -110 74 -100 77 -87 c 2
 167 337 l 1
 151 337 l 2xa0
EndSplineSet
EndChar

StartChar: uni0E31
Encoding: 3633 3633 1
Width: 0
Flags: W
HStem: 502 60<-164.744 -62.5> 642 55<-154.302 -86.1506>
VStem: -210 44<563.848 630.763> -84 53<599.957 659.5>
AnchorPoint: "AboveMark" 19 700 basemark 0
AnchorPoint: "AboveBase" 31 500 mark 0
LayerCount: 2
Fore
SplineSet
-116 642 m 0
 -143 642 -166 612 -166 592 c 0
 -166 574 -152 562 -133 562 c 0
 -111 562 -84 579 -84 608 c 0
 -84 626 -97 642 -116 642 c 0
-210 583 m 0
 -210 626 -167 697 -104 697 c 16
 -70 697 -31 676 -31 643 c 0
 -31 630 -36 615 -40 599 c 1
 18 599 69 659 99 682 c 9
 150 621 l 17
 95 564 63 539 -4 515 c 16
 -30 505 -52 502 -73 502 c 0
 -99 502 -122 507 -149 514 c 0
 -184 523 -210 547 -210 583 c 0
EndSplineSet
EndChar

StartChar: uni0E34
Encoding: 3636 3636 2
Width: 0
Flags: W
HStem: 500 57<-252 -78> 586 80<-247.626 -78.4219>
AnchorPoint: "AboveMark" -4 700 basemark 0
AnchorPoint: "AboveBase" -3 500 mark 0
LayerCount: 2
Fore
SplineSet
-128 586 m 2
 -182 586 l 2
 -213 586 -246 583 -252 557 c 9
 -79 557 l 17
 -78 560 -78 562 -78 564 c 0
 -78 584 -103 586 -128 586 c 2
-136 666 m 0
 -51 666 3 641 3 558 c 0
 3 541 1 522 -4 500 c 9
 -344 500 l 17
 -317 626 -248 666 -136 666 c 0
EndSplineSet
EndChar

StartChar: uni0E35
Encoding: 3637 3637 3
Width: 0
Flags: W
HStem: 500 72<-277 -149> 603 65<-272.908 -149.66>
AnchorPoint: "AboveMark" 25 700 basemark 0
AnchorPoint: "AboveBase" 26 500 mark 0
LayerCount: 2
Fore
SplineSet
-204 603 m 8
 -233 603 -271 602 -277 572 c 9
 -149 572 l 17
 -149 574 -148 576 -148 578 c 0
 -148 600 -179 603 -204 603 c 8
-190 668 m 0
 -100 668 -53 642 -50 572 c 9
 -30 668 l 25
 67 668 l 25
 31 500 l 29
 -394 500 l 17
 -371 606 -298 668 -190 668 c 0
EndSplineSet
EndChar

StartChar: uni0E36
Encoding: 3638 3638 4
Width: 0
Flags: W
HStem: 500 64<-284 -149> 500 49<-82.15 -18> 594 72<-280.367 -149.562> 642 44<-70.7845 -0.314444>
VStem: 5 46<563.083 638.251>
AnchorPoint: "AboveMark" -18 700 basemark 0
AnchorPoint: "AboveBase" 26 500 mark 0
LayerCount: 2
Fore
SplineSet
-48 549 m 0x58
 -21 549 5 582 5 602 c 0
 5 620 -10 642 -32 642 c 0
 -58 642 -87 609 -87 589 c 0
 -87 571 -71 549 -48 549 c 0x58
-218 594 m 0xa8
 -240 594 -279 589 -284 564 c 9
 -149 564 l 17
 -144 588 -178 594 -218 594 c 0xa8
-219 666 m 16
 -173 666 -112 633 -112 633 c 1
 -112 633 -59 686 -22 686 c 16
 21 686 51 657 51 617 c 0
 51 518 -87 500 -87 500 c 9
 -390 500 l 17x58
 -362 630 -302 666 -219 666 c 16
EndSplineSet
EndChar

StartChar: uni0E37
Encoding: 3639 3639 5
Width: 0
Flags: W
HStem: 500 76<-301 -202 -56 -20> 605 63<-298.536 -201.521>
DStem2: -36.1543 500 30 500 0.207912 0.978148<77.6979 169.889>
AnchorPoint: "AboveMark" -11 700 basemark 0
AnchorPoint: "AboveBase" 26 500 mark 0
LayerCount: 2
Fore
SplineSet
-249 605 m 8
 -270 605 -295 603 -301 576 c 9
 -202 576 l 17
 -202 578 -201 580 -201 582 c 0
 -201 600 -224 605 -249 605 c 8
-235 668 m 16
 -175 668 -145 635 -124 576 c 9
 -104 667 l 25
 -36 667 l 25
 -56 576 l 25
 -20 576 l 25
 0 666 l 25
 66 666 l 25
 30 500 l 25
 -383 500 l 17
 -355 631 -314 668 -235 668 c 16
EndSplineSet
EndChar

StartChar: uni0E48
Encoding: 3656 3656 6
Width: 0
Flags: W
HStem: 700 155<13 77>
VStem: -20 130
DStem2: -20 700 77 700 0.207912 0.978148<20.1674 158.474>
AnchorPoint: "AboveMark" 28 700 mark 0
LayerCount: 2
Fore
SplineSet
13 855 m 1
 110 855 l 1
 77 700 l 1
 -20 700 l 1
 13 855 l 1
EndSplineSet
MultipleSubs2: "Thai Tone Nikhahit Attachment" uni0E4D uni0E48
Substitution2: "Thai Tone Low Variant" uni0E48.low
Substitution2: "Thai Sara U Mai Ek Reordering" uni0E38
Substitution2: "Thai Sara UU Mai Ek Reordering" uni0E39
Substitution2: "Thai Phinthu Mai Ek Reordering" uni0E3A
EndChar

StartChar: uni0E49
Encoding: 3657 3657 7
Width: 0
Flags: W
HStem: 700 108<-62.8193 -3.21143> 700 79<-115 -71> 871 33<-55.3406 -1.03113>
VStem: -106 43<808.483 866.016> 1 43<812.703 870.643>
AnchorPoint: "AboveMark" -12 700 mark 0
LayerCount: 2
Fore
SplineSet
-38 808 m 0xb8
 -14 808 1 830 1 845 c 0
 1 860 -9 871 -25 871 c 0
 -44 871 -63 854 -63 833 c 0
 -63 818 -53 808 -38 808 c 0xb8
-106 827 m 0
 -106 863 -69 904 -18 904 c 16
 15 904 44 879 44 850 c 0
 44 824 17 782 17 781 c 2
 17 781 100 796 138 847 c 9
 196 813 l 17
 196 813 159 755 124 732 c 24
 83 706 18 700 9 700 c 2
 -132 700 l 9
 -115 779 l 17
 -71 779 l 1x78
 -71 779 -106 793 -106 827 c 0
EndSplineSet
MultipleSubs2: "Thai Tone Nikhahit Attachment" uni0E4D uni0E49
Substitution2: "Thai Tone Low Variant" uni0E49.low
Substitution2: "Thai Sara U Mai Tho Reordering" uni0E38
Substitution2: "Thai Sara UU Mai Tho Reordering" uni0E39
Substitution2: "Thai Phinthu Mai Tho Reordering" uni0E3A
EndChar

StartChar: uni0E4A
Encoding: 3658 3658 8
Width: 0
Flags: W
HStem: 697 25<-196.65 -165.349>
VStem: -236 110<713.14 773.572> -4 67<753.5 815.5>
DStem2: 58 769 71 700 0.503871 0.863779<0 160.015>
AnchorPoint: "AboveMark" -88 700 mark 0
LayerCount: 2
Fore
SplineSet
-176 758 m 0
 -200 758 -207 722 -184 722 c 0
 -160 722 -153 758 -176 758 c 0
-236 757 m 0
 -236 790 -189 874 -122 874 c 24
 -92 874 -68 831 -68 831 c 1
 -68 831 -32 873 -5 873 c 16
 27 873 42 863 57 840 c 16
 62 832 63 821 63 810 c 0
 63 790 58 769 58 769 c 9
 139 907 l 25
 183 892 l 25
 71 700 l 1
 -17 700 l 17
 -8 724 -4 744 -4 763 c 0
 -4 780 -7 796 -13 810 c 9
 -50 775 l 25
 -105 775 l 17
 -136 813 l 1
 -148 804 -156 792 -159 778 c 1
 -145 776 -126 767 -126 751 c 0
 -126 730 -154 697 -185 697 c 0
 -218 697 -236 729 -236 757 c 0
EndSplineSet
MultipleSubs2: "Thai Tone Nikhahit Attachment" uni0E4D uni0E4A
Substitution2: "Thai Tone Low Variant" uni0E4A.low
Substitution2: "Thai Sara U Mai Tri Reordering" uni0E38
Substitution2: "Thai Sara UU Mai Tri Reordering" uni0E39
Substitution2: "Thai Phinthu Mai Tri Reordering" uni0E3A
EndChar

StartChar: uni0E4B
Encoding: 3659 3659 9
Width: 0
Flags: W
HStem: 773 72<-40 22 140 212>
VStem: -56 284
AnchorPoint: "AboveMark" 57 700 mark 0
LayerCount: 2
Fore
SplineSet
22 773 m 1
 -56 773 l 1
 -40 846 l 1
 38 846 l 1
 55 926 l 1
 157 926 l 1
 140 845 l 1
 228 845 l 1
 212 773 l 1
 124 773 l 1
 109 700 l 1
 7 700 l 1
 22 773 l 1
EndSplineSet
MultipleSubs2: "Thai Tone Nikhahit Attachment" uni0E4D uni0E4B
Substitution2: "Thai Tone Low Variant" uni0E4B.low
Substitution2: "Thai Sara U Mai Chattawa Reordering" uni0E38
Substitution2: "Thai Sara UU Mai Chattawa Reordering" uni0E39
Substitution2: "Thai Phinthu Mai Chattawa Reordering" uni0E3A
EndChar

StartChar: uni0E4C
Encoding: 3660 3660 10
Width: 0
Flags: W
HStem: 695 41<-27.1165 32.1018>
VStem: -74 46<737.115 794.727> 38 48<740.972 772>
DStem2: 15 849 86 772 0.890605 0.454777<13.3919 186.534>
AnchorPoint: "AboveMark" -9 700 mark 0
LayerCount: 2
Fore
SplineSet
12 800 m 0
 -12 800 -28 778 -28 761 c 0
 -28 746 -18 736 -2 736 c 0
 22 736 38 758 38 775 c 0
 38 790 28 800 12 800 c 0
1 695 m 0
 -22 695 -74 707 -74 754 c 0
 -74 809 -15 836 15 849 c 16
 62 870 128 903 199 938 c 25
 227 844 l 25
 86 772 l 1
 86 772 87 740 72 726 c 16
 50 705 26 695 1 695 c 0
EndSplineSet
MultipleSubs2: "Thai Tone Nikhahit Attachment" uni0E4D uni0E4C
Substitution2: "Thai Tone Low Variant" uni0E4C.low
Substitution2: "Thai Sara U Thanthakhat Reordering" uni0E38
Substitution2: "Thai Sara UU Thanthakhat Reordering" uni0E39
Substitution2: "Thai Phinthu Thanthakhat Reordering" uni0E3A
EndChar

StartChar: uni0E4D
Encoding: 3661 3661 11
Width: 0
Flags: W
HStem: 500 70<-109.496 -50.7697> 619 63<-88.9581 -29.304>
VStem: -158 68<570.523 616.573>
AnchorPoint: "AboveMark" -46 700 basemark 0
AnchorPoint: "AboveBase" 26 500 mark 0
LayerCount: 2
Fore
SplineSet
-63 619 m 0
 -70 619 -90 607 -90 591 c 0
 -90 579 -79 570 -74 570 c 0
 -69 570 -52 581 -49 595 c 0
 -46 608 -58 619 -63 619 c 0
-158 573 m 0
 -158 639 -97 682 -50 682 c 0
 -10 682 17 651 17 613 c 0
 17 561 -34 500 -89 500 c 0
 -129 500 -158 531 -158 573 c 0
EndSplineSet
Substitution2: "Thai Mark High Variant" uni0E4D.high
Substitution2: "Thai Sara U Nikhahit Reordering" uni0E38
Substitution2: "Thai Sara UU Nikhahit Reordering" uni0E39
Substitution2: "Thai Phinthu Nikhahit Reordering" uni0E3A
EndChar

StartChar: exclam
Encoding: 33 33 13
Width: 600
Flags: W
HStem: -15 132<263.246 360.359> 618 20G<413.5 457>
VStem: 234 154<13.6636 88.1026> 299 99<192.671 250.355> 339 163<492.516 601.923>
LayerCount: 2
Fore
SplineSet
502 576 m 0xc8
 502 555 499 560 491 525 c 1
 398 228 l 2xd0
 389 197 367 179 339 179 c 0xc8
 313 179 299 195 299 221 c 2
 299 228 l 1xd0
 334 525 l 2
 335 537 337 551 339 558 c 0
 348 604 390 638 437 638 c 0
 477 638 502 612 502 576 c 0xc8
388 65 m 0xe0
 388 27 353 -15 306 -15 c 2
 289 -15 l 2
 257 -15 234 8 234 37 c 0
 234 83 279 117 317 117 c 2
 334 117 l 2
 366 117 388 95 388 65 c 0xe0
EndSplineSet
EndChar

StartChar: quotedbl
Encoding: 34 34 14
Width: 600
Flags: W
HStem: 312 290<264 300.333 464 500.333>
LayerCount: 2
Fore
SplineSet
264 602 m 1
 392 602 l 1
 307 348 l 1
 297 322 287 312 267 312 c 0
 251 312 243 319 243 337 c 0
 243 340 244 343 244 347 c 2
 264 602 l 1
464 602 m 1
 592 602 l 1
 507 348 l 1
 497 322 487 312 467 312 c 0
 451 312 443 319 443 337 c 0
 443 340 444 343 444 347 c 2
 464 602 l 1
EndSplineSet
EndChar

StartChar: numbersign
Encoding: 35 35 15
Width: 600
Flags: W
HStem: 139 99<135.467 184 312 356 483 524.531> 344 100<199.467 241 370 413 541 588.531>
DStem2: 138 -22 236 -29 0.271713 0.962378<-30.2353 167.442 297.496 380.217 511.506 709.029> 356 139 408 -29 0.271425 0.96246<-198.212 0 129.755 212.775 343.764 542.806>
LayerCount: 2
Fore
SplineSet
302 -52 m 0
 302 -49 356 139 356 139 c 1
 284 139 l 1
 236 -29 l 1
 227 -70 205 -92 172 -92 c 0
 147 -92 132 -76 132 -52 c 0
 132 -46 131 -46 138 -22 c 2
 184 139 l 1
 158 139 l 2
 135 139 101 139 101 180 c 0
 101 199 115 221 135 231 c 0
 145 237 153 238 179 238 c 2
 212 238 l 1
 241 344 l 1
 222 344 l 2
 199 344 165 344 165 384 c 0
 165 409 184 429 199 437 c 0
 209 443 216 444 243 444 c 2
 269 444 l 1
 317 612 l 2
 318 614 327 675 381 675 c 0
 406 675 422 658 422 635 c 0
 422 626 414 600 370 444 c 1
 441 444 l 1
 489 612 l 2
 496 640 499 646 509 656 c 0
 522 668 538 675 553 675 c 0
 576 675 594 656 594 636 c 0
 594 633 594 630 593 627 c 2
 541 444 l 1
 566 444 l 2
 593 444 601 442 609 435 c 0
 618 427 623 416 623 403 c 0
 623 384 609 361 589 351 c 0
 579 346 569 344 545 344 c 2
 513 344 l 1
 483 238 l 1
 502 238 l 2
 526 238 559 238 559 198 c 0
 559 177 544 156 525 146 c 0
 515 141 505 139 482 139 c 2
 455 139 l 1
 408 -29 l 2
 397 -72 368 -92 342 -92 c 0
 319 -92 302 -74 302 -52 c 0
413 344 m 1
 342 344 l 1
 312 238 l 1
 384 238 l 1
 413 344 l 1
EndSplineSet
EndChar

StartChar: dollar
Encoding: 36 36 16
Width: 600
Flags: W
HStem: -123 247<258.937 359> 495 189<402.952 476.42>
VStem: 117 105<147.551 207.532> 195 107<392.233 465.808> 383 104<599.8 663.487> 457 106<166.639 247.993>
DStem2: 225.759 -123 324.759 -123 0.207912 0.978148<37.6651 153.828 751.612 805.856> 366 377 319 280 0.977802 -0.209529<-65.4487 116.951>
LayerCount: 2
Fore
SplineSet
447 684 m 0xd8
 475 684 487 662 487 647 c 0
 487 641 485 632 482 618 c 2
 477 592 l 1
 496 588 501 588 519 582 c 2
 532 577 l 2
 532 576 536 575 540 574 c 1
 552 579 560 581 569 581 c 0
 594 581 609 566 609 542 c 0
 609 534 607 526 605 515 c 2
 599 483 l 2
 596 471 587 417 535 417 c 0
 508 417 492 432 492 460 c 0
 492 478 455 495 415 495 c 0
 329 495 302 449 302 424 c 0xd8
 302 402 323 386 366 377 c 2
 428 363 l 2
 500 347 563 321 563 236 c 0
 563 152 502 54 357 27 c 1
 339 -56 l 2
 333 -84 330 -92 320 -102 c 0
 308 -115 291 -123 276 -123 c 0
 255 -123 236 -108 236 -87 c 0
 236 -80 237 -71 240 -56 c 2
 258 27 l 1
 218 36 213 38 184 52 c 1
 165 38 155 34 141 34 c 0
 121 34 100 46 100 71 c 0
 100 78 101 87 104 101 c 2
 117 162 l 2
 123 189 127 198 136 208 c 0
 149 221 166 229 182 229 c 0
 195 229 207 223 215 215 c 1
 220 207 220 207 222 180 c 0
 224 149 271 124 326 124 c 0
 392 124 457 161 457 213 c 0xe4
 457 240 436 255 389 265 c 2
 319 280 l 2
 238 297 195 339 195 401 c 0
 195 498 282 576 378 592 c 1
 383 618 l 2
 389 645 393 653 402 664 c 1
 415 676 431 684 447 684 c 0xd8
EndSplineSet
EndChar

StartChar: percent
Encoding: 37 37 17
Width: 600
Flags: W
HStem: -15 65<332.528 434.388> 199 65<355.125 457.808> 338 65<267.77 369.779> 552 65<290.125 392.808>
VStem: 188 66<416.715 517.021> 253 66<63.7148 164.021> 406 66<439.591 538.624> 471 66<86.1246 185.624>
DStem2: 555 390 174 213 0.956524 0.291653<-437.128 20.9873>
LayerCount: 2
Fore
SplineSet
188 448 m 0xfa
 188 532 269 617 359 617 c 0
 427 617 472 571 472 507 c 0
 472 421 390 338 301 338 c 0
 234 338 188 385 188 448 c 0xfa
314 403 m 0
 360 403 406 446 406 493 c 0
 406 527 381 552 345 552 c 0
 301 552 254 510 254 462 c 0
 254 429 279 403 314 403 c 0
599 369 m 0
 599 339 567 333 561 331 c 2
 174 213 l 2
 167 211 157 209 153 209 c 0
 140 209 130 221 130 235 c 0
 130 257 148 266 168 272 c 2
 555 390 l 2
 568 394 570 394 576 394 c 0
 589 394 599 383 599 369 c 0
253 95 m 0xf5
 253 179 334 264 424 264 c 0
 492 264 537 218 537 154 c 0
 537 59 447 -15 365 -15 c 0
 299 -15 253 32 253 95 c 0xf5
380 50 m 0
 423 50 471 91 471 140 c 0
 471 174 446 199 410 199 c 0
 366 199 319 157 319 109 c 0
 319 76 344 50 380 50 c 0
EndSplineSet
EndChar

StartChar: ampersand
Encoding: 38 38 18
Width: 600
Flags: W
HStem: -14 100<211.322 332.362> 0 21G<373 452.5> 450 100<339.345 429.22>
VStem: 102 102<95.6813 183.882> 218 104<331.417 432.345>
LayerCount: 2
Fore
SplineSet
386 450 m 0xb8
 350 450 322 417 322 395 c 0
 322 383 327 366 338 343 c 2
 407 198 l 1
 448 280 l 1
 501 280 l 2
 528 280 536 278 544 270 c 0
 553 262 557 252 557 240 c 0
 557 208 529 182 502 180 c 1
 483 139 472 121 455 100 c 1
 463 100 l 2
 490 100 498 98 506 91 c 0
 515 83 520 72 520 59 c 0
 520 40 505 17 485 7 c 0
 476 2 463 0 442 0 c 2
 381 0 l 1x78
 373 15 l 1
 339 -6 307 -14 254 -14 c 0
 159 -14 102 32 102 107 c 0
 102 152 124 245 235 303 c 1
 224 334 218 353 218 371 c 0
 218 456 310 550 406 550 c 0
 430 550 449 545 472 533 c 1
 485 537 495 540 502 540 c 0
 524 540 540 521 540 499 c 0
 540 462 504 447 487 438 c 2
 441 416 l 1
 418 442 406 450 386 450 c 0xb8
275 220 m 1
 222 198 204 157 204 129 c 0
 204 100 228 86 275 86 c 0xb8
 300 86 312 89 333 100 c 1
 275 220 l 1
EndSplineSet
EndChar

StartChar: quotesingle
Encoding: 39 39 19
Width: 600
Flags: W
HStem: 312 290<364 400.333>
VStem: 343 149
LayerCount: 2
Fore
SplineSet
364 602 m 1
 492 602 l 1
 407 348 l 1
 397 322 387 312 367 312 c 0
 351 312 343 319 343 337 c 0
 343 340 344 343 344 347 c 2
 364 602 l 1
EndSplineSet
EndChar

StartChar: parenleft
Encoding: 40 40 20
Width: 600
Flags: W
HStem: 612 20G<560 583.5>
VStem: 304 111<1.14342 275.784>
LayerCount: 2
Fore
SplineSet
467 -93 m 0
 467 -126 435 -153 404 -153 c 0
 380 -153 370 -142 351 -95 c 0
 320 -20 304 56 304 131 c 0
 304 313 406 474 505 587 c 1
 535 623 549 632 571 632 c 0
 596 632 613 615 613 593 c 0
 613 576 605 564 593 549 c 0
 500 438 415 305 415 142 c 0
 415 21 467 -75 467 -93 c 0
EndSplineSet
EndChar

StartChar: parenright
Encoding: 41 41 21
Width: 600
Flags: W
HStem: 612 20G<283 314>
VStem: 291 112<206.707 478.964>
LayerCount: 2
Fore
SplineSet
239 572 m 0
 239 598 264 632 302 632 c 0
 326 632 337 621 356 574 c 0
 387 499 403 423 403 348 c 0
 403 165 298 2 202 -109 c 0
 171 -144 157 -153 135 -153 c 0
 110 -153 94 -137 94 -115 c 0
 94 -97 99 -88 114 -70 c 0
 207 41 291 174 291 337 c 0
 291 461 239 557 239 572 c 0
EndSplineSet
EndChar

StartChar: asterisk
Encoding: 42 42 22
Width: 600
Flags: W
HStem: 400 102<194.036 218 529 595.358> 602 20G<424 442>
DStem2: 231 301 299 242 0.686624 0.727013<-57.7248 97.6217> 449 467 460 372 0.956674 0.291162<0 131.288>
LayerCount: 2
Fore
SplineSet
508 268 m 0
 508 242 480 208 446 208 c 0
 425 208 418 214 403 242 c 2
 367 314 l 1
 299 242 l 2
 273 214 262 208 242 208 c 0
 219 208 202 225 202 248 c 0
 202 269 215 284 231 301 c 2
 298 372 l 1
 218 400 l 1
 189 409 177 420 177 439 c 0
 177 472 208 502 237 502 c 0
 247 502 249 501 269 495 c 2
 349 467 l 1
 368 556 l 2
 373 581 378 592 387 601 c 0
 400 614 416 622 432 622 c 0
 452 622 472 609 472 585 c 0
 472 578 471 570 468 556 c 2
 449 467 l 1
 541 495 l 2
 563 501 567 502 576 502 c 0
 598 502 614 484 614 462 c 0
 614 423 579 408 552 400 c 2
 460 372 l 1
 497 301 l 2
 505 286 508 277 508 268 c 0
EndSplineSet
EndChar

StartChar: plus
Encoding: 43 43 23
Width: 600
Flags: W
HStem: 0 21G<289 308> 230 100<116.615 299 420 583.576>
DStem2: 249.971 0 349.971 0 0.207912 0.978148<38.5991 235.168 358.14 554.961>
LayerCount: 2
Fore
SplineSet
419 560 m 0
 440 560 460 544 460 523 c 0
 460 517 458 508 455 494 c 2
 420 330 l 1
 561 330 l 2
 589 330 597 328 605 321 c 0
 614 313 619 302 619 289 c 0
 619 270 604 247 584 237 c 0
 575 232 563 230 540 230 c 2
 399 230 l 1
 364 66 l 2
 358 39 355 31 345 21 c 0
 333 8 316 0 300 0 c 0
 278 0 260 15 260 37 c 0
 260 44 261 53 264 66 c 2
 299 230 l 1
 157 230 l 2
 133 230 121 232 114 239 c 0
 106 247 101 257 101 269 c 0
 101 280 106 307 135 323 c 0
 145 329 153 330 178 330 c 2
 320 330 l 1
 355 494 l 2
 355 496 364 560 419 560 c 0
EndSplineSet
EndChar

StartChar: comma
Encoding: 44 44 24
Width: 600
Flags: W
HStem: -158 292
VStem: 119 260
LayerCount: 2
Fore
SplineSet
247 134 m 1
 379 134 l 1
 182 -134 l 2
 170 -150 156 -158 144 -158 c 0
 129 -158 119 -148 119 -135 c 0
 119 -130 121 -122 126 -111 c 2
 247 134 l 1
EndSplineSet
EndChar

StartChar: hyphen
Encoding: 45 45 25
Width: 600
Flags: W
HStem: 229 100<134.514 602.244>
LayerCount: 2
Fore
SplineSet
562 329 m 2
 585 329 619 329 619 291 c 0
 619 280 614 252 584 236 c 0
 575 231 563 229 541 229 c 2
 157 229 l 2
 132 229 121 231 114 238 c 0
 105 246 100 257 100 270 c 0
 100 289 114 310 134 322 c 0
 145 328 153 329 178 329 c 2
 562 329 l 2
EndSplineSet
EndChar

StartChar: period
Encoding: 46 46 26
Width: 600
Flags: W
HStem: -15 132<262.964 360.359>
VStem: 234 154<13.6636 88.1026>
LayerCount: 2
Fore
SplineSet
388 65 m 0
 388 27 353 -15 306 -15 c 2
 288 -15 l 2
 257 -15 234 8 234 37 c 0
 234 80 276 117 316 117 c 2
 334 117 l 2
 366 117 388 95 388 65 c 0
EndSplineSet
EndChar

StartChar: slash
Encoding: 47 47 27
Width: 600
Flags: W
DStem2: 89 -27 170 -69 0.565032 0.825069<-49.2366 882.367>
LayerCount: 2
Fore
SplineSet
656 655 m 0
 656 637 641 618 635 610 c 2
 170 -69 l 1
 148 -103 133 -113 109 -113 c 0
 86 -113 68 -95 68 -73 c 0
 68 -58 76 -45 89 -27 c 2
 554 651 l 2
 577 685 592 695 615 695 c 0
 639 695 656 677 656 655 c 0
EndSplineSet
EndChar

StartChar: zero
Encoding: 48 48 28
Width: 600
Flags: W
HStem: -15 100<260.698 382.435> 538 100<350.187 469.538>
VStem: 130 101<116.192 324.992> 502 101<302.789 504.75>
DStem2: 79.6967 -15 180.185 -15 0.207912 0.978148<238.675 517.999> 414.185 -15 513.697 -15 0.207912 0.978148<164.445 448.794>
LayerCount: 2
Fore
SplineSet
436 638 m 0
 555 638 603 552 603 446 c 0
 603 418 599 389 593 359 c 2
 573 264 l 2
 543 120 446 -15 297 -15 c 0
 178 -15 130 71 130 178 c 0
 130 205 133 235 139 264 c 2
 159 359 l 2
 190 503 287 638 436 638 c 0
261 366 m 2
 238 257 l 2
 233 235 231 214 231 196 c 0
 231 127 262 85 318 85 c 0
 389 85 450 153 472 257 c 2
 495 366 l 2
 500 388 502 408 502 426 c 0
 502 496 470 538 414 538 c 0
 343 538 283 470 261 366 c 2
EndSplineSet
EndChar

StartChar: one
Encoding: 49 49 29
Width: 600
Flags: W
HStem: 0 100<127.467 271 371 493.665> 7 93<451.935 514.625> 618 20G<404.545 481.725>
DStem2: 249.744 0 349.744 0 0.207912 0.978148<123.025 520.385> 262 583 266 486 0.971154 0.238453<-52.2736 75.5853>
LayerCount: 2
Fore
SplineSet
149 0 m 2xa0
 124 0 93 3 93 40 c 0
 93 61 107 83 127 93 c 0
 137 99 144 100 170 100 c 2
 271 100 l 1
 358 509 l 1
 266 486 l 2
 246 481 243 480 233 480 c 0
 211 480 197 497 197 520 c 0
 197 570 245 579 262 583 c 2
 486 638 l 1
 371 100 l 1
 472 100 l 2xa0
 499 100 507 98 515 91 c 0
 524 83 529 72 529 59 c 0
 529 38 513 18 494 7 c 0x60
 487 3 471 0 451 0 c 2
 149 0 l 2xa0
EndSplineSet
EndChar

StartChar: two
Encoding: 50 50 30
Width: 600
Flags: W
HStem: 0 154<445.277 508> 0 100<228 437.532> 538 100<323.062 472.836>
VStem: 173 92<430.101 483.59> 500 102<410.567 510.763>
LayerCount: 2
Fore
SplineSet
173 460 m 0x78
 173 505 265 638 426 638 c 0
 532 638 602 575 602 485 c 0
 602 360 514 309 228 100 c 1
 429 100 l 1x78
 440 136 460 154 491 154 c 0
 511 154 531 141 531 117 c 0
 531 110 530 102 527 88 c 2
 508 0 l 1xb8
 54 0 l 1
 76 105 l 1
 471 382 500 411 500 464 c 0
 500 507 460 538 402 538 c 0
 299 538 265 451 265 451 c 1
 256 434 235 422 214 422 c 0
 190 422 173 439 173 460 c 0x78
EndSplineSet
EndChar

StartChar: three
Encoding: 51 51 31
Width: 600
Flags: W
HStem: -15 100<172.917 406.844> 274 109<309.889 443.49> 538 100<317.334 488.731>
VStem: 470 101<141.428 248.432> 507 102<425.027 518.091>
LayerCount: 2
Fore
SplineSet
294 322 m 0xf0
 294 351 319 383 357 383 c 2
 397 383 l 2
 455 383 507 431 507 477 c 0
 507 515 471 538 409 538 c 0
 294 538 298 477 245 477 c 0
 222 477 206 494 206 516 c 0
 206 582 329 638 437 638 c 0
 574 638 609 552 609 495 c 0xe8
 609 398 525 353 487 333 c 1
 544 302 571 262 571 213 c 0
 571 148 524 74 462 32 c 1
 411 -1 355 -15 268 -15 c 0
 153 -15 80 15 80 60 c 0
 80 86 105 120 142 120 c 0
 181 120 152 85 286 85 c 0
 355 85 394 95 426 119 c 0
 451 138 470 171 470 198 c 0
 470 229 448 258 411 274 c 1
 363 297 294 272 294 322 c 0xf0
EndSplineSet
EndChar

StartChar: four
Encoding: 52 52 32
Width: 600
Flags: W
HStem: 0 100<287.468 368 468 484.665> 138 100<248 376 498 533.341> 602 20G<431.741 579>
DStem2: 122 221 248 238 0.630811 0.775936<92.6731 407.243> 346.744 0 446.744 0 0.207912 0.978148<123.025 141.067 264.247 490.771>
LayerCount: 2
Fore
SplineSet
309 0 m 2
 281 0 253 5 253 40 c 0
 253 61 267 83 287 93 c 0
 297 99 306 100 330 100 c 2
 368 100 l 1
 376 138 l 1
 104 138 l 1
 122 221 l 1
 448 622 l 1
 579 622 l 1
 498 238 l 1
 531 238 549 225 549 201 c 0
 549 180 539 140 476 138 c 1
 468 100 l 1
 502 100 520 86 520 61 c 0
 520 35 502 16 485 7 c 0
 478 3 462 0 441 0 c 2
 309 0 l 2
398 238 m 1
 449 480 l 1
 248 238 l 1
 398 238 l 1
EndSplineSet
EndChar

StartChar: five
Encoding: 53 53 33
Width: 600
Flags: W
HStem: -15 100<191.588 402.356> 324 100<307.118 447.088> 523 100<330 575.62>
VStem: 476 102<153.208 295.929>
LayerCount: 2
Fore
SplineSet
553 623 m 2
 579 623 610 623 610 582 c 0
 610 563 596 540 576 530 c 0
 568 525 553 523 532 523 c 2
 330 523 l 1
 306 407 l 1
 344 418 379 424 408 424 c 0
 512 424 578 355 578 255 c 0
 578 240 577 133 485 53 c 0
 431 5 369 -15 275 -15 c 0
 163 -15 83 23 83 73 c 0
 83 109 117 133 144 133 c 0
 193 133 159 85 295 85 c 0
 454 85 476 181 476 234 c 0
 476 289 442 324 386 324 c 0
 315 324 255 282 229 282 c 0
 205 282 189 299 189 324 c 0
 189 328 190 333 191 338 c 2
 251 623 l 1
 553 623 l 2
EndSplineSet
EndChar

StartChar: six
Encoding: 54 54 34
Width: 600
Flags: W
HStem: -15 100<289.86 423.846> 294 100<344.857 454.233> 535 103<450.484 621.824>
VStem: 155 107<114.986 227.012> 478 102<141.978 269.604>
LayerCount: 2
Fore
SplineSet
580 235 m 0
 580 134 505 -15 328 -15 c 0
 189 -15 155 75 155 182 c 0
 155 381 268 491 291 514 c 0
 376 596 467 638 559 638 c 0
 623 638 663 616 663 582 c 0
 663 549 628 522 600 522 c 0
 587 522 560 535 543 535 c 0
 437 535 326 447 277 324 c 1
 336 375 378 394 429 394 c 0
 519 394 580 326 580 235 c 0
352 85 m 0
 443 85 478 165 478 214 c 0
 478 260 446 294 400 294 c 0
 357 294 300 258 262 209 c 1
 262 197 l 2
 262 119 290 85 352 85 c 0
EndSplineSet
EndChar

StartChar: seven
Encoding: 55 55 35
Width: 600
Flags: W
HStem: -1 21G<285 310> 469 154<207 270.479> 523 100<277.991 514>
VStem: 185 101<483.746 522.98>
LayerCount: 2
Fore
SplineSet
225 469 m 0xd0
 205 469 185 482 185 506 c 0
 185 513 186 521 189 535 c 2
 207 623 l 1xd0
 640 623 l 1
 619 524 l 1
 359 48 l 2
 339 12 323 -1 297 -1 c 0
 273 -1 255 16 255 38 c 0
 255 46 256 52 270 81 c 1
 514 523 l 1
 286 523 l 1xb0
 276 487 256 469 225 469 c 0xd0
EndSplineSet
EndChar

StartChar: eight
Encoding: 56 56 36
Width: 600
Flags: W
HStem: -15 100<245.101 401.214> 263 101<308.703 425.422> 538 100<337.575 482.653>
VStem: 114 104<110.545 212.381> 186 100<385.883 491.964> 455 101<133.638 235.578> 506 103<410.77 514.115>
LayerCount: 2
Fore
SplineSet
609 490 m 0xea
 609 387 513 334 488 319 c 1
 533 286 556 246 556 199 c 0
 556 102 464 -15 296 -15 c 0
 184 -15 114 41 114 127 c 0xf4
 114 203 160 271 248 319 c 1
 206 351 186 386 186 425 c 0
 186 527 297 638 436 638 c 0
 538 638 609 574 609 490 c 0xea
377 364 m 0
 444 364 506 407 506 468 c 0
 506 510 470 538 414 538 c 0
 342 538 286 491 286 434 c 0xea
 286 392 321 364 377 364 c 0
318 85 m 0
 390 85 455 129 455 187 c 0
 455 231 415 263 356 263 c 0
 295 263 218 223 218 157 c 0xf4
 218 114 257 85 318 85 c 0
EndSplineSet
EndChar

StartChar: nine
Encoding: 57 57 37
Width: 600
Flags: W
HStem: -15 103<156.676 328.393> 229 100<324.672 433.82> 538 100<356.776 488.525>
VStem: 198 103<351.487 481.756> 516 108<395.988 507.213>
LayerCount: 2
Fore
SplineSet
198 388 m 0
 198 493 280 638 451 638 c 0
 589 638 624 546 624 441 c 0
 624 242 510 132 487 109 c 0
 403 27 312 -15 220 -15 c 0
 156 -15 116 7 116 40 c 0
 116 69 144 101 178 101 c 0
 191 101 219 88 236 88 c 0
 342 88 452 176 502 299 c 1
 443 248 401 229 351 229 c 0
 260 229 198 297 198 388 c 0
426 538 m 0
 339 538 301 463 301 410 c 0
 301 363 331 329 378 329 c 0
 421 329 479 365 516 414 c 1
 516 426 l 2
 516 504 488 538 426 538 c 0
EndSplineSet
EndChar

StartChar: colon
Encoding: 58 58 38
Width: 600
Flags: W
HStem: -15 132<262.964 360.359> 304 133<330.898 426.871>
VStem: 234 154<13.6636 88.1026> 302 154<333.21 408.103>
LayerCount: 2
Fore
SplineSet
388 65 m 0xe0
 388 27 353 -15 306 -15 c 2
 288 -15 l 2
 257 -15 234 8 234 37 c 0
 234 80 276 117 316 117 c 2
 334 117 l 2
 366 117 388 95 388 65 c 0xe0
456 385 m 0xd0
 456 347 421 304 374 304 c 2
 356 304 l 2
 325 304 302 327 302 356 c 0
 302 395 340 437 384 437 c 2
 402 437 l 2
 434 437 456 415 456 385 c 0xd0
EndSplineSet
EndChar

StartChar: semicolon
Encoding: 59 59 39
Width: 600
Flags: W
HStem: 304 133<307.851 402.995>
VStem: 278 154<332.125 407.601>
LayerCount: 2
Fore
SplineSet
247 134 m 1
 379 134 l 1
 182 -134 l 2
 170 -150 156 -158 144 -158 c 0
 129 -158 119 -148 119 -135 c 0
 119 -130 121 -122 126 -111 c 2
 247 134 l 1
278 355 m 0
 278 390 307 437 369 437 c 0
 409 437 432 417 432 385 c 0
 432 352 405 304 341 304 c 0
 302 304 278 324 278 355 c 0
EndSplineSet
EndChar

StartChar: less
Encoding: 60 60 40
Width: 600
Flags: W
DStem2: 310 279 102 280 0.870055 -0.492955<0 287.207> 102 280 310 279 0.913176 0.407565<189.533 551.794>
LayerCount: 2
Fore
SplineSet
608 501 m 0
 621 501 641 490 641 460 c 0
 641 431 608 416 600 412 c 2
 310 279 l 1
 542 143 l 2
 559 133 566 124 566 110 c 0
 566 82 537 54 513 54 c 0
 505 54 495 57 485 63 c 2
 102 280 l 1
 577 492 l 2
 590 498 600 501 608 501 c 0
EndSplineSet
EndChar

StartChar: equal
Encoding: 61 61 41
Width: 600
Flags: W
HStem: 138 100<115.468 564.575> 322 100<154.468 603.575>
LayerCount: 2
Fore
SplineSet
582 422 m 2
 604 422 638 423 638 382 c 0
 638 361 623 339 604 329 c 0
 595 324 582 322 560 322 c 2
 176 322 l 2
 161 322 120 321 120 362 c 0
 120 382 134 404 154 415 c 0
 164 421 173 422 198 422 c 2
 582 422 l 2
137 138 m 2
 118 138 81 138 81 178 c 0
 81 199 96 221 115 231 c 0
 125 237 134 238 159 238 c 2
 543 238 l 2
 565 238 599 239 599 198 c 0
 599 177 584 155 565 145 c 0
 556 140 543 138 521 138 c 2
 137 138 l 2
EndSplineSet
EndChar

StartChar: greater
Encoding: 62 62 42
Width: 600
Flags: W
DStem2: 616 274 176 412 0.870605 -0.491983<-469.548 -182.448> 407 275 141 62 0.913176 0.407565<-362.302 0>
LayerCount: 2
Fore
SplineSet
109 53 m 0
 89 53 76 73 76 92 c 0
 76 112 88 128 118 142 c 2
 407 275 l 1
 176 412 l 2
 159 421 151 431 151 444 c 0
 151 467 178 500 204 500 c 0
 212 500 223 497 232 491 c 2
 616 274 l 1
 141 62 l 2
 128 56 116 53 109 53 c 0
EndSplineSet
EndChar

StartChar: question
Encoding: 63 63 43
Width: 600
Flags: W
HStem: -15 132<265.246 362.359> 498 100<312.481 486.579>
VStem: 198 104<415.423 481.541> 236 154<13.6636 88.1026> 300 101<189.625 235.295> 507 102<378.681 476.204>
LayerCount: 2
Fore
SplineSet
238 394 m 0xe4
 219 394 198 407 198 431 c 0xe4
 198 438 199 447 202 460 c 2
 219 539 l 1
 324 585 371 598 435 598 c 0
 543 598 609 540 609 452 c 0
 609 317 496 266 401 228 c 1
 390 192 369 174 340 174 c 0
 318 174 300 189 300 211 c 0xcc
 300 218 301 227 304 240 c 2
 316 296 l 1
 463 348 507 376 507 431 c 0
 507 472 471 498 415 498 c 0
 377 498 341 490 305 474 c 1
 302 460 l 2
 296 434 292 424 283 415 c 0
 270 402 253 394 238 394 c 0xe4
390 65 m 0xd4
 390 27 355 -15 308 -15 c 2
 291 -15 l 2
 259 -15 236 8 236 37 c 0
 236 83 281 117 319 117 c 2
 336 117 l 2
 368 117 390 95 390 65 c 0xd4
EndSplineSet
EndChar

StartChar: at
Encoding: 64 64 44
Width: 600
Flags: W
HStem: -152 78<222.021 382.091> 72 81<358.226 439.35> 316 81<403.656 474> 541 79<348.608 477.173>
VStem: 98 81<-21.7614 204.523> 263 80<169.103 265.223> 501 81<397.883 517.291>
DStem2: 43.9577 -152 122.47 -152 0.207912 0.978148<253.222 617.98> 374.745 -152 453.233 -152 0.207912 0.978148<307.243 478.409 555.364 622.506>
LayerCount: 2
Fore
SplineSet
534 123 m 0
 534 103 523 72 469 72 c 2
 422 72 l 1
 423 75 l 1
 408 73 398 72 389 72 c 0
 315 72 263 126 263 195 c 0
 263 291 356 387 491 397 c 1
 498 429 l 2
 500 439 501 449 501 458 c 0
 501 508 469 541 417 541 c 0
 333 541 250 445 222 317 c 2
 189 161 l 2
 183 131 179 102 179 77 c 0
 179 38 187 4 201 -24 c 1
 217 -59 245 -74 289 -74 c 0
 393 -74 400 -25 434 -25 c 0
 453 -25 466 -38 466 -57 c 0
 466 -114 357 -152 270 -152 c 0
 133 -152 98 -46 98 56 c 0
 98 88 102 121 109 154 c 2
 145 323 l 2
 181 495 303 620 433 620 c 0
 525 620 582 562 582 476 c 0
 582 461 581 445 577 429 c 2
 517 148 l 1
 529 143 534 135 534 123 c 0
474 316 m 1
 397 309 343 262 343 211 c 0
 343 177 372 153 414 153 c 0
 421 153 426 153 440 155 c 1
 474 316 l 1
EndSplineSet
EndChar

StartChar: A
Encoding: 65 65 45
Width: 600
Flags: W
HStem: 0 100<4.5401 67 176 220.575 376.243 460 574 597.575> 158 100<273 430> 483 100<217.513 304>
DStem2: 67 100 176 100 0.526202 0.85036<57.356 125.62 242.754 450.398> 478 583 393 450 0.194944 -0.980814<113.878 309.407 411.388 470.224>
LayerCount: 2
Fore
SplineSet
241 483 m 2
 219 483 183 483 183 524 c 0
 183 543 197 564 217 576 c 0
 228 582 235 583 262 583 c 2
 478 583 l 1
 574 100 l 1
 602 100 611 98 619 90 c 1
 628 83 633 72 633 59 c 0
 633 40 618 17 598 7 c 0
 589 2 576 0 555 0 c 2
 416 0 l 2
 399 0 360 0 360 39 c 0
 360 50 365 77 394 93 c 0
 404 99 411 100 437 100 c 2
 460 100 l 1
 450 158 l 1
 212 158 l 1
 176 100 l 1
 199 100 l 2
 226 100 234 98 242 91 c 0
 251 83 256 72 256 59 c 0
 256 40 241 17 221 7 c 0
 212 2 199 0 178 0 c 2
 45 0 l 2
 7 0 -11 13 -11 37 c 0
 -11 48 -7 77 23 93 c 0
 33 99 42 100 67 100 c 1
 304 483 l 1
 241 483 l 2
430 258 m 1
 393 450 l 1
 273 258 l 1
 430 258 l 1
EndSplineSet
EndChar

StartChar: B
Encoding: 66 66 46
Width: 600
Flags: W
HStem: 0 100<57.4681 115 215 481.449> 242 100<267 471.541> 483 100<159.514 197 297 504.23>
VStem: 505 103<122.796 212.421> 518 102<383.1 468.188>
DStem2: 93.7443 0 193.744 0 0.207912 0.978148<123.025 268.16 370.548 493.913>
LayerCount: 2
Fore
SplineSet
79 0 m 2xf0
 54 0 23 3 23 40 c 0
 23 61 37 83 57 93 c 0
 67 99 76 100 100 100 c 2
 115 100 l 1
 197 483 l 1
 182 483 l 2
 157 483 146 485 139 492 c 0
 130 500 125 512 125 524 c 0
 125 545 142 566 159 576 c 0
 170 582 179 583 203 583 c 2
 456 583 l 2
 556 583 620 528 620 450 c 0xe8
 620 363 551 319 530 305 c 1
 583 275 608 239 608 191 c 0
 608 93 517 0 374 0 c 2
 79 0 l 2xf0
380 342 m 2
 460 342 518 381 518 431 c 0
 518 464 486 483 430 483 c 2
 297 483 l 1
 267 342 l 1
 380 342 l 2
505 165 m 0xf0
 505 196 483 242 380 242 c 2
 245 242 l 1
 215 100 l 1
 390 100 l 2
 489 100 505 139 505 165 c 0xf0
EndSplineSet
EndChar

StartChar: C
Encoding: 67 67 47
Width: 600
Flags: W
HStem: -14 100<246.131 455.078> 497 100<325.511 503.405> 563 20G<614.5 638.5>
VStem: 80 102<144.216 321.187> 539 102<385.452 465.666>
DStem2: 30.0976 -14 129.673 -14 0.207912 0.978148<255.15 452.058>
LayerCount: 2
Fore
SplineSet
432 597 m 0xd8
 486 597 520 588 576 559 c 1
 593 577 606 583 623 583 c 0xb8
 654 583 663 558 663 547 c 0
 663 540 662 532 659 517 c 2
 641 433 l 2
 640 429 632 367 577 367 c 0
 561 367 539 373 539 407 c 2
 539 420 l 2
 539 444 532 457 507 473 c 0
 483 488 449 497 415 497 c 0
 313 497 222 420 200 315 c 2
 186 251 l 2
 183 238 182 226 182 214 c 0
 182 135 243 86 348 86 c 0
 499 86 492 159 548 159 c 0
 571 159 588 142 588 119 c 0
 588 66 478 -14 324 -14 c 0
 175 -14 80 71 80 194 c 0
 80 212 82 230 86 249 c 2
 100 315 l 2
 134 475 278 597 432 597 c 0xd8
EndSplineSet
EndChar

StartChar: D
Encoding: 68 68 48
Width: 600
Flags: W
HStem: 0 100<38.701 95 195 406.578> 483 100<159.513 177 277 466.021>
VStem: 520 102<239.657 430.659>
DStem2: 73.7443 0 173.744 0 0.207912 0.978148<123.025 493.913> 449.523 0 550.16 0 0.207912 0.978148<168.366 356.362>
LayerCount: 2
Fore
SplineSet
23 40 m 0
 23 63 40 100 95 100 c 1
 177 483 l 1
 143 483 125 496 125 521 c 0
 125 547 144 568 159 576 c 0
 170 582 177 583 204 583 c 2
 416 583 l 2
 541 583 622 494 622 370 c 0
 622 349 620 328 615 305 c 2
 605 258 l 2
 589 185 552 123 496 75 c 0
 436 23 371 0 284 0 c 2
 80 0 l 2
 60 0 23 1 23 40 c 0
520 350 m 0
 520 408 493 483 387 483 c 2
 277 483 l 1
 195 100 l 1
 306 100 l 2
 366 100 402 112 440 144 c 1
 474 175 495 210 505 261 c 1
 515 307 l 2
 518 322 520 336 520 350 c 0
EndSplineSet
EndChar

StartChar: E
Encoding: 69 69 49
Width: 600
Flags: W
HStem: 0 100<39.4531 115 215 471> 243 99<267 331> 366 217<531.08 600.388> 483 100<159.513 197 297 531>
VStem: 325 103<191.423 243> 352 104<343.703 395.736>
DStem2: 93.7443 0 193.744 0 0.207912 0.978148<123.025 269.346 370.548 493.913>
LayerCount: 2
Fore
SplineSet
325 207 m 0xd8
 325 221 330 238 331 243 c 1
 246 243 l 1
 215 100 l 1
 471 100 l 1
 482 152 l 2
 482 153 489 219 547 219 c 0
 568 219 587 203 587 181 c 0
 587 175 585 166 582 152 c 2
 550 0 l 1
 79 0 l 2
 60 0 23 1 23 39 c 0
 23 50 28 76 57 93 c 0
 67 99 76 100 100 100 c 2
 115 100 l 1
 197 483 l 1
 182 483 l 2
 157 483 146 485 139 492 c 0
 130 500 125 511 125 524 c 0
 125 545 142 566 159 576 c 0
 170 582 177 583 203 583 c 2
 652 583 l 1xd8
 620 433 l 2
 614 405 610 397 601 387 c 0
 588 374 572 366 556 366 c 0xe8
 537 366 516 379 516 403 c 0
 516 410 517 419 520 433 c 2
 531 483 l 1
 297 483 l 1
 267 342 l 1
 352 342 l 1
 362 411 403 416 416 416 c 0
 441 416 456 400 456 375 c 0xd4
 456 366 454 359 452 349 c 2
 428 236 l 2
 423 210 419 200 410 191 c 0
 397 178 380 170 365 170 c 0
 345 170 325 183 325 207 c 0xd8
EndSplineSet
EndChar

StartChar: F
Encoding: 70 70 50
Width: 600
Flags: W
HStem: 0 100<57.4681 115 215 356.568> 243 99<267 331> 366 217<553.08 622.388> 483 100<159.513 197 297 553>
DStem2: 93.7443 0 193.744 0 0.207912 0.978148<123.025 269.346 370.548 493.913> 279.349 0 377.837 0 0.207912 0.978148<212.613 248.429 349.632 407.124>
LayerCount: 2
Fore
SplineSet
372 59 m 0xd0
 372 47 366 0 294 0 c 2
 79 0 l 2
 54 0 23 3 23 40 c 0
 23 61 37 83 57 93 c 0
 67 99 76 100 100 100 c 2
 115 100 l 1
 197 483 l 1
 182 483 l 2
 157 483 146 485 139 492 c 0
 130 500 125 511 125 524 c 0
 125 545 142 566 159 576 c 0
 170 582 177 583 203 583 c 2
 674 583 l 1xd0
 642 432 l 2
 636 405 632 397 623 387 c 0
 610 374 594 366 578 366 c 0xe0
 559 366 538 378 538 403 c 0
 538 410 539 419 542 432 c 2
 553 483 l 1
 297 483 l 1
 267 342 l 1
 352 342 l 1
 357 374 365 387 372 394 c 0
 385 407 401 415 417 415 c 0
 441 415 456 396 456 379 c 0
 456 372 455 364 452 349 c 2
 428 236 l 2
 422 209 419 200 409 190 c 0
 397 177 380 169 365 169 c 0
 353 169 325 177 325 207 c 0
 325 221 330 239 331 243 c 1
 246 243 l 1
 215 100 l 1
 315 100 l 2
 339 100 372 100 372 59 c 0xd0
EndSplineSet
EndChar

StartChar: G
Encoding: 71 71 51
Width: 600
Flags: W
HStem: -14 100<237.201 463.913> 180 100<366.468 488> 497 100<322.832 521.512>
VStem: 78 102<135.021 316.993>
DStem2: 29.7353 -14 130.247 -14 0.207912 0.978148<241.3 450.717>
LayerCount: 2
Fore
SplineSet
585 280 m 2
 608 280 642 280 642 240 c 0
 642 216 627 190 588 180 c 1
 560 48 l 1
 461 1 406 -14 328 -14 c 0
 230 -14 151 15 113 65 c 0
 91 95 78 138 78 185 c 0
 78 205 81 225 85 246 c 2
 100 317 l 1
 125 429 238 597 444 597 c 0
 498 597 545 586 582 565 c 1
 599 589 611 597 630 597 c 0
 655 597 667 579 667 560 c 0
 667 554 666 545 663 531 c 2
 646 453 l 2
 640 425 638 418 628 408 c 0
 615 395 598 387 582 387 c 0
 569 387 557 393 550 402 c 1
 546 409 546 409 545 440 c 1
 542 475 497 497 424 497 c 0
 276 497 214 382 200 317 c 2
 187 253 l 2
 183 233 180 216 180 200 c 0
 180 109 267 86 343 86 c 0
 391 86 432 94 474 111 c 1
 488 180 l 1
 388 180 l 2
 363 180 353 182 345 190 c 0
 337 197 332 207 332 219 c 0
 332 239 346 262 366 273 c 0
 376 279 385 280 410 280 c 2
 585 280 l 2
EndSplineSet
EndChar

StartChar: H
Encoding: 72 72 52
Width: 600
Flags: W
HStem: 0 100<48.3158 116 216 252.575 372.468 430 530 557.575> 241 100<267 460> 483 100<298 374.385 474.513 512 612 659.443>
DStem2: 94.7443 0 194.744 0 0.207912 0.978148<123.025 267.181 369.362 493.913> 408.744 0 508.744 0 0.207912 0.978148<123.025 246.39 348.571 493.913>
LayerCount: 2
Fore
SplineSet
394 0 m 2
 371 0 338 2 338 40 c 0
 338 61 352 83 372 93 c 0
 382 99 391 100 415 100 c 2
 430 100 l 1
 460 241 l 1
 246 241 l 1
 216 100 l 1
 231 100 l 2
 257 100 267 98 274 91 c 0
 283 83 288 72 288 59 c 0
 288 40 273 17 253 7 c 0
 244 2 231 0 210 0 c 2
 89 0 l 2
 63 0 33 2 33 39 c 0
 33 61 47 83 67 93 c 0
 77 99 85 100 110 100 c 2
 116 100 l 1
 198 483 l 1
 170 486 155 499 155 521 c 0
 155 547 174 568 189 576 c 0
 200 582 208 583 233 583 c 2
 334 583 l 2
 361 583 369 581 377 574 c 0
 385 566 390 556 390 544 c 0
 390 533 385 506 356 490 c 0
 346 485 337 483 313 483 c 2
 298 483 l 1
 267 341 l 1
 481 341 l 1
 512 483 l 1
 497 483 l 2
 471 483 462 485 454 492 c 0
 445 500 440 511 440 524 c 0
 440 545 457 566 474 576 c 0
 485 582 493 583 518 583 c 2
 619 583 l 2
 642 583 675 583 675 544 c 0
 675 530 667 488 612 483 c 1
 530 100 l 1
 536 100 l 2
 563 100 572 98 579 91 c 0
 588 83 593 72 593 59 c 0
 593 40 578 17 558 7 c 0
 549 2 536 0 515 0 c 2
 394 0 l 2
EndSplineSet
EndChar

StartChar: I
Encoding: 73 73 53
Width: 600
Flags: W
HStem: 0 100<127.467 271 371 513.25> 483 100<229.513 353 453 615.989>
DStem2: 249.744 0 349.744 0 0.207912 0.978148<123.025 493.913>
LayerCount: 2
Fore
SplineSet
575 583 m 2
 594 583 632 584 632 545 c 0
 632 534 627 506 597 490 c 0
 588 485 577 483 554 483 c 2
 453 483 l 1
 371 100 l 1
 472 100 l 2
 499 100 507 98 515 91 c 0
 524 83 529 72 529 60 c 0
 529 36 513 0 451 0 c 2
 149 0 l 2
 124 0 93 3 93 40 c 0
 93 61 107 83 127 93 c 0
 137 99 144 100 170 100 c 2
 271 100 l 1
 353 483 l 1
 252 483 l 2
 227 483 216 485 209 492 c 0
 200 500 195 511 195 524 c 0
 195 545 212 566 229 576 c 0
 240 582 247 583 273 583 c 2
 575 583 l 2
EndSplineSet
EndChar

StartChar: J
Encoding: 74 74 54
Width: 600
Flags: W
HStem: -14 100<198.755 370.264> 483 100<351.513 493 593 711.385>
DStem2: 51.1838 -14 151.155 -14 0.207912 0.978148<149.658 282.833> 387.359 -14 487.276 -14 0.207912 0.978148<137.193 508.103>
LayerCount: 2
Fore
SplineSet
164 280 m 0
 192 280 204 258 204 243 c 0
 204 236 202 227 199 213 c 2
 179 117 l 1
 223 95 255 86 289 86 c 0
 325 86 364 100 392 122 c 1
 417 143 422 152 432 198 c 2
 493 483 l 1
 374 483 l 2
 349 483 338 485 331 492 c 0
 322 500 317 511 317 524 c 0
 317 545 334 566 351 576 c 0
 362 582 369 583 395 583 c 2
 671 583 l 2
 698 583 706 581 714 574 c 0
 722 566 727 556 727 544 c 0
 727 533 722 506 693 490 c 0
 684 485 673 483 650 483 c 2
 593 483 l 1
 530 187 l 2
 516 121 491 83 435 42 c 0
 385 6 325 -14 266 -14 c 0
 209 -14 146 6 65 51 c 1
 99 213 l 2
 105 239 109 250 118 259 c 0
 131 272 148 280 164 280 c 0
EndSplineSet
EndChar

StartChar: K
Encoding: 75 75 55
Width: 600
Flags: W
HStem: 0 100<57.4681 115 215 271.665 520.785 578.665> 7 93<229.935 292.625 536.935 599.625> 483 100<159.513 197 297 393.385 614 672.609>
VStem: 426 188<15.9547 90.6228> 452 235<497.806 566.362>
DStem2: 93.7443 0 193.744 0 0.207912 0.978148<123.025 233.447 362.307 493.913> 265 334 405 330 0.807155 0.590339<0 1.61599 110.64 260.632>
LayerCount: 2
Fore
SplineSet
452 519 m 0xa8
 452 541 464 583 531 583 c 2
 631 583 l 2
 654 583 687 583 687 544 c 0xa8
 687 531 681 483 614 483 c 1
 405 330 l 1
 459 298 504 215 525 100 c 1
 557 100 l 2xb0
 584 100 592 98 600 91 c 0
 609 83 614 72 614 59 c 0
 614 40 599 17 579 7 c 0x70
 572 3 556 0 536 0 c 2
 426 0 l 1
 409 143 366 240 309 259 c 1
 238 208 l 1
 215 100 l 1
 250 100 l 2xb0
 277 100 285 98 293 91 c 0
 302 83 307 72 307 59 c 0
 307 40 292 17 272 7 c 0x70
 265 3 249 0 229 0 c 2
 79 0 l 2
 54 0 23 3 23 40 c 0
 23 61 37 83 57 93 c 0
 67 99 76 100 100 100 c 2
 115 100 l 1
 197 483 l 1
 182 483 l 2
 157 483 146 485 139 492 c 0
 130 500 125 511 125 524 c 0
 125 545 142 566 159 576 c 0
 170 582 177 583 203 583 c 2
 353 583 l 2
 380 583 388 581 396 574 c 0
 404 566 409 556 409 544 c 0
 409 533 404 506 375 490 c 0
 366 485 355 483 332 483 c 2
 297 483 l 1
 265 334 l 1
 476 487 l 1
 460 493 452 503 452 519 c 0xa8
EndSplineSet
EndChar

StartChar: L
Encoding: 76 76 56
Width: 600
Flags: W
HStem: 0 100<58.626 177 277 492> 483 100<179.513 259 359 477.385>
DStem2: 155.744 0 255.744 0 0.207912 0.978148<123.025 493.913> 470.744 0 571.189 0 0.207912 0.978148<102.234 248.005>
LayerCount: 2
Fore
SplineSet
99 0 m 2
 80 0 43 1 43 39 c 0
 43 50 48 77 77 93 c 0
 87 99 94 100 120 100 c 2
 177 100 l 1
 259 483 l 1
 202 483 l 2
 177 483 166 485 159 492 c 0
 150 500 145 511 145 524 c 0
 145 545 162 566 179 576 c 0
 190 582 197 583 223 583 c 2
 437 583 l 2
 464 583 471 581 480 574 c 1
 488 566 493 556 493 544 c 0
 493 533 488 506 459 490 c 0
 450 485 439 483 416 483 c 2
 359 483 l 1
 277 100 l 1
 492 100 l 1
 512 192 l 2
 512 194 519 259 576 259 c 0
 604 259 616 236 616 223 c 0
 616 216 615 207 612 192 c 2
 571 0 l 1
 99 0 l 2
EndSplineSet
EndChar

StartChar: M
Encoding: 77 77 57
Width: 600
Flags: W
HStem: 0 100<6.07193 63 163 219.665 405.467 483 583 619.803> 7 93<177.935 243.915> 483 100<117.858 145 665 712.443>
DStem2: 41.7443 0 141.744 0 0.207912 0.978148<123.025 418.6> 364 286 380 138 0.5547 0.83205<0 186.102> 461.744 0 561.744 0 0.207912 0.978148<123.025 397.809>
LayerCount: 2
Fore
SplineSet
427 0 m 2xa0
 399 0 371 5 371 40 c 0
 371 61 385 83 405 93 c 0
 415 99 422 100 448 100 c 2
 483 100 l 1
 545 389 l 1
 380 138 l 1
 289 138 l 1
 225 389 l 1
 163 100 l 1
 198 100 l 2xa0
 221 100 255 100 255 60 c 0
 255 40 241 19 220 7 c 0x60
 213 3 197 0 177 0 c 2
 48 0 l 2
 20 0 -9 5 -9 39 c 0
 -9 59 4 100 63 100 c 1
 145 483 l 1
 117 486 102 499 102 520 c 0
 102 539 114 584 176 584 c 0
 211 584 252 583 289 583 c 1
 364 286 l 1
 562 583 l 1
 672 583 l 2
 695 583 728 583 728 544 c 0
 728 530 720 488 665 483 c 1
 583 100 l 1
 617 100 635 86 635 61 c 0
 635 47 629 0 557 0 c 2
 427 0 l 2xa0
EndSplineSet
EndChar

StartChar: N
Encoding: 78 78 58
Width: 600
Flags: W
HStem: 0 100<37.0719 94 194 250.665> 7 93<208.935 275.163> 483 100<138.513 176 476.513 534 634 690.442>
DStem2: 72.7443 0 172.744 0 0.207912 0.978148<123.025 423.699> 297 583 257 394 0.405923 -0.913907<156.492 429.288> 431.402 0 531 0 0.207912 0.978148<195.267 493.777>
LayerCount: 2
Fore
SplineSet
706 544 m 0xa0
 706 525 694 483 634 483 c 1
 531 0 l 1
 432 0 l 1
 257 394 l 1
 194 100 l 1
 229 100 l 2xa0
 253 100 286 100 286 60 c 0
 286 40 272 19 251 7 c 0x60
 244 3 228 0 208 0 c 2
 79 0 l 2
 51 0 22 5 22 39 c 0
 22 59 35 100 94 100 c 1
 176 483 l 1
 161 483 l 2
 136 483 125 485 118 492 c 0
 109 500 104 511 104 524 c 0
 104 545 121 566 138 576 c 0
 149 582 156 583 182 583 c 2
 297 583 l 1
 472 191 l 1
 534 483 l 1
 499 483 l 2
 474 483 463 485 456 492 c 0
 447 500 442 511 442 524 c 0
 442 545 459 566 476 576 c 0
 487 582 494 583 520 583 c 2
 650 583 l 2
 677 583 684 581 693 574 c 1
 701 566 706 556 706 544 c 0xa0
EndSplineSet
EndChar

StartChar: O
Encoding: 79 79 59
Width: 600
Flags: W
HStem: -14 100<244.642 400.049> 497 100<326.193 481.42>
VStem: 75 103<156.686 338.017> 546 103<244.12 427.311>
LayerCount: 2
Fore
SplineSet
75 222 m 0
 75 415 249 597 427 597 c 0
 546 597 649 508 649 366 c 0
 649 157 466 -14 297 -14 c 0
 165 -14 75 87 75 222 c 0
318 86 m 0
 428 86 546 206 546 340 c 0
 546 430 490 497 406 497 c 0
 296 497 178 376 178 244 c 0
 178 154 234 86 318 86 c 0
EndSplineSet
EndChar

StartChar: P
Encoding: 80 80 60
Width: 600
Flags: W
HStem: 0 100<57.4681 115 215 335.665> 7 93<293.935 356.625> 200 100<258 458.559> 483 100<159.513 197 297 484.918>
VStem: 508 109<348.641 461.726>
DStem2: 93.7443 0 193.744 0 0.207912 0.978148<123.025 225.414 327.595 493.913>
LayerCount: 2
Fore
SplineSet
79 0 m 2xb8
 54 0 23 3 23 40 c 0
 23 61 37 83 57 93 c 0
 67 99 76 100 100 100 c 2
 115 100 l 1
 197 483 l 1
 182 483 l 2
 157 483 146 485 139 492 c 0
 130 500 125 512 125 524 c 0
 125 545 142 567 159 576 c 0
 170 582 177 583 203 583 c 2
 436 583 l 2
 547 583 617 523 617 433 c 0
 617 366 578 304 536 266 c 0
 481 217 428 200 335 200 c 2
 237 200 l 1
 215 100 l 1
 314 100 l 2xb8
 341 100 349 98 357 91 c 0
 366 83 371 72 371 59 c 0
 371 40 356 17 336 7 c 0x78
 329 3 313 0 293 0 c 2
 79 0 l 2xb8
376 300 m 2
 475 300 508 367 508 412 c 0
 508 457 475 483 415 483 c 2
 297 483 l 1
 258 300 l 1
 376 300 l 2
EndSplineSet
EndChar

StartChar: Q
Encoding: 81 81 61
Width: 600
Flags: W
HStem: -145 100<335.383 491.538> -117 92<262.695 371.782> -7 92<267.144 399.633> 497 100<323.637 480.656>
VStem: 75 103<157.549 338.942> 546 103<246.793 426.951>
LayerCount: 2
Fore
SplineSet
75 220 m 0x7c
 75 419 252 597 427 597 c 0
 558 597 649 496 649 362 c 0
 649 234 569 99 435 27 c 0
 392 4 344 -7 288 -7 c 0
 286 -7 278 -7 270 -6 c 1
 261 -30 l 1
 285 -26 298 -25 313 -25 c 0x7c
 370 -25 402 -45 433 -45 c 0
 471 -45 494 -13 523 -13 c 0
 548 -13 565 -30 565 -52 c 0
 565 -89 528 -107 515 -114 c 0
 474 -136 444 -145 413 -145 c 0xbc
 357 -145 350 -117 294 -117 c 0
 248 -117 147 -143 135 -143 c 0
 113 -143 97 -125 97 -102 c 0
 97 -73 118 -60 126 -53 c 2
 200 7 l 1
 147 42 75 86 75 220 c 0x7c
318 85 m 0
 422 85 546 197 546 340 c 0
 546 430 490 497 406 497 c 0
 288 497 178 367 178 243 c 0
 178 153 234 85 318 85 c 0
EndSplineSet
EndChar

StartChar: R
Encoding: 82 82 62
Width: 600
Flags: W
HStem: 0 100<57.4681 115 215 291.568 551.833 615.803> 222 100<262 362.43> 483 100<159.513 197 297 481.26>
VStem: 504 108<371.75 461.261>
DStem2: 93.7443 0 193.744 0 0.207912 0.978148<123.025 247.765 349.946 493.913>
LayerCount: 2
Fore
SplineSet
307 59 m 0
 307 47 301 0 229 0 c 2
 79 0 l 2
 54 0 23 3 23 40 c 0
 23 61 37 83 57 93 c 0
 67 99 76 100 100 100 c 2
 115 100 l 1
 197 483 l 1
 182 483 l 2
 157 483 146 485 139 492 c 0
 130 500 125 511 125 524 c 0
 125 545 142 566 159 576 c 0
 170 582 177 583 203 583 c 2
 426 583 l 2
 541 583 612 526 612 441 c 0
 612 329 510 275 468 254 c 1
 506 213 533 167 561 100 c 1
 574 100 l 2
 599 100 631 100 631 59 c 0
 631 47 625 0 553 0 c 2
 474 0 l 1
 445 97 376 207 337 222 c 1
 241 222 l 1
 215 100 l 1
 250 100 l 2
 274 100 307 100 307 59 c 0
338 322 m 2
 426 322 504 363 504 420 c 0
 504 457 467 483 409 483 c 2
 297 483 l 1
 262 322 l 1
 338 322 l 2
EndSplineSet
EndChar

StartChar: S
Encoding: 83 83 63
Width: 600
Flags: W
HStem: -14 100<228.79 416.566> 1 21G<99.5 121> 497 100<321.101 484.338>
VStem: 90 105<115.921 181.06> 168 106<371.252 454.237> 469 107<129.607 212.07>
LayerCount: 2
Fore
SplineSet
595 597 m 0xac
 615 597 634 584 634 562 c 0
 634 555 633 546 630 531 c 2
 611 443 l 2
 605 415 602 407 592 397 c 0
 580 384 563 376 548 376 c 0
 506 376 510 407 509 430 c 1
 509 470 467 497 405 497 c 0
 326 497 274 449 274 412 c 0
 274 321 460 362 540 285 c 0
 564 261 576 233 576 198 c 0
 576 71 454 -14 306 -14 c 0xac
 252 -14 202 -1 158 25 c 1
 137 5 129 1 113 1 c 0
 86 1 73 14 73 41 c 0
 73 48 74 57 76 67 c 2
 90 133 l 2
 92 140 100 199 154 199 c 0
 199 199 194 159 195 151 c 0x74
 197 115 254 86 320 86 c 0
 393 86 469 121 469 173 c 0
 469 253 314 223 224 281 c 0
 188 304 168 344 168 388 c 0
 168 499 286 597 426 597 c 0
 477 597 519 586 549 564 c 1
 564 589 575 597 595 597 c 0xac
EndSplineSet
EndChar

StartChar: T
Encoding: 84 84 64
Width: 600
Flags: W
HStem: 0 100<162.467 270 370 457.665> 7 93<415.935 478.625> 483 100<245 352 452 561>
DStem2: 42.1029 0 142.103 0 0.207912 0.978148<369.837 514.63> 248.744 0 348.744 0 0.207912 0.978148<123.025 493.913>
LayerCount: 2
Fore
SplineSet
577 324 m 0xa0
 558 324 537 337 537 361 c 0
 537 368 538 377 541 390 c 2
 561 483 l 1
 452 483 l 1
 370 100 l 1
 436 100 l 2xa0
 463 100 471 98 479 91 c 0
 488 83 493 72 493 59 c 0
 493 40 478 17 458 7 c 0x60
 451 3 435 0 415 0 c 2
 184 0 l 2
 157 0 128 5 128 40 c 0
 128 61 142 83 162 93 c 0
 172 99 179 100 205 100 c 2
 270 100 l 1
 352 483 l 1
 245 483 l 1
 225 390 l 2
 224 387 216 324 161 324 c 0
 139 324 121 339 121 361 c 0
 121 368 122 377 125 390 c 2
 166 583 l 1
 682 583 l 1
 641 390 l 2
 635 362 632 355 622 345 c 0
 610 332 593 324 577 324 c 0xa0
EndSplineSet
EndChar

StartChar: U
Encoding: 85 85 65
Width: 600
Flags: W
HStem: -14 100<246.839 400.077> 483 100<156.514 174 274 370.815 474.513 532 632 688.895>
VStem: 109 102<120.75 227.889>
DStem2: 68.4501 -14 168.363 -14 0.207912 0.978148<215.762 508.084> 426.363 -14 526.45 -14 0.207912 0.978148<148.667 508.102>
LayerCount: 2
Fore
SplineSet
705 545 m 0
 705 525 692 483 632 483 c 1
 573 205 l 2
 557 134 519 78 452 35 c 0
 402 2 352 -14 297 -14 c 0
 185 -14 109 61 109 155 c 0
 109 171 111 188 115 205 c 2
 174 483 l 1
 140 484 122 497 122 520 c 0
 122 547 141 568 156 576 c 0
 167 582 175 583 200 583 c 2
 330 583 l 2
 358 583 365 582 374 574 c 0
 382 566 386 556 386 544 c 0
 386 533 382 506 352 490 c 0
 343 485 332 483 309 483 c 2
 274 483 l 1
 213 196 l 2
 212 189 211 182 211 176 c 0
 211 125 255 86 318 86 c 0
 389 86 458 135 471 196 c 2
 532 483 l 1
 497 483 l 2
 471 483 461 485 454 492 c 0
 445 500 440 511 440 524 c 0
 440 545 457 566 474 576 c 0
 485 582 492 583 518 583 c 2
 648 583 l 2
 670 583 705 583 705 545 c 0
EndSplineSet
EndChar

StartChar: V
Encoding: 86 86 66
Width: 600
Flags: W
HStem: 0 21G<244.901 360.754> 483 100<125.513 150 262 342.652 503.513 550 656 719.041>
DStem2: 262 483 150 483 0.200794 -0.979633<0 346.553> 334 144 348 0 0.537666 0.843158<0 401.966>
LayerCount: 2
Fore
SplineSet
302 583 m 2
 325 583 358 583 358 544 c 0
 358 533 354 506 324 490 c 0
 314 485 305 483 281 483 c 2
 262 483 l 1
 334 144 l 1
 550 483 l 1
 526 483 l 2
 503 483 469 483 469 524 c 0
 469 545 486 566 503 576 c 0
 514 582 521 583 547 583 c 2
 679 583 l 2
 705 583 714 581 722 574 c 0
 730 566 735 556 735 544 c 0
 735 520 716 494 694 487 c 0
 684 484 677 483 656 483 c 1
 348 0 l 1
 249 0 l 1
 150 483 l 1
 129 483 91 482 91 524 c 0
 91 545 108 566 125 576 c 0
 136 582 143 583 169 583 c 2
 302 583 l 2
EndSplineSet
EndChar

StartChar: W
Encoding: 87 87 67
Width: 600
Flags: W
HStem: 0 21G<98 219.83 390.545 509.749> 417 20G<333.027 450.478> 483 100<242 352.385 493.513 569 666 708.652>
DStem2: 98 0 220 211 0.0845819 0.996417<220.563 489.202> 220 211 359 277 0.476181 0.879347<0 124.226> 476 211 503 0 0.319757 0.9475<0 287.457>
LayerCount: 2
Fore
SplineSet
668 583 m 2
 691 583 724 583 724 544 c 0
 724 534 719 492 666 483 c 1
 503 0 l 1
 393 0 l 1
 359 277 l 1
 209 0 l 1
 98 0 l 1
 139 483 l 1
 115 486 102 498 102 518 c 0
 102 541 116 564 136 576 c 0
 147 582 154 583 180 583 c 2
 311 583 l 2
 339 583 346 581 355 574 c 1
 363 566 368 556 368 544 c 0
 368 533 363 506 334 490 c 0
 324 485 314 483 290 483 c 2
 242 483 l 1
 220 211 l 1
 344 437 l 1
 448 437 l 1
 476 211 l 1
 569 483 l 1
 516 483 l 2
 491 483 480 485 473 492 c 0
 464 500 459 511 459 524 c 0
 459 545 476 566 493 576 c 0
 504 582 511 583 537 583 c 2
 668 583 l 2
EndSplineSet
EndChar

StartChar: X
Encoding: 88 88 68
Width: 600
Flags: W
HStem: 0 100<36.0516 90 372.899 423 552 566.575> 483 100<624 676.374>
VStem: 467 225<498.223 566.253>
DStem2: 90 100 220 100 0.726517 0.687149<94.4472 269.899 399.656 558.831> 308 484 180 483 0.536307 -0.844023<0 130.613 244.274 385.78>
LayerCount: 2
Fore
SplineSet
131 522 m 0
 131 546 150 583 209 583 c 2
 300 583 l 2
 328 583 335 581 344 574 c 1
 352 566 357 556 357 544 c 0
 357 506 325 491 308 484 c 1
 380 375 l 1
 496 484 l 1
 475 496 467 506 467 522 c 0
 467 536 474 583 546 583 c 2
 636 583 l 2
 655 583 692 584 692 545 c 0
 692 525 680 485 624 483 c 1
 427 297 l 1
 552 100 l 1
 585 99 602 85 602 62 c 0
 602 35 583 15 567 7 c 0
 558 2 545 0 524 0 c 2
 413 0 l 2
 375 0 357 13 357 37 c 0
 357 55 367 97 423 100 c 1
 348 220 l 1
 220 100 l 1
 249 98 265 85 265 62 c 0
 265 35 246 15 230 7 c 0
 221 2 208 0 187 0 c 2
 76 0 l 2
 51 0 20 3 20 39 c 0
 20 58 34 100 90 100 c 1
 298 298 l 1
 180 483 l 1
 148 485 131 499 131 522 c 0
EndSplineSet
EndChar

StartChar: Y
Encoding: 89 89 69
Width: 600
Flags: W
HStem: 0 100<144.026 271 371 458.665> 7 93<415.981 479.625> 483 100<148.875 188 617 676.95>
DStem2: 308 484 188 483 0.431992 -0.901878<0 151.167> 374 348 402 245 0.670342 0.742053<0 183.371>
LayerCount: 2
Fore
SplineSet
627 483 m 2xa0
 617 483 l 1
 402 245 l 1
 371 100 l 1
 436 100 l 2xa0
 464 100 472 98 480 91 c 0
 489 83 494 72 494 59 c 0
 494 40 479 17 459 7 c 0x60
 452 3 436 0 415 0 c 2
 185 0 l 2
 157 0 128 5 128 39 c 0
 128 50 133 77 162 93 c 0
 172 99 179 100 206 100 c 2
 271 100 l 1
 302 245 l 1
 188 483 l 1
 152 483 133 497 133 521 c 0
 133 546 149 583 212 583 c 2
 301 583 l 2
 324 583 357 583 357 544 c 0
 357 523 345 499 308 484 c 1
 374 348 l 1
 497 484 l 1
 476 492 466 505 466 522 c 0
 466 548 486 568 500 576 c 0
 511 582 520 583 545 583 c 2
 637 583 l 2
 664 583 672 581 680 574 c 0
 689 566 694 556 694 545 c 0
 694 516 668 483 627 483 c 2xa0
EndSplineSet
EndChar

StartChar: Z
Encoding: 90 90 70
Width: 600
Flags: W
HStem: 0 100<222 448> 483 100<299 478>
DStem2: 94 100 222 100 0.706189 0.708023<90.3922 542.349> 426.744 0 527.44 0 0.207912 0.978148<102.234 225.699>
LayerCount: 2
Fore
SplineSet
220 347 m 0
 201 347 180 360 180 385 c 0
 180 391 181 400 184 413 c 2
 220 583 l 1
 628 583 l 1
 607 486 l 1
 222 100 l 1
 448 100 l 1
 464 172 l 2
 469 197 473 208 482 218 c 1
 495 230 512 238 528 238 c 0
 560 238 568 211 568 201 c 0
 568 195 567 186 564 172 c 2
 527 0 l 1
 73 0 l 1
 94 100 l 1
 478 483 l 1
 299 483 l 1
 284 413 l 2
 278 386 274 377 265 368 c 0
 252 355 236 347 220 347 c 0
EndSplineSet
EndChar

StartChar: bracketleft
Encoding: 91 91 71
Width: 600
Flags: W
HStem: -148 100<340 438.547> 527 100<462 563.53>
DStem2: 219 -148 318.744 -148 0.207912 0.978148<122.972 710.772>
LayerCount: 2
Fore
SplineSet
541 627 m 2
 564 627 598 627 598 587 c 0
 598 561 578 542 564 534 c 0
 554 529 542 527 520 527 c 2
 462 527 l 1
 340 -48 l 1
 399 -48 l 2
 426 -48 433 -50 442 -57 c 1
 450 -65 455 -75 455 -87 c 0
 455 -98 450 -124 421 -141 c 0
 412 -146 400 -148 378 -148 c 2
 219 -148 l 1
 383 627 l 1
 541 627 l 2
EndSplineSet
EndChar

StartChar: backslash
Encoding: 92 92 72
Width: 600
Flags: W
VStem: 219 103<624.186 678.123>
DStem2: 322 651 225 610 0.249576 -0.968355<-10.9076 728.762>
LayerCount: 2
Fore
SplineSet
219 636 m 0
 219 662 247 695 281 695 c 0
 304 695 315 685 322 651 c 1
 499 -27 l 2
 502 -39 504 -48 504 -55 c 0
 504 -89 469 -113 443 -113 c 0
 419 -113 409 -103 400 -69 c 2
 225 610 l 2
 221 623 219 630 219 636 c 0
EndSplineSet
EndChar

StartChar: bracketright
Encoding: 93 93 73
Width: 600
Flags: W
HStem: -148 100<138.425 240> 527 100<263.453 362>
DStem2: 218.744 -148 319 -148 0.207912 0.978148<102.234 690.034>
LayerCount: 2
Fore
SplineSet
161 -148 m 2
 135 -148 104 -148 104 -108 c 0
 104 -87 119 -65 138 -55 c 0
 147 -50 160 -48 182 -48 c 2
 240 -48 l 1
 362 527 l 1
 303 527 l 2
 276 527 268 529 260 536 c 0
 252 544 247 554 247 566 c 0
 247 577 252 603 281 620 c 0
 290 625 302 627 324 627 c 2
 483 627 l 1
 319 -148 l 1
 161 -148 l 2
EndSplineSet
EndChar

StartChar: asciicircum
Encoding: 94 94 74
Width: 600
Flags: W
HStem: 325 327
DStem2: 194 419 258 356 0.723221 0.690617<-58.4579 203.673> 438 652 404 494 0.530979 -0.847385<115.833 310.811>
LayerCount: 2
Fore
SplineSet
598 385 m 0
 598 351 562 325 536 325 c 0
 517 325 509 330 493 355 c 2
 404 494 l 1
 258 356 l 2
 230 330 222 325 202 325 c 0
 179 325 162 342 162 365 c 0
 162 386 173 399 194 419 c 2
 438 652 l 1
 584 419 l 2
 594 403 598 395 598 385 c 0
EndSplineSet
EndChar

StartChar: underscore
Encoding: 95 95 75
Width: 600
Flags: W
HStem: -125 50<-28 585>
LayerCount: 2
Fore
SplineSet
596 -75 m 1
 585 -125 l 1
 -39 -125 l 1
 -28 -75 l 1
 596 -75 l 1
EndSplineSet
EndChar

StartChar: grave
Encoding: 96 96 76
Width: 600
Flags: W
HStem: 496 200
VStem: 264 200
DStem2: 339 680 390 512 0.697444 -0.71664<-31.3344 186.633>
LayerCount: 2
Fore
SplineSet
264 653 m 0
 264 672 283 696 310 696 c 0
 321 696 325 693 339 680 c 2
 448 569 l 2
 459 558 464 549 464 539 c 0
 464 514 438 496 418 496 c 0
 408 496 402 500 390 512 c 2
 281 624 l 2
 269 635 264 643 264 653 c 0
EndSplineSet
EndChar

StartChar: a
Encoding: 97 97 77
Width: 600
Flags: W
HStem: -16 100<178.205 348.975> 0 100<510 547.621> 185 93<346.499 428> 196 92<227.236 426.887> 350 100<237.57 447.884>
VStem: 65 108<92.853 153.509> 453 104<279.133 339.806>
LayerCount: 2
Fore
SplineSet
526 100 m 2x6e
 550 100 583 100 583 59 c 0
 583 38 568 17 548 7 c 0
 540 2 526 0 505 0 c 2
 388 0 l 1x6e
 393 23 l 1
 340 -2 278 -16 219 -16 c 0
 129 -16 65 34 65 99 c 0
 65 166 154 288 345 288 c 0x9e
 377 288 408 285 447 278 c 1
 452 301 l 2
 453 305 453 308 453 311 c 0
 453 338 426 350 369 350 c 0
 297 350 241 327 209 327 c 0
 185 327 169 343 169 367 c 0
 169 396 189 413 209 420 c 0
 261 437 338 450 388 450 c 0
 496 450 557 408 557 335 c 0
 557 324 555 314 553 302 c 2
 510 100 l 1
 526 100 l 2x6e
320 196 m 0x1e
 247 196 173 155 173 118 c 0
 173 99 202 84 242 84 c 0
 296 84 355 101 418 135 c 1
 428 185 l 1xae
 390 192 354 196 320 196 c 0x1e
EndSplineSet
EndChar

StartChar: b
Encoding: 98 98 78
Width: 600
Flags: W
HStem: -14 100<260.276 427.509> 0 100<17.1849 95> 351 100<311.869 476.961> 524 100<147.469 185>
VStem: 521 102<174.099 308.481>
LayerCount: 2
Fore
SplineSet
169 524 m 2x78
 144 524 113 524 113 564 c 0
 113 585 128 607 147 617 c 0
 157 623 167 624 191 624 c 2
 307 624 l 1
 259 401 l 1
 309 435 360 451 420 451 c 0
 582 451 623 343 623 271 c 0
 623 136 508 -14 322 -14 c 0xb8
 263 -14 226 -1 181 35 c 1
 174 0 l 1
 58 0 l 2
 31 0 2 3 2 39 c 0
 2 50 6 77 36 93 c 0
 46 99 54 100 79 100 c 2
 95 100 l 1
 185 524 l 1
 169 524 l 2x78
398 351 m 0
 272 351 218 254 218 190 c 0
 218 127 265 86 341 86 c 0
 445 86 521 166 521 243 c 0
 521 278 504 351 398 351 c 0
EndSplineSet
EndChar

StartChar: c
Encoding: 99 99 79
Width: 600
Flags: W
HStem: -16 100<236.042 476.083> 350 100<293.941 479.105>
VStem: 92 103<120.784 254.767>
LayerCount: 2
Fore
SplineSet
92 157 m 0
 92 290 210 450 406 450 c 0
 463 450 509 440 543 420 c 1
 554 441 567 450 588 450 c 0
 613 450 625 438 625 412 c 0
 625 404 624 395 622 384 c 2
 605 307 l 2
 600 281 596 271 587 262 c 0
 574 249 557 241 541 241 c 0
 528 241 515 247 508 255 c 1
 501 261 501 267 500 289 c 0
 500 307 496 316 485 325 c 1
 462 341 428 350 384 350 c 0
 255 350 195 250 195 178 c 0
 195 115 246 84 348 84 c 0
 510 84 497 140 545 140 c 0
 568 140 585 123 585 100 c 0
 585 60 518 -16 320 -16 c 0
 223 -16 165 5 126 53 c 1
 104 82 92 117 92 157 c 0
EndSplineSet
EndChar

StartChar: d
Encoding: 100 100 80
Width: 600
Flags: W
HStem: -14 100<220.64 385.085> 0 100<552 589.577> 351 100<268.059 437.852> 525 99<504.467 543>
VStem: 74 103<126.722 265.342>
LayerCount: 2
Fore
SplineSet
527 525 m 2xb8
 503 525 470 525 470 566 c 0
 470 585 484 607 504 617 c 0
 514 623 522 624 548 624 c 2
 664 624 l 1
 552 100 l 1
 568 100 l 2
 592 100 625 100 625 59 c 0
 625 38 610 17 590 7 c 0
 581 2 570 0 547 0 c 2
 431 0 l 1x78
 438 35 l 1
 378 -1 336 -14 277 -14 c 0
 114 -14 74 95 74 166 c 0
 74 296 182 451 377 451 c 0
 437 451 480 435 516 401 c 1
 543 525 l 1
 527 525 l 2xb8
480 246 m 0
 480 280 464 351 356 351 c 0
 231 351 177 253 177 190 c 0
 177 130 222 86 300 86 c 0xb8
 423 86 480 182 480 246 c 0
EndSplineSet
EndChar

StartChar: e
Encoding: 101 101 81
Width: 600
Flags: W
HStem: -16 100<222.908 465.529> 172 88<200 494> 350 100<271.715 450.671>
VStem: 74 105<126.885 172> 494 107<260.497 310.852>
LayerCount: 2
Fore
SplineSet
74 166 m 0
 74 313 214 450 387 450 c 0
 517 450 601 373 601 262 c 0
 601 246 599 229 595 211 c 2
 587 172 l 1
 179 172 l 1
 189 112 236 84 324 84 c 0
 420 84 486 117 527 117 c 0
 550 117 565 101 565 78 c 0
 565 45 538 30 520 22 c 0
 470 2 365 -16 294 -16 c 0
 159 -16 74 57 74 166 c 0
200 260 m 1
 494 260 l 1
 490 315 439 350 366 350 c 0
 293 350 227 314 200 260 c 1
EndSplineSet
EndChar

StartChar: f
Encoding: 102 102 82
Width: 600
Flags: W
HStem: 0 100<100.134 220 320 480.665> 7 93<438.935 505.163> 337 100<201.513 271 392 582.547> 523 100<416.59 651.871>
DStem2: 198.744 0 298.744 0 0.207912 0.978148<123.025 344.659 467.631 547.031>
LayerCount: 2
Fore
SplineSet
632 509 m 0xb0
 618 509 549 523 494 523 c 0
 437 523 407 507 400 474 c 2
 392 437 l 1
 543 437 l 2
 570 437 577 435 586 428 c 1
 594 420 599 410 599 398 c 0
 599 387 594 361 565 344 c 0
 556 339 544 337 522 337 c 2
 371 337 l 1
 320 100 l 1
 459 100 l 2xb0
 483 100 516 100 516 59 c 0
 516 38 501 18 481 7 c 0x70
 474 3 458 0 438 0 c 2
 141 0 l 2
 117 0 85 2 85 39 c 0
 85 61 99 83 119 93 c 0
 129 99 136 100 162 100 c 2
 220 100 l 1
 271 337 l 1
 224 337 l 2
 200 337 188 339 181 347 c 1
 172 354 167 365 167 378 c 0
 167 397 181 420 201 430 c 0
 212 436 219 437 246 437 c 2
 292 437 l 1
 300 474 l 2
 319 566 405 623 524 623 c 0
 566 623 628 616 658 607 c 0
 680 601 691 588 691 570 c 0
 691 541 664 509 632 509 c 0xb0
EndSplineSet
EndChar

StartChar: g
Encoding: 103 103 83
Width: 600
Flags: W
HStem: -205 100<141.467 363.127> -14 100<218.791 367.039> 337 100<582 659.652> 351 100<269.187 417.596>
VStem: 73 104<128.051 264.715>
LayerCount: 2
Fore
SplineSet
73 167 m 0xe8
 73 310 204 451 365 451 c 0xd8
 419 451 463 434 495 401 c 1
 503 437 l 1
 619 437 l 2
 642 437 675 437 675 398 c 0
 675 387 671 360 641 344 c 0
 632 339 621 337 598 337 c 2
 582 337 l 1
 506 -20 l 2
 483 -126 384 -205 275 -205 c 2
 163 -205 l 2
 138 -205 128 -203 121 -195 c 1
 112 -188 107 -177 107 -165 c 0
 107 -145 121 -123 141 -112 c 0
 151 -106 159 -105 185 -105 c 2
 294 -105 l 2
 351 -105 395 -72 406 -20 c 2
 417 35 l 1
 364 1 318 -14 266 -14 c 0
 150 -14 73 61 73 167 c 0xe8
289 86 m 0
 369 86 459 154 459 245 c 0
 459 306 414 351 346 351 c 0
 256 351 177 272 177 191 c 0
 177 131 223 86 289 86 c 0
EndSplineSet
EndChar

StartChar: h
Encoding: 104 104 84
Width: 600
Flags: W
HStem: 0 100<67.4674 116 216 244.574 362.453 430 530 557.575> 350 100<337.277 460.742> 524 100<168.469 206>
VStem: 471 103<254.727 335.635>
DStem2: 94.7443 0 194.744 0 0.207912 0.978148<123.025 335.956 418.6 535.681> 408.744 0 508.744 0 0.207912 0.978148<123.025 306.998>
LayerCount: 2
Fore
SplineSet
190 524 m 2
 165 524 134 524 134 564 c 0
 134 584 148 606 168 617 c 0
 178 622 188 624 212 624 c 2
 328 624 l 1
 278 389 l 1
 326 430 376 450 428 450 c 0
 519 450 574 402 574 325 c 0
 574 312 572 298 569 284 c 2
 530 100 l 1
 536 100 l 2
 560 100 593 100 593 59 c 0
 593 38 578 17 558 7 c 0
 549 2 536 0 515 0 c 2
 403 0 l 2
 378 0 346 2 346 39 c 0
 346 50 351 76 380 93 c 0
 390 98 399 100 424 100 c 2
 430 100 l 1
 467 271 l 2
 470 283 471 293 471 301 c 0
 471 320 460 350 395 350 c 0
 348 350 324 338 255 283 c 1
 216 100 l 1
 222 100 l 2
 250 100 258 98 266 91 c 0
 275 83 280 72 280 59 c 0
 280 38 264 18 245 7 c 0
 236 2 222 0 201 0 c 2
 89 0 l 2
 66 0 33 2 33 40 c 0
 33 61 47 83 67 93 c 0
 77 98 85 100 110 100 c 2
 116 100 l 1
 206 524 l 1
 190 524 l 2
EndSplineSet
EndChar

StartChar: i
Encoding: 105 105 85
Width: 600
Flags: W
HStem: 0 100<87.626 271 371 514.665> 7 93<472.935 535.625> 337 100<220.514 322> 518 105<350 446>
DStem2: 249.744 0 349.744 0 0.207912 0.978148<123.025 344.659>
LayerCount: 2
Fore
SplineSet
128 0 m 2xb0
 109 0 72 1 72 39 c 0
 72 50 77 77 106 93 c 0
 116 99 123 100 149 100 c 2
 271 100 l 1
 322 337 l 1
 244 337 l 2
 219 337 207 339 200 347 c 1
 191 354 186 365 186 378 c 0
 186 397 200 420 220 430 c 0
 231 436 239 437 265 437 c 2
 443 437 l 1
 371 100 l 1
 493 100 l 2xb0
 520 100 528 98 536 91 c 0
 545 83 550 72 550 59 c 0
 550 38 534 18 515 7 c 0x70
 508 3 492 0 472 0 c 2
 128 0 l 2xb0
468 623 m 1
 446 518 l 1
 328 518 l 1
 350 623 l 1
 468 623 l 1
EndSplineSet
EndChar

StartChar: j
Encoding: 106 106 86
Width: 600
Flags: W
HStem: -205 100<98.7013 341.127> 337 100<235.513 460> 518 105<443 540>
DStem2: 344.677 -205 444.677 -205 0.207912 0.978148<127.367 554.133>
LayerCount: 2
Fore
SplineSet
460 337 m 1
 258 337 l 2
 233 337 222 339 215 347 c 1
 206 354 201 366 201 378 c 0
 201 397 215 420 235 430 c 0
 246 436 253 437 279 437 c 2
 581 437 l 1
 484 -20 l 2
 461 -125 362 -205 253 -205 c 2
 139 -205 l 2
 114 -205 104 -203 97 -195 c 1
 88 -188 83 -176 83 -165 c 0
 83 -147 95 -124 117 -112 c 0
 127 -106 136 -105 161 -105 c 2
 272 -105 l 2
 329 -105 373 -72 384 -20 c 2
 460 337 l 1
562 623 m 1
 540 518 l 1
 421 518 l 1
 443 623 l 1
 562 623 l 1
EndSplineSet
EndChar

StartChar: k
Encoding: 107 107 87
Width: 600
Flags: W
HStem: 0 100<58.5401 136 492 547.575> 337 100<501 571.577> 524 100<188.469 226>
DStem2: 114.744 0 215.141 0 0.207912 0.978148<102.234 188.537 314.255 535.681>
LayerCount: 2
Fore
SplineSet
330 37 m 0
 330 56 337 71 354 87 c 1
 271 178 l 1
 250 164 l 1
 215 0 l 1
 99 0 l 2
 61 0 43 13 43 37 c 0
 43 48 47 77 77 93 c 0
 87 99 95 100 120 100 c 2
 136 100 l 1
 226 524 l 1
 210 524 l 2
 185 524 154 524 154 564 c 0
 154 585 169 607 188 617 c 0
 198 623 208 624 232 624 c 2
 348 624 l 1
 276 287 l 1
 368 350 l 1
 362 360 359 367 359 376 c 0
 359 396 373 418 393 430 c 0
 402 435 414 437 438 437 c 2
 550 437 l 2
 572 437 607 437 607 399 c 0
 607 377 593 356 572 344 c 0
 563 339 552 337 529 337 c 2
 501 337 l 1
 362 241 l 1
 492 100 l 1
 525 100 l 2
 553 100 561 98 569 91 c 0
 578 83 583 72 583 59 c 0
 583 38 567 18 548 7 c 0
 539 2 526 0 504 0 c 2
 386 0 l 2
 348 0 330 13 330 37 c 0
EndSplineSet
EndChar

StartChar: l
Encoding: 108 108 88
Width: 600
Flags: W
HStem: 0 100<106.467 271 371 514.665> 7 93<472.935 535.625> 524 100<260.469 361>
DStem2: 249.744 0 349.744 0 0.207912 0.978148<123.025 535.681>
LayerCount: 2
Fore
SplineSet
128 0 m 2xa0
 103 0 72 3 72 40 c 0
 72 61 86 83 106 93 c 0
 116 99 123 100 149 100 c 2
 271 100 l 1
 361 524 l 1
 283 524 l 2
 258 524 247 526 240 534 c 1
 230 541 226 551 226 563 c 0
 226 590 245 609 260 617 c 0
 270 623 280 624 305 624 c 2
 483 624 l 1
 371 100 l 1
 493 100 l 2xa0
 520 100 528 98 536 91 c 0
 545 83 550 72 550 59 c 0
 550 38 534 18 515 7 c 0x60
 508 3 492 0 472 0 c 2
 128 0 l 2xa0
EndSplineSet
EndChar

StartChar: m
Encoding: 109 109 89
Width: 600
Flags: W
HStem: 0 100<6.14209 62 162 178.575 584 620> 350 100<252.856 341.5 449.826 561.987> 417 20G<110 234>
VStem: -9 223<16.2719 84.2181> 531 103<233.352 378.815>
DStem2: 40.7443 0 140.744 0 0.207912 0.978148<123.025 343.543> 252 0 351.744 0 0.207912 0.978148<122.972 332.83> 463 0 562.744 0 0.207912 0.978148<122.972 333.807>
LayerCount: 2
Fore
SplineSet
62 376 m 0xd8
 62 400 79 437 141 437 c 2
 234 437 l 1xb8
 229 413 l 1
 270 441 292 450 322 450 c 0
 361 450 390 434 413 401 c 1
 451 435 487 450 528 450 c 0
 593 450 634 408 634 349 c 0
 634 339 633 329 631 319 c 2
 584 100 l 1
 617 100 635 86 635 61 c 0
 635 37 621 0 557 0 c 2
 463 0 l 1
 529 311 l 2
 530 317 531 323 531 327 c 0
 531 344 522 350 502 350 c 0
 476 350 458 341 417 305 c 1
 373 100 l 1
 406 100 424 85 424 61 c 0
 424 40 410 19 389 7 c 0
 380 2 367 0 346 0 c 2
 252 0 l 1
 318 311 l 2
 319 317 320 322 320 326 c 0
 320 343 311 350 291 350 c 0
 264 350 243 339 206 305 c 1
 162 100 l 1
 196 100 214 86 214 61 c 0
 214 35 196 16 179 7 c 0
 170 2 157 0 136 0 c 2
 48 0 l 2
 28 0 -9 1 -9 40 c 0
 -9 60 5 100 62 100 c 1
 113 337 l 1
 80 338 62 352 62 376 c 0xd8
EndSplineSet
EndChar

StartChar: n
Encoding: 110 110 90
Width: 600
Flags: W
HStem: 0 100<48.9944 116 216 243.575 374.279 431 531 547.575> 350 100<335.544 462.741> 417 20G<162 288>
VStem: 359 224<16.4642 84.6049> 472 103<253.045 338.397>
DStem2: 94.7443 0 194.744 0 0.207912 0.978148<123.025 335.497> 409.744 0 509.744 0 0.207912 0.978148<123.025 305.134>
LayerCount: 2
Fore
SplineSet
115 375 m 0xc8
 115 400 130 437 194 437 c 2
 288 437 l 1xa8
 278 389 l 1
 335 435 373 450 428 450 c 0
 514 450 575 407 575 324 c 0xc8
 575 311 573 297 570 282 c 2
 531 100 l 1
 565 100 583 86 583 61 c 0
 583 35 564 15 548 7 c 0
 539 2 526 0 505 0 c 2
 416 0 l 2
 377 0 359 13 359 37 c 0xd0
 359 62 373 100 431 100 c 1
 469 278 l 2
 471 286 472 293 472 299 c 0
 472 334 446 350 394 350 c 0
 348 350 313 333 255 282 c 1
 216 100 l 1
 222 100 l 2
 249 100 257 98 265 91 c 0
 274 83 279 72 279 59 c 0
 279 38 263 18 244 7 c 0
 235 2 222 0 201 0 c 2
 89 0 l 2
 68 0 33 1 33 39 c 0
 33 61 47 83 67 93 c 0
 77 98 85 100 110 100 c 2
 116 100 l 1
 167 337 l 1
 133 338 115 351 115 375 c 0xc8
EndSplineSet
EndChar

StartChar: o
Encoding: 111 111 91
Width: 600
Flags: W
HStem: -16 100<235.67 408.628> 350 100<282.516 455.268>
VStem: 83 102<131.748 262.789> 507 102<175.617 302.587>
LayerCount: 2
Fore
SplineSet
83 172 m 0
 83 311 222 450 399 450 c 0
 523 450 609 370 609 263 c 0
 609 117 460 -16 297 -16 c 0
 170 -16 83 64 83 172 c 0
318 84 m 0
 426 84 507 165 507 242 c 0
 507 304 453 350 376 350 c 0
 275 350 185 279 185 192 c 0
 185 130 239 84 318 84 c 0
EndSplineSet
EndChar

StartChar: p
Encoding: 112 112 92
Width: 600
Flags: W
HStem: -205 100<-7.53119 52 152 231.575> 10 100<262.453 436.555> 337 100<107.469 146> 350 100<318.27 481.864>
VStem: 522 102<186 309.619>
DStem2: 30.7439 -205.002 130.744 -205.002 0.207912 0.978148<123.027 297.776>
LayerCount: 2
Fore
SplineSet
624 271 m 0xd8
 624 137 498 10 331 10 c 0
 272 10 232 26 188 66 c 1
 152 -105 l 1
 210 -105 l 2
 235 -105 266 -105 266 -144 c 0
 266 -170 248 -189 232 -198 c 0
 223 -203 210 -205 188 -205 c 2
 14 -205 l 2
 -5 -205 -42 -206 -42 -165 c 0
 -42 -144 -27 -122 -8 -112 c 0
 2 -106 12 -105 36 -105 c 2
 52 -105 l 1
 146 337 l 1
 130 337 l 2
 106 337 73 337 73 378 c 0
 73 397 87 420 107 430 c 0
 117 435 127 437 151 437 c 2
 267 437 l 1xe8
 257 392 l 1
 315 434 361 450 423 450 c 0
 545 450 624 376 624 271 c 0xd8
522 250 m 0
 522 288 500 350 397 350 c 0xd8
 275 350 220 263 220 207 c 0
 220 149 268 110 346 110 c 0
 456 110 522 187 522 250 c 0
EndSplineSet
EndChar

StartChar: q
Encoding: 113 113 93
Width: 600
Flags: W
HStem: -205 100<307.423 409 509 546.575> 10 100<222.302 381.817> 337 100<603 680.652> 350 100<263.862 440.642>
VStem: 76 104<150.38 272.053>
DStem2: 387.744 -205 487.744 -205 0.207912 0.978148<123.025 276.982>
LayerCount: 2
Fore
SplineSet
525 -105 m 2xe8
 550 -105 581 -105 581 -145 c 0
 581 -166 566 -187 547 -198 c 0
 538 -203 525 -205 503 -205 c 2
 329 -205 l 2
 304 -205 294 -203 286 -195 c 0
 277 -187 273 -177 273 -165 c 0
 273 -145 287 -123 307 -112 c 0
 316 -107 327 -105 351 -105 c 2
 409 -105 l 1
 445 66 l 1
 385 26 336 10 277 10 c 0
 155 10 76 80 76 179 c 0
 76 308 198 450 373 450 c 0xd8
 436 450 474 434 514 392 c 1
 524 437 l 1
 640 437 l 2
 663 437 696 437 696 398 c 0
 696 387 692 360 662 344 c 0
 653 339 642 337 619 337 c 2
 603 337 l 1
 509 -105 l 1
 525 -105 l 2xe8
305 110 m 0
 427 110 483 196 483 253 c 0
 483 311 434 350 355 350 c 0
 235 350 180 262 180 210 c 0
 180 170 205 110 305 110 c 0
EndSplineSet
EndChar

StartChar: r
Encoding: 114 114 94
Width: 600
Flags: W
HStem: 0 100<79.1335 199 299 460.665> 7 93<417.981 481.625> 337 100<173.76 250> 349 100<453.926 555.357>
DStem2: 177.744 0 277.744 0 0.207912 0.978148<123.025 295.55>
LayerCount: 2
Fore
SplineSet
158 378 m 0xa0
 158 402 177 437 236 437 c 2
 371 437 l 1xa0
 357 372 l 1
 450 432 491 449 540 449 c 0
 607 449 649 400 649 376 c 0
 649 346 621 313 588 313 c 0
 552 313 552 349 517 349 c 0
 485 349 442 325 331 247 c 1
 299 100 l 1
 438 100 l 2x90
 466 100 474 98 482 91 c 0
 491 83 496 72 496 59 c 0
 496 40 481 17 461 7 c 0x40
 454 3 438 0 417 0 c 2
 120 0 l 2
 96 0 64 2 64 39 c 0
 64 61 78 83 98 93 c 0
 108 99 115 100 141 100 c 2
 199 100 l 1
 250 337 l 1
 215 337 l 2
 190 337 179 339 172 347 c 1
 163 354 158 365 158 378 c 0xa0
EndSplineSet
EndChar

StartChar: s
Encoding: 115 115 95
Width: 600
Flags: W
HStem: -16 100<221.969 420.998> 1 21G<114 130.5> 350 100<281.209 462.046>
VStem: 156 113<213 333.164> 445 111<107.644 157.513>
LayerCount: 2
Fore
SplineSet
156 285 m 0xb8
 156 384 265 450 394 450 c 0
 443 450 482 442 517 424 c 1
 529 443 540 450 555 450 c 0
 580 450 591 438 591 412 c 0
 591 404 590 395 588 384 c 2
 580 347 l 2
 574 321 570 311 561 301 c 1
 548 289 531 281 516 281 c 0
 490 281 480 298 472 321 c 1
 448 341 417 350 375 350 c 0
 332 350 269 335 269 312 c 0
 269 253 556 313 556 149 c 0
 556 50 435 -16 301 -16 c 0xb8
 244 -16 195 -6 159 13 c 1
 146 4 137 1 124 1 c 0x78
 104 1 83 13 83 38 c 0
 83 45 84 53 87 67 c 2
 94 100 l 1
 94 100 102 167 159 167 c 0
 185 167 199 153 201 123 c 1
 225 97 264 84 318 84 c 0
 378 84 445 103 445 132 c 0
 445 208 156 141 156 285 c 0xb8
EndSplineSet
EndChar

StartChar: t
Encoding: 116 116 96
Width: 600
Flags: W
HStem: -16 100<243.621 430.738> 24 105<445.737 524.678> 337 100<128.513 186 307 528.329> 571 20G<282 305.5>
VStem: 137 104<59 208.859>
DStem2: 110.667 -16 210.629 -16 0.207912 0.978148<157.467 360.949 483.921 603.847>
LayerCount: 2
Fore
SplineSet
488 437 m 2xb8
 510 437 544 437 544 398 c 0
 544 387 540 360 510 344 c 0
 501 339 489 337 467 337 c 2
 286 337 l 1
 244 141 l 2
 242 130 241 123 241 117 c 0
 241 97 259 84 318 84 c 0xb8
 430 84 476 129 508 129 c 0
 531 129 547 112 547 89 c 0
 547 50 509 34 484 24 c 0x78
 430 1 348 -16 296 -16 c 0
 195 -16 137 25 137 93 c 0
 137 102 138 112 140 122 c 2
 186 337 l 1
 151 337 l 2
 130 337 94 337 94 378 c 0
 94 397 108 420 128 430 c 0
 139 436 146 437 172 437 c 2
 207 437 l 1
 226 525 l 2
 231 551 235 561 245 571 c 0
 257 583 274 591 290 591 c 0
 321 591 330 566 330 555 c 0
 330 549 329 540 326 525 c 2
 307 437 l 1
 488 437 l 2xb8
EndSplineSet
EndChar

StartChar: u
Encoding: 117 117 97
Width: 600
Flags: W
HStem: -13 100<234.771 360.744> 0 21G<410 515.5> 337 100<128.513 167 424.514 482> 337 93<104.691 167 400.07 466.886>
VStem: 123 103<98.0718 184.795>
DStem2: 92.0779 -13 192.44 -13 0.207912 0.978148<174.887 357.929> 407.29 -13 506.981 -13 0.207912 0.978148<146.212 357.885>
LayerCount: 2
Fore
SplineSet
437 337 m 2xa8
 394 337 390 367 390 378 c 0
 390 397 404 420 424 430 c 0x18
 435 436 444 437 468 437 c 2
 603 437 l 1
 531 100 l 1
 565 100 583 86 583 61 c 0
 583 35 565 16 548 7 c 0
 539 2 526 0 505 0 c 2
 410 0 l 1x68
 420 48 l 1
 360 1 325 -13 270 -13 c 0
 182 -13 123 31 123 113 c 0
 123 126 125 141 128 156 c 2
 167 337 l 1
 140 337 l 2xa8
 111 337 94 353 94 376 c 0
 94 397 108 419 128 430 c 0x18
 139 436 147 437 172 437 c 2
 288 437 l 1
 229 159 l 2
 227 151 226 144 226 137 c 0
 226 103 251 87 301 87 c 0
 351 87 379 100 443 155 c 1
 482 337 l 1
 437 337 l 2xa8
EndSplineSet
EndChar

StartChar: v
Encoding: 118 118 98
Width: 600
Flags: W
HStem: 0 21G<241.362 365.184> 337 100<115.469 152 265 331.652 448.469 481 590 667.652>
DStem2: 265 337 152 337 0.271324 -0.962488<0 224.028> 328 122 351 0 0.578487 0.815691<0 263.882>
LayerCount: 2
Fore
SplineSet
291 437 m 2
 314 437 347 437 347 398 c 0
 347 387 343 360 313 344 c 0
 304 339 293 337 270 337 c 2
 265 337 l 1
 328 122 l 1
 481 337 l 1
 471 337 l 2
 446 337 435 339 428 346 c 0
 419 354 414 365 414 378 c 0
 414 397 428 420 448 430 c 0
 458 435 468 437 492 437 c 2
 627 437 l 2
 650 437 683 437 683 398 c 0
 683 387 679 360 649 344 c 0
 640 339 629 337 606 337 c 2
 590 337 l 1
 351 0 l 1
 247 0 l 1
 152 337 l 1
 138 337 l 2
 113 337 102 339 95 346 c 0
 86 354 81 365 81 378 c 0
 81 397 95 420 115 430 c 0
 125 435 135 437 159 437 c 2
 291 437 l 2
EndSplineSet
EndChar

StartChar: w
Encoding: 119 119 99
Width: 600
Flags: W
HStem: 0 21G<138.231 244.713 368.354 473.231> 338 99<96.4633 126 232 292.211 471.76 520 620 668.484>
VStem: 81 226<353.137 420.547> 126 112<185 338> 456 227<353.282 420.754>
DStem2: 447 185 464 0 0.419058 0.907959<0 169.509>
LayerCount: 2
Fore
SplineSet
456 378 m 0xd8
 456 402 475 437 534 437 c 2
 627 437 l 2
 653 437 662 435 670 428 c 0
 678 420 683 410 683 398 c 0
 683 383 673 341 620 338 c 1
 464 0 l 1
 372 0 l 1
 339 181 l 1
 233 0 l 1
 139 0 l 1
 126 338 l 1xd8
 97 340 81 353 81 376 c 0
 81 400 96 437 159 437 c 2
 251 437 l 2
 274 437 307 437 307 398 c 0xe8
 307 387 303 361 274 345 c 0
 265 340 257 338 232 338 c 1
 238 185 l 1
 332 343 l 1
 420 343 l 1
 447 185 l 1
 520 338 l 1
 513 338 l 2
 487 338 477 340 470 347 c 1
 461 354 456 366 456 378 c 0xd8
EndSplineSet
EndChar

StartChar: x
Encoding: 120 120 100
Width: 600
Flags: W
HStem: 0 100<45.6966 96> 337 100<577 625.608>
VStem: 121 226<352.909 420.924> 415 226<353.213 420.547>
DStem2: 268 228 247 100 0.811123 0.584875<-91.8976 0 123.517 201.096>
LayerCount: 2
Fore
SplineSet
415 375 m 0
 415 399 431 437 493 437 c 2
 584 437 l 2
 605 437 641 437 641 398 c 0
 641 382 632 342 577 337 c 1
 421 227 l 1
 546 100 l 1
 575 98 591 85 591 62 c 0
 591 35 571 15 556 7 c 0
 547 2 534 0 513 0 c 2
 401 0 l 2
 375 0 343 3 343 39 c 0
 343 63 360 91 395 100 c 1
 333 161 l 1
 247 100 l 1
 268 90 277 80 277 64 c 0
 277 44 267 0 198 0 c 2
 87 0 l 2
 49 0 31 13 31 37 c 0
 31 57 41 97 96 100 c 1
 268 228 l 1
 164 337 l 1
 136 340 121 353 121 375 c 0
 121 400 136 437 199 437 c 2
 291 437 l 2
 310 437 347 438 347 398 c 0
 347 387 342 360 311 342 c 1
 361 293 l 1
 433 343 l 1
 420 353 415 363 415 375 c 0
EndSplineSet
EndChar

StartChar: y
Encoding: 121 121 101
Width: 600
Flags: W
HStem: -205 100<21.4688 165 275 301.575> -205 93<-2.34595 63.8852> 337 100<118.711 142 256 310.652 450.875 490 599 646.443>
VStem: 102 224<352.46 419.497>
DStem2: 256 337 142 337 0.289451 -0.957193<0 232.558> 165 -105 275 -105 0.59239 0.805651<65.163 133.217 269.443 548.625>
LayerCount: 2
Fore
SplineSet
435 375 m 0xb0
 435 400 451 437 514 437 c 2
 606 437 l 2
 632 437 641 435 649 428 c 0
 658 420 662 410 662 399 c 0
 662 385 654 342 599 337 c 1
 275 -105 l 1
 280 -105 l 2xb0
 305 -105 336 -105 336 -145 c 0
 336 -166 321 -187 302 -198 c 0
 293 -203 280 -205 258 -205 c 2x70
 33 -205 l 2xb0
 -9 -205 -13 -174 -13 -165 c 0
 -13 -145 1 -123 21 -112 c 0x70
 31 -107 41 -105 65 -105 c 2
 165 -105 l 1
 243 3 l 1
 142 337 l 1
 116 340 102 354 102 375 c 0
 102 400 120 437 180 437 c 2
 270 437 l 2
 293 437 326 437 326 398 c 0
 326 374 310 338 256 337 c 1
 322 114 l 1
 490 337 l 1
 454 337 435 351 435 375 c 0xb0
EndSplineSet
EndChar

StartChar: z
Encoding: 122 122 102
Width: 600
Flags: W
HStem: 0 154<456.102 519> 0 100<265 448.957> 337 100<264.085 418>
VStem: 163 106<283.885 336.516>
DStem2: 103 83 265 100 0.777987 0.62828<136.715 404.649>
LayerCount: 2
Fore
SplineSet
269 337 m 1x70
 267 330 259 262 203 262 c 0
 181 262 163 277 163 299 c 0
 163 306 164 315 167 328 c 2
 190 437 l 1
 599 437 l 1
 582 356 l 1
 265 100 l 1
 440 100 l 1x70
 450 135 472 154 502 154 c 0
 533 154 542 129 542 118 c 0
 542 112 541 103 538 88 c 2
 519 0 l 1xb0
 85 0 l 1
 103 83 l 1
 418 337 l 1
 269 337 l 1x70
EndSplineSet
EndChar

StartChar: braceleft
Encoding: 123 123 103
Width: 600
Flags: W
HStem: -153 101<343.006 396.326> 522 101<457.625 539.138>
VStem: 240 103<-50.8588 65.2266> 282 103<71.7344 201.5>
DStem2: 215.155 -153 315.667 -153 0.207912 0.978148<146.144 328.631 450.101 713.251>
LayerCount: 2
Fore
SplineSet
282 169 m 0xd0
 282 204 217 172 217 227 c 0
 217 243 225 285 278 290 c 0
 304 293 312 301 318 328 c 2
 353 492 l 2
 368 563 440 623 509 623 c 0
 539 623 556 608 556 584 c 0
 556 558 534 525 495 522 c 1
 467 521 457 512 451 485 c 2
 418 328 l 2
 409 285 399 268 370 240 c 1
 380 223 385 210 385 193 c 0xd0
 385 180 383 164 378 142 c 2
 345 -15 l 2
 344 -21 343 -26 343 -31 c 0
 343 -45 351 -50 373 -52 c 0
 398 -54 412 -69 412 -91 c 0
 412 -128 381 -153 345 -153 c 0
 284 -153 240 -107 240 -48 c 0xe0
 240 -40 241 -31 243 -22 c 2
 280 151 l 2
 282 158 282 164 282 169 c 0xd0
EndSplineSet
EndChar

StartChar: bar
Encoding: 124 124 104
Width: 600
Flags: W
HStem: 602 20G<424 442>
DStem2: 217.971 -153 317.971 -153 0.207912 0.978148<37.6217 774.367>
LayerCount: 2
Fore
SplineSet
432 622 m 0
 452 622 472 609 472 585 c 0
 472 578 471 570 468 556 c 2
 332 -87 l 2
 326 -112 322 -122 313 -132 c 0
 300 -145 283 -153 267 -153 c 0
 243 -153 228 -135 228 -117 c 0
 228 -110 229 -100 232 -87 c 2
 368 556 l 2
 374 582 378 592 387 602 c 1
 400 614 416 622 432 622 c 0
EndSplineSet
EndChar

StartChar: braceright
Encoding: 125 125 105
Width: 600
Flags: W
HStem: -153 101<160.08 241.531> 522 101<303.909 356.848>
VStem: 315 103<268.5 398.266> 357 103<404.773 520.859>
DStem2: 219.667 -153 319.155 -153 0.207912 0.978148<100.893 364.075 485.545 668.032>
LayerCount: 2
Fore
SplineSet
418 301 m 0xe0
 418 266 483 298 483 243 c 0
 483 227 475 185 422 180 c 0
 396 177 388 169 382 142 c 2
 347 -22 l 2
 332 -93 259 -153 190 -153 c 0
 161 -153 144 -138 144 -114 c 0
 144 -85 169 -54 205 -52 c 0
 233 -51 243 -42 249 -15 c 2
 282 142 l 2
 291 185 301 202 330 230 c 1
 320 247 315 260 315 277 c 0xe0
 315 290 317 306 322 328 c 2
 355 485 l 2
 356 491 357 496 357 501 c 0
 357 515 349 520 327 522 c 0
 302 524 288 539 288 561 c 0
 288 596 317 623 354 623 c 0
 415 623 460 577 460 518 c 0xd0
 460 509 459 501 457 492 c 2
 420 319 l 2
 418 312 418 306 418 301 c 0xe0
EndSplineSet
EndChar

StartChar: asciitilde
Encoding: 126 126 106
Width: 600
Flags: W
HStem: 179 105<417.112 482.871> 281 104<238.106 302.841>
LayerCount: 2
Fore
SplineSet
272 281 m 0x40
 243 281 199 201 156 201 c 0
 132 201 115 219 115 242 c 0
 115 266 135 291 169 322 c 0
 218 367 254 385 295 385 c 0x40
 337 385 361 370 415 307 c 1
 430 292 440 284 449 284 c 0
 460 284 476 297 508 330 c 0
 534 357 545 364 565 364 c 0
 589 364 606 346 606 323 c 0
 606 298 589 279 548 241 c 0
 502 197 468 179 429 179 c 0x80
 348 179 301 281 272 281 c 0x40
EndSplineSet
EndChar

StartChar: exclamdown
Encoding: 161 161 108
Width: 600
Flags: W
HStem: 294 132<328.717 425.33>
VStem: 187 163<-190.719 -81.5156> 290 99<160.402 218.329> 300 153<322.514 397.89>
LayerCount: 2
Fore
SplineSet
187 -166 m 0xc0
 187 -151 191 -134 198 -114 c 2
 290 183 l 2
 299 214 321 232 349 232 c 0
 375 232 389 216 389 190 c 2
 389 183 l 1xa0
 355 -114 l 2
 353 -127 351 -141 350 -147 c 0
 340 -193 299 -227 252 -227 c 0
 212 -227 187 -202 187 -166 c 0xc0
300 346 m 0x90
 300 390 341 426 383 426 c 2
 400 426 l 2
 432 426 453 404 453 373 c 0
 453 336 418 294 371 294 c 2
 354 294 l 2
 322 294 300 316 300 346 c 0x90
EndSplineSet
EndChar

StartChar: cent
Encoding: 162 162 109
Width: 600
Flags: W
HStem: -44 241<280.984 393>
VStem: 144 103<231.285 354.866> 484 96<354.467 415.817>
DStem2: 241.971 -44 341.971 -44 0.207912 0.978148<40.8428 151.882 604.477 702.985>
LayerCount: 2
Fore
SplineSet
352 197 m 0
 434 197 464 245 501 245 c 0
 524 245 541 227 541 204 c 0
 541 162 478 117 372 99 c 1
 356 22 l 2
 350 -5 346 -13 337 -23 c 0
 324 -36 308 -44 292 -44 c 0
 264 -44 252 -22 252 -8 c 0
 252 -1 253 9 256 22 c 2
 273 103 l 1
 191 124 144 184 144 264 c 0
 144 393 253 492 361 517 c 1
 377 594 l 2
 378 597 386 661 442 661 c 0
 463 661 482 646 482 624 c 0
 482 617 480 608 477 594 c 2
 463 527 l 1
 493 522 513 515 531 503 c 1
 541 506 546 507 552 507 c 0
 580 507 593 486 593 471 c 0
 593 465 592 456 589 441 c 2
 580 399 l 2
 574 372 570 364 561 354 c 0
 548 341 532 333 516 333 c 0
 504 333 490 339 484 346 c 0
 465 372 504 427 411 427 c 0
 312 427 247 354 247 288 c 0
 247 236 288 197 352 197 c 0
EndSplineSet
EndChar

StartChar: sterling
Encoding: 163 163 110
Width: 600
Flags: W
HStem: 0 100<80.7761 169.969 268 481.027> 243 100<128.514 216 317.657 427.547> 444 21G<477.5 517> 498 100<344.987 456.866>
VStem: 213 102<344.189 469.337>
LayerCount: 2
Fore
SplineSet
387 343 m 2
 408 343 444 344 444 304 c 0
 444 293 439 267 410 250 c 0
 400 245 390 243 366 243 c 2
 321 243 l 1
 311 182 300 151 268 100 c 1
 471 100 l 1
 482 130 502 146 530 146 c 0
 556 146 571 131 571 106 c 0
 571 70 545 0 442 0 c 2
 121 0 l 2
 96 0 65 3 65 40 c 0
 65 56 72 89 126 100 c 0
 152 105 165 113 178 132 c 0
 196 157 209 188 217 224 c 0
 217 227 219 235 220 243 c 1
 151 243 l 2
 126 243 115 245 108 252 c 0
 99 260 94 271 94 284 c 0
 94 305 111 326 128 336 c 0
 139 342 147 343 172 343 c 2
 216 343 l 1
 214 359 213 373 213 386 c 0
 213 515 318 598 426 598 c 0
 498 598 563 553 563 506 c 0
 563 473 532 444 502 444 c 0
 453 444 476 498 404 498 c 0
 373 498 315 480 315 409 c 0
 315 397 316 378 319 343 c 1
 387 343 l 2
EndSplineSet
EndChar

StartChar: currency
Encoding: 164 164 111
Width: 600
Flags: W
HStem: 97 100<288.109 404.349> 388 100<317.544 437.214>
VStem: 164 102<219.14 336.62> 458 103<250.746 367.342>
DStem2: 133 162 190 91 0.771539 0.636182<-57.8769 57.9609 461.651 573.968> 301 462 213 388 0.616244 -0.787555<-76.8758 4.67771 341.718 419.541>
LayerCount: 2
Fore
SplineSet
164 252 m 0
 164 307 186 350 213 388 c 1
 199 406 172 432 172 460 c 0
 172 494 206 519 234 519 c 0
 251 519 257 515 276 493 c 2
 301 462 l 1
 342 482 368 488 404 488 c 0
 440 488 462 481 495 461 c 1
 532 491 l 2
 559 513 568 517 585 517 c 0
 609 517 626 500 626 477 c 0
 626 445 599 428 589 420 c 2
 551 388 l 1
 558 367 561 350 561 332 c 0
 561 278 538 233 510 196 c 1
 535 162 l 2
 548 146 553 136 553 126 c 0
 553 91 517 64 489 64 c 0
 472 64 465 68 448 90 c 1
 421 122 l 1
 381 103 356 97 321 97 c 0
 285 97 263 103 230 123 c 1
 190 91 l 2
 162 68 155 64 138 64 c 0
 114 64 96 82 96 105 c 0
 96 128 109 141 133 162 c 2
 173 196 l 1
 167 218 164 235 164 252 c 0
342 197 m 0
 399 197 458 253 458 314 c 0
 458 357 428 388 382 388 c 0
 319 388 266 329 266 274 c 0
 266 231 297 197 342 197 c 0
EndSplineSet
EndChar

StartChar: yen
Encoding: 165 165 112
Width: 600
Flags: W
HStem: 0 100<181.467 271 371 459.25> 135 56<158.606 279 391 511.229> 225 56<177.771 285 435 530.128> 480 100<148.185 189 616 658.612> 487 93<616.434 678.626>
VStem: 133 227<496.306 564.797> 467 226<496.114 564.844>
DStem2: 309 482 189 480 0.434496 -0.900674<0 149.367> 375 348 435 281 0.672858 0.739772<0 181.151>
LayerCount: 2
Fore
SplineSet
360 540 m 0xee
 360 514 339 487 309 482 c 1
 375 348 l 1
 498 481 l 1
 478 487 467 501 467 519 c 0
 467 545 485 565 501 573 c 0
 511 579 519 580 545 580 c 2xee
 636 580 l 2xf6
 664 580 671 578 679 571 c 0
 688 563 693 552 693 539 c 0
 693 520 679 499 659 487 c 0xee
 651 483 625 480 616 480 c 1
 435 281 l 1
 507 281 l 2
 524 281 533 274 533 261 c 0
 533 248 525 225 495 225 c 2
 398 225 l 1
 391 191 l 1
 488 191 l 2
 505 191 514 184 514 170 c 0
 514 158 506 135 476 135 c 2
 379 135 l 1
 371 100 l 1
 418 100 l 2
 445 100 453 98 461 91 c 0
 470 83 475 72 475 60 c 0
 475 36 459 0 397 0 c 2
 203 0 l 2
 175 0 147 5 147 40 c 0
 147 61 161 83 181 93 c 0
 191 99 199 100 225 100 c 2
 271 100 l 1
 279 135 l 1
 182 135 l 2
 165 135 156 142 156 155 c 0
 156 170 164 191 194 191 c 2
 291 191 l 1
 298 225 l 1
 201 225 l 2
 184 225 175 232 175 245 c 0
 175 259 183 281 213 281 c 2
 285 281 l 1
 189 480 l 1xf6
 165 480 133 482 133 519 c 0
 133 530 137 557 167 573 c 0
 177 579 184 580 210 580 c 2
 302 580 l 2
 331 580 338 578 347 570 c 0
 356 562 360 552 360 540 c 0xee
EndSplineSet
EndChar

StartChar: brokenbar
Encoding: 166 166 113
Width: 600
Flags: W
HStem: 602 20G<424 444.5>
DStem2: 217.971 -153 317.971 -153 0.207912 0.978148<37.6217 324.646 488.32 771.519>
LayerCount: 2
Fore
SplineSet
361 287 m 0
 342 287 321 299 321 324 c 0
 321 331 322 340 325 353 c 2
 368 556 l 2
 373 581 378 592 387 601 c 0
 400 614 416 622 432 622 c 0
 457 622 472 607 472 582 c 0
 472 577 470 564 468 556 c 2
 425 353 l 2
 419 326 416 318 406 308 c 0
 394 295 377 287 361 287 c 0
339 182 m 0
 359 182 379 169 379 145 c 0
 379 138 378 130 375 116 c 2
 332 -87 l 2
 326 -112 322 -122 313 -132 c 0
 300 -145 283 -153 267 -153 c 0
 243 -153 228 -135 228 -117 c 0
 228 -110 229 -100 232 -87 c 2
 275 116 l 2
 280 142 284 152 293 162 c 1
 306 174 323 182 339 182 c 0
EndSplineSet
EndChar

StartChar: section
Encoding: 167 167 114
Width: 600
Flags: W
HStem: -170 182<85.3242 151.695> -170 88<152 354.32> 401 182<536.309 602.641> 493 90<331.875 536>
VStem: 93 100<242.604 316.334> 222 88<395.899 471.565> 376 88<-60.3577 14.947> 495 100<96.5704 167.07>
DStem2: 352 147 198 130 0.836177 -0.54846<-202.108 93.3033> 397 342 330 271 0.833538 -0.552462<-102.62 193.021>
LayerCount: 2
Fore
SplineSet
560 401 m 0x2f
 547 401 525 409 525 431 c 0
 525 437 526 445 528 456 c 2
 536 493 l 1
 392 493 l 2
 341 493 310 457 310 433 c 0
 310 409 339 379 397 342 c 2
 478 291 l 2
 564 237 595 204 595 158 c 0
 595 112 567 33 464 10 c 1
 464 -1 l 2
 464 -21 459 -71 403 -123 c 0
 366 -156 329 -170 276 -170 c 2
 45 -170 l 1x5f
 72 -43 l 2
 80 -6 98 12 128 12 c 0x8f
 156 12 164 -13 164 -19 c 0
 164 -24 162 -31 160 -43 c 2
 152 -82 l 1
 297 -82 l 2
 341 -82 376 -48 376 -23 c 0
 376 2 348 32 291 69 c 2
 198 130 l 2
 124 179 93 214 93 259 c 0
 93 316 135 379 222 402 c 1
 218 449 250 502 288 535 c 0
 326 569 365 583 418 583 c 2
 643 583 l 1x5f
 616 456 l 1
 616 456 610 401 560 401 c 0x2f
443 88 m 1
 466 89 495 102 495 126 c 0
 495 149 467 181 416 214 c 2
 330 271 l 2
 300 290 291 297 261 326 c 1
 205 326 193 301 193 285 c 0
 193 261 215 236 262 205 c 2
 352 147 l 1
 398 114 412 103 426 88 c 1
 443 88 l 1
EndSplineSet
EndChar

StartChar: dieresis
Encoding: 168 168 115
Width: 600
Flags: W
HStem: 534 120<284.795 359.999 492.795 567.999>
VStem: 261 122<556.892 630> 469 122<556.892 630>
LayerCount: 2
Fore
SplineSet
261 582 m 0
 261 614 293 654 335 654 c 0
 364 654 383 634 383 606 c 0
 383 564 343 534 310 534 c 0
 281 534 261 555 261 582 c 0
469 582 m 0
 469 614 501 654 543 654 c 0
 572 654 591 634 591 606 c 0
 591 564 551 534 518 534 c 0
 489 534 469 555 469 582 c 0
EndSplineSet
EndChar

StartChar: copyright
Encoding: 169 169 116
Width: 600
Flags: W
HStem: -15 73<217.018 412.528> 118 71<278.642 414.105> 395 71<314.227 432.989> 525 73<310.298 504.585>
VStem: 48 75<154.378 339.307> 189 72<206.404 335.345> 437 72<330.798 387.308> 600 75<242.338 429.728>
DStem2: 131.634 -15 202.421 -15 0.207912 0.978148<289.27 406.919>
LayerCount: 2
Fore
SplineSet
481 200 m 0
 481 156 397 118 327 118 c 0
 243 118 189 167 189 238 c 0
 189 248 190 258 192 269 c 2
 200 305 l 1
 219 397 301 466 390 466 c 0
 418 466 440 461 465 447 c 1
 473 459 483 466 497 466 c 0
 514 466 523 456 523 439 c 0
 523 436 523 432 522 428 c 2
 509 368 l 2
 503 340 487 324 465 324 c 0
 445 324 437 334 437 356 c 2
 437 361 l 2
 437 380 410 395 377 395 c 0
 326 395 282 357 271 304 c 1
 263 270 l 2
 262 264 261 258 261 253 c 0
 261 214 291 189 343 189 c 0
 423 189 414 229 452 229 c 0
 469 229 481 216 481 200 c 0
48 229 m 0
 48 414 227 598 426 598 c 0
 574 598 675 494 675 356 c 0
 675 164 492 -15 293 -15 c 0
 149 -15 48 90 48 229 c 0
309 58 m 0
 466 58 600 199 600 340 c 0
 600 446 524 525 412 525 c 0
 267 525 123 394 123 244 c 0
 123 138 199 58 309 58 c 0
EndSplineSet
EndChar

StartChar: ordfeminine
Encoding: 170 170 117
Width: 600
Flags: W
HStem: 182 77<175.136 522.71> 273 79<288.677 415.977> 284 78<509 550.1> 410 72<396.932 441> 417 70<304.997 440.138> 501 74<270.957 403.392> 517 78<294.28 458.56>
VStem: 194 94<330.809 397.871> 459 80<482.185 540.268>
LayerCount: 2
Fore
SplineSet
559 333 m 0xa380
 559 314 547 284 499 284 c 2
 414 284 l 1xa380
 417 295 l 1
 373 279 343 273 304 273 c 0
 240 273 194 308 194 354 c 0
 194 394 246 487 396 487 c 0xc980
 416 487 428 486 456 482 c 1
 458 490 459 491 459 496 c 0
 459 511 443 517 406 517 c 0x9380
 350 517 317 501 295 501 c 0
 277 501 265 514 265 532 c 0
 265 545 272 565 297 575 c 1x8580
 334 587 383 595 418 595 c 0
 496 595 539 566 539 514 c 0
 539 506 538 498 536 490 c 2
 509 362 l 1
 515 362 l 2
 545 362 559 353 559 333 c 0xa380
435 383 m 1
 441 410 l 1xd180
 410 416 396 417 377 417 c 0
 326 417 288 390 288 372 c 0
 288 360 303 352 327 352 c 0xc980
 359 352 406 365 435 383 c 1
531 232 m 0
 531 218 525 182 471 182 c 2
 215 182 l 2
 181 182 169 186 169 206 c 0
 169 258 201 259 231 259 c 2
 486 259 l 2
 517 259 531 250 531 232 c 0
EndSplineSet
EndChar

StartChar: guillemotleft
Encoding: 171 171 118
Width: 600
Flags: W
LayerCount: 2
Fore
SplineSet
221 218 m 1
 342 77 l 2
 351 67 355 59 353 50 c 0
 349 34 331 20 313 20 c 0
 304 20 300 22 288 33 c 2
 79 218 l 1
 366 402 l 2
 383 413 388 415 398 415 c 0
 413 415 424 404 424 390 c 0
 424 384 423 373 402 358 c 2
 221 218 l 1
450 218 m 1
 571 77 l 2
 580 67 584 59 582 50 c 0
 578 34 560 20 542 20 c 0
 533 20 529 22 517 33 c 2
 308 218 l 1
 595 402 l 2
 612 413 617 415 627 415 c 0
 642 415 653 404 653 390 c 0
 653 384 652 373 631 358 c 2
 450 218 l 1
EndSplineSet
EndChar

StartChar: logicalnot
Encoding: 172 172 119
Width: 600
Flags: W
HStem: 345 100<159.467 438>
DStem2: 388.971 115 488.971 115 0.207912 0.978148<38.5992 235.168>
LayerCount: 2
Fore
SplineSet
181 345 m 2
 162 345 125 345 125 385 c 0
 125 405 139 427 159 438 c 0
 169 444 177 445 203 445 c 2
 560 445 l 1
 503 181 l 2
 498 154 494 146 485 136 c 0
 472 123 455 115 439 115 c 0
 417 115 399 130 399 152 c 0
 399 159 401 168 403 181 c 2
 438 345 l 1
 181 345 l 2
EndSplineSet
EndChar

StartChar: registered
Encoding: 174 174 121
Width: 600
Flags: W
HStem: -15 73<217.018 410.788> 126 71<193.437 239 311 339.832> 387 71<249.227 279 351 420.734> 525 73<309.895 504.667>
VStem: 48 75<154.378 340.838> 187 159<132.812 189.839> 390 92<133.013 195.277> 424 72<328.104 382.631> 600 75<244.117 429.506>
DStem2: 193.938 -15 265.938 -15 0.207912 0.978148<231.706 281.714 353.303 410.901>
LayerCount: 2
Fore
SplineSet
482 171 m 0xfe80
 482 154 472 126 430 126 c 2
 390 126 l 1xfe80
 388 175 362 233 336 246 c 1
 321 246 l 1
 311 197 l 1
 333 197 346 187 346 171 c 0
 346 153 336 126 294 126 c 2
 226 126 l 2
 200 126 187 136 187 154 c 0
 187 171 200 197 239 197 c 1
 279 387 l 1
 255 388 243 397 243 414 c 0
 243 432 254 458 296 458 c 2
 389 458 l 2
 455 458 496 425 496 375 c 0xfd80
 496 331 466 288 415 266 c 1
 434 244 439 235 453 197 c 1
 471 195 482 186 482 171 c 0xfe80
361 316 m 2
 402 316 424 342 424 360 c 0xfd80
 424 376 406 387 376 387 c 2
 351 387 l 1
 336 316 l 1
 361 316 l 2
48 229 m 0
 48 414 230 598 427 598 c 0
 573 598 675 494 675 356 c 0
 675 170 498 -15 293 -15 c 0
 149 -15 48 90 48 229 c 0
309 58 m 0
 468 58 600 202 600 340 c 0
 600 445 524 525 412 525 c 0
 261 525 123 386 123 244 c 0
 123 138 199 58 309 58 c 0
EndSplineSet
EndChar

StartChar: macron
Encoding: 175 175 122
Width: 600
Flags: W
HStem: 546 80<257.701 590.93>
LayerCount: 2
Fore
SplineSet
249 579 m 0
 249 598 264 626 311 626 c 2
 555 626 l 2
 586 626 600 621 600 591 c 0
 600 570 578 546 538 546 c 2
 294 546 l 2
 273 546 249 546 249 579 c 0
EndSplineSet
EndChar

StartChar: degree
Encoding: 176 176 123
Width: 600
Flags: W
HStem: 243 61<305.804 433.878> 535 61<343.814 475.252>
VStem: 210 63<336.917 463.388> 506 62<375.114 503.881>
LayerCount: 2
Fore
SplineSet
210 384 m 0
 210 489 312 596 427 596 c 0
 511 596 568 537 568 458 c 0
 568 350 467 243 350 243 c 0
 268 243 210 304 210 384 c 0
364 304 m 0
 435 304 506 370 506 445 c 0
 506 496 469 535 414 535 c 0
 341 535 273 466 273 397 c 0
 273 345 311 304 364 304 c 0
EndSplineSet
EndChar

StartChar: plusminus
Encoding: 177 177 124
Width: 600
Flags: W
HStem: 0 100<86.4674 534.576> 330 100<156.467 320 441 605.575> 604 20G<425 448.5>
DStem2: 250.112 0 350.112 0 0.207912 0.978148<206.263 337.319 460.291 621.214>
LayerCount: 2
Fore
SplineSet
433 624 m 0
 464 624 473 599 473 588 c 0
 473 582 472 573 469 558 c 2
 441 430 l 1
 582 430 l 2
 610 430 618 428 626 421 c 0
 635 413 640 402 640 389 c 0
 640 370 626 347 606 337 c 0
 597 332 584 330 561 330 c 2
 420 330 l 1
 399 230 l 2
 398 227 390 164 335 164 c 0
 316 164 295 177 295 201 c 0
 295 208 296 217 299 230 c 2
 320 330 l 1
 178 330 l 2
 159 330 122 330 122 370 c 0
 122 395 142 415 156 423 c 0
 166 429 174 430 199 430 c 2
 341 430 l 1
 369 558 l 2
 374 584 378 594 388 603 c 1
 400 616 417 624 433 624 c 0
129 100 m 2
 513 100 l 2
 540 100 548 98 556 91 c 0
 565 83 570 72 570 59 c 0
 570 40 555 17 535 7 c 0
 526 2 514 0 492 0 c 2
 108 0 l 2
 84 0 72 2 65 10 c 1
 57 17 52 28 52 40 c 0
 52 61 66 82 86 93 c 0
 96 99 104 100 129 100 c 2
EndSplineSet
EndChar

StartChar: twosuperior
Encoding: 178 178 125
Width: 600
Flags: W
HStem: 247 99<433.663 482> 247 67<320 442.04> 570 67<357.077 463.528>
VStem: 470 68<488.68 562.026>
LayerCount: 2
Fore
SplineSet
538 542 m 0x70
 538 470 486 433 320 314 c 1
 429 314 l 1x70
 436 335 450 346 469 346 c 0
 487 346 495 338 495 321 c 0
 495 316 495 310 493 303 c 2
 482 247 l 1xb0
 202 247 l 1
 216 315 l 1
 420 458 470 493 470 528 c 0
 470 552 448 570 414 570 c 0
 361 570 343 533 336 520 c 0
 329 508 314 500 301 500 c 0
 284 500 273 511 273 526 c 0
 273 556 334 637 429 637 c 0
 494 637 538 598 538 542 c 0x70
EndSplineSet
EndChar

StartChar: threesuperior
Encoding: 179 179 126
Width: 600
Flags: W
HStem: 238 67<246.769 431.872> 411 73<352.678 443.476> 570 67<353.728 471.355>
VStem: 452 67<325.777 403.017> 475 69<497.894 563.499>
LayerCount: 2
Fore
SplineSet
347 443 m 0xf0
 347 466 368 484 389 484 c 2
 414 484 l 2
 440 484 475 506 475 536 c 0
 475 557 454 570 420 570 c 0
 351 570 356 533 321 533 c 0
 305 533 295 545 295 560 c 0
 295 598 363 637 437 637 c 0
 501 637 544 602 544 551 c 0xe8
 544 480 473 448 473 448 c 1
 503 431 519 405 519 375 c 0
 519 337 491 291 453 266 c 0
 423 247 386 238 336 238 c 0
 263 238 218 256 218 286 c 0
 218 305 237 326 259 326 c 0
 287 326 266 305 348 305 c 0
 432 305 452 341 452 365 c 0
 452 383 439 400 418 411 c 1
 391 423 347 409 347 443 c 0xf0
EndSplineSet
EndChar

StartChar: acute
Encoding: 180 180 127
Width: 600
Flags: W
HStem: 496 200
VStem: 362 254
DStem2: 551 680 428 512 0.814084 0.580748<-235.915 37.3668>
LayerCount: 2
Fore
SplineSet
616 668 m 0
 616 650 606 639 585 624 c 2
 428 512 l 2
 410 500 402 496 392 496 c 0
 374 496 362 509 362 525 c 0
 362 534 365 549 394 569 c 2
 551 680 l 2
 569 693 575 696 586 696 c 0
 604 696 616 684 616 668 c 0
EndSplineSet
EndChar

StartChar: paragraph
Encoding: 182 182 128
Width: 600
Flags: W
HStem: -174 78<135.42 250 448 521.494> 185 81<273.401 309> 505 78<455 499 575 664.799>
VStem: 123 114<299.27 385.769>
DStem2: 233.421 -174 311.421 -174 0.207912 0.978148<79.7426 366.869 449.841 688.915> 355.421 -174 431.421 -174 0.207912 0.978148<95.5438 694.014>
LayerCount: 2
Fore
SplineSet
673 553 m 0
 673 534 662 505 609 505 c 2
 575 505 l 1
 448 -96 l 1
 484 -96 l 2
 516 -96 530 -105 530 -124 c 0
 530 -144 520 -174 467 -174 c 2
 374 -174 l 2
 353 -174 345 -165 341 -140 c 1
 324 -168 315 -174 291 -174 c 2
 154 -174 l 2
 123 -174 108 -164 108 -144 c 0
 108 -124 124 -108 135 -102 c 0
 144 -97 150 -96 171 -96 c 2
 250 -96 l 1
 309 185 l 1
 196 197 123 257 123 334 c 0
 123 343 124 352 126 361 c 2
 136 407 l 1
 156 504 287 583 429 583 c 2
 626 583 l 2
 658 583 673 573 673 553 c 0
327 266 m 1
 376 500 l 1
 306 486 258 450 248 405 c 2
 239 361 l 2
 238 356 237 351 237 346 c 0
 237 308 270 278 327 266 c 1
499 505 m 1
 455 505 l 1
 328 -96 l 1
 339 -102 343 -108 345 -124 c 1
 352 -109 359 -102 372 -96 c 1
 499 505 l 1
EndSplineSet
EndChar

StartChar: periodcentered
Encoding: 183 183 129
Width: 600
Flags: W
HStem: 214 132<311.964 408.33>
VStem: 283 153<242.514 317.873>
LayerCount: 2
Fore
SplineSet
436 293 m 0
 436 256 401 214 354 214 c 2
 336 214 l 2
 305 214 283 236 283 266 c 0
 283 309 325 346 365 346 c 2
 383 346 l 2
 415 346 436 324 436 293 c 0
EndSplineSet
EndChar

StartChar: cedilla
Encoding: 184 184 130
Width: 600
Flags: W
HStem: -229 70<207.403 307.61> -100 100<262 309.252>
VStem: 310 72<-155.404 -103.396>
LayerCount: 2
Fore
SplineSet
382 -105 m 0
 382 -171 328 -229 251 -229 c 0
 215 -229 144 -211 144 -173 c 0
 144 -149 168 -131 187 -131 c 0
 208 -131 227 -159 267 -159 c 0
 301 -159 310 -140 310 -128 c 0
 310 -111 294 -100 263 -100 c 0
 258 -100 254 -100 240 -102 c 1
 262 0 l 1
 332 0 l 1
 323 -41 l 1
 363 -50 382 -71 382 -105 c 0
EndSplineSet
EndChar

StartChar: onesuperior
Encoding: 185 185 131
Width: 600
Flags: W
HStem: 247 67<229.8 334 401 489.674> 618 20G<387.647 465.741>
VStem: 225 270<253.317 307.908>
DStem2: 319.759 247 386.759 247 0.207912 0.978148<82.4269 310.713>
LayerCount: 2
Fore
SplineSet
225 273 m 0
 225 287 232 314 277 314 c 2
 334 314 l 1
 384 551 l 1
 334 539 l 2
 322 536 319 535 313 535 c 0
 298 535 288 547 288 562 c 0
 288 596 323 602 330 604 c 2
 470 638 l 1
 401 314 l 1
 458 314 l 2
 483 314 495 306 495 289 c 0
 495 272 485 247 444 247 c 2
 263 247 l 2
 239 247 225 256 225 273 c 0
EndSplineSet
EndChar

StartChar: ordmasculine
Encoding: 186 186 132
Width: 600
Flags: W
HStem: 182 77<194.419 519.71> 273 78<320.75 440.087> 517 78<348.75 464.579>
VStem: 219 81<370.464 468.743> 485 81<394.169 496.824>
LayerCount: 2
Fore
SplineSet
219 400 m 0
 219 499 323 595 427 595 c 0
 510 595 566 539 566 463 c 0
 566 351 454 273 359 273 c 0
 276 273 219 327 219 400 c 0
376 351 m 0
 423 351 485 390 485 447 c 0
 485 486 454 517 411 517 c 0
 350 517 300 460 300 417 c 0
 300 381 333 351 376 351 c 0
528 232 m 0
 528 218 523 182 467 182 c 2
 213 182 l 2
 183 182 168 192 168 211 c 0
 168 228 179 245 194 253 c 0
 203 258 208 259 229 259 c 2
 483 259 l 2
 514 259 528 250 528 232 c 0
EndSplineSet
EndChar

StartChar: guillemotright
Encoding: 187 187 133
Width: 600
Flags: W
LayerCount: 2
Fore
SplineSet
476 217 m 1
 355 358 l 2
 348 366 345 374 345 381 c 0
 345 401 368 415 384 415 c 0
 393 415 398 413 409 402 c 2
 617 217 l 1
 331 33 l 2
 315 22 309 20 299 20 c 0
 284 20 273 31 273 44 c 0
 273 56 281 67 295 77 c 2
 476 217 l 1
246 217 m 1
 125 358 l 2
 118 366 115 374 115 381 c 0
 115 401 138 415 154 415 c 0
 163 415 168 413 179 402 c 2
 387 217 l 1
 101 33 l 2
 85 22 79 20 69 20 c 0
 54 20 43 31 43 44 c 0
 43 56 51 67 65 77 c 2
 246 217 l 1
EndSplineSet
EndChar

StartChar: onequarter
Encoding: 188 188 134
Width: 600
Flags: W
HStem: 0 67<473.601 539 606 631.357> 83 67<478 543 624 649.631> 247 67<29.8004 134 201 289.674> 567 20G<567.5 582.5> 618 20G<187.647 265.741>
DStem2: 67.2572 0 134.257 0 0.207912 0.978148<334.945 563.232> 130 604 184 551 0.971754 0.235997<-32.5322 39.9668> 178 110 229 77 0.619588 0.784927<-34.5494 615.665> 391 138 478 150 0.633238 0.773957<64.3792 231.343> 524.759 0 591.759 0 0.207912 0.978148<82.4269 84.9788 167.356 285.22>
LayerCount: 2
Fore
SplineSet
25 273 m 0
 25 287 32 314 77 314 c 2
 134 314 l 1
 184 551 l 1
 134 539 l 2
 122 536 119 535 113 535 c 0
 98 535 88 547 88 562 c 0
 88 596 123 602 130 604 c 2
 270 638 l 1
 201 314 l 1
 258 314 l 2
 283 314 295 306 295 289 c 0
 295 272 285 247 244 247 c 2
 63 247 l 2
 39 247 25 256 25 273 c 0
585 528 m 2
 229 77 l 2
 214 58 204 51 190 51 c 0
 174 51 162 63 162 78 c 0
 162 91 172 102 178 110 c 2
 534 561 l 2
 550 581 560 587 575 587 c 0
 590 587 602 574 602 560 c 0
 602 553 601 547 585 528 c 2
469 26 m 0
 469 43 478 67 520 67 c 2
 539 67 l 1
 543 83 l 1
 380 83 l 1
 391 138 l 1
 589 380 l 1
 673 380 l 1
 624 150 l 1
 644 149 655 140 655 125 c 0
 655 112 647 85 610 83 c 1
 606 67 l 1
 626 66 637 57 637 42 c 0
 637 25 626 0 585 0 c 2
 506 0 l 2
 482 0 469 9 469 26 c 0
557 150 m 1
 584 279 l 1
 478 150 l 1
 557 150 l 1
EndSplineSet
LCarets2: 2 0 0 
EndChar

StartChar: onehalf
Encoding: 189 189 135
Width: 600
Flags: W
HStem: 0 99<581.034 629> 0 67<467 589.455> 247 67<29.8004 134 201 289.674> 323 67<505.307 610.997> 567 20G<567.5 582.5> 618 20G<187.647 265.741>
VStem: 617 68<241.381 314.201>
DStem2: 67.2572 0 134.257 0 0.207912 0.978148<334.945 563.232> 130 604 184 551 0.971754 0.235997<-32.5322 39.9668> 178 110 229 77 0.619588 0.784927<-34.5494 615.665>
LayerCount: 2
Fore
SplineSet
25 273 m 0x3e
 25 287 32 314 77 314 c 2
 134 314 l 1
 184 551 l 1
 134 539 l 2
 122 536 119 535 113 535 c 0
 98 535 88 547 88 562 c 0
 88 596 123 602 130 604 c 2
 270 638 l 1
 201 314 l 1
 258 314 l 2
 283 314 295 306 295 289 c 0
 295 272 285 247 244 247 c 2
 63 247 l 2
 39 247 25 256 25 273 c 0x3e
585 528 m 2
 229 77 l 2
 214 58 204 51 190 51 c 0
 174 51 162 63 162 78 c 0
 162 91 172 102 178 110 c 2
 534 561 l 2
 550 581 560 587 575 587 c 0
 590 587 602 574 602 560 c 0
 602 553 601 547 585 528 c 2
685 296 m 0
 685 221 632 184 467 67 c 1
 576 67 l 1x7e
 584 88 597 99 616 99 c 0
 634 99 643 90 643 72 c 0
 643 68 642 62 641 56 c 2
 629 0 l 1xbe
 349 0 l 1x7e
 363 68 l 1
 576 218 617 247 617 282 c 0
 617 305 595 323 562 323 c 0
 504 323 486 278 483 273 c 0
 476 261 462 253 449 253 c 0
 432 253 421 264 421 279 c 0
 421 313 484 390 577 390 c 0
 642 390 685 351 685 296 c 0
EndSplineSet
LCarets2: 2 0 0 
EndChar

StartChar: threequarters
Encoding: 190 190 136
Width: 600
Flags: W
HStem: 0 67<474.115 540 607 632.357> 83 67<478 544 625 650.631> 238 67<46.7694 231.872> 411 73<152.678 243.476> 567 20G<567.5 582.5> 570 67<153.728 271.355>
VStem: 252 67<325.777 403.017> 275 69<497.894 563.499>
DStem2: 178 110 229 77 0.620658 0.784081<-34.543 615.662> 391 138 478 150 0.635148 0.772391<64.5265 232.126> 525.759 0 592.759 0 0.207912 0.978148<82.4269 84.9788 167.356 285.22>
LayerCount: 2
Fore
SplineSet
147 443 m 0xf6
 147 466 168 484 189 484 c 2
 214 484 l 2
 240 484 275 506 275 536 c 0
 275 557 254 570 220 570 c 0
 151 570 156 533 121 533 c 0
 105 533 95 545 95 560 c 0
 95 598 163 637 237 637 c 0
 301 637 344 602 344 551 c 0xf5
 344 480 273 448 273 448 c 1
 303 431 319 405 319 375 c 0
 319 337 291 291 253 266 c 0
 223 247 186 238 136 238 c 0
 63 238 18 256 18 286 c 0
 18 305 37 326 59 326 c 0
 87 326 66 305 148 305 c 0
 232 305 252 341 252 365 c 0
 252 383 239 400 218 411 c 1
 191 423 147 409 147 443 c 0xf6
586 528 m 2
 229 77 l 2
 214 58 204 51 190 51 c 0
 174 51 162 63 162 78 c 0
 162 91 169 99 178 110 c 2
 535 561 l 2
 550 581 560 587 575 587 c 0xf8
 590 587 602 574 602 560 c 0
 602 551 597 541 586 528 c 2
469 27 m 0
 469 41 478 67 521 67 c 2
 540 67 l 1
 544 83 l 1
 380 83 l 1
 391 138 l 1
 590 380 l 1
 674 380 l 1
 625 150 l 1
 645 149 656 140 656 125 c 0
 656 112 648 85 611 83 c 1
 607 67 l 1
 627 66 638 57 638 42 c 0
 638 25 627 0 586 0 c 2
 507 0 l 2
 482 0 469 9 469 27 c 0
558 150 m 1
 585 279 l 1
 478 150 l 1
 558 150 l 1
EndSplineSet
LCarets2: 2 0 0 
EndChar

StartChar: questiondown
Encoding: 191 191 137
Width: 600
Flags: W
HStem: -227 100<192.421 366.076> 254 132<316.641 413.754>
VStem: 70 102<-105.204 -7.68148> 277 102<135.705 180.635> 289 154<282.897 357.336> 377 104<-110.541 -41.5858>
LayerCount: 2
Fore
SplineSet
441 -23 m 0xe4
 460 -23 481 -36 481 -60 c 0xe4
 481 -67 480 -76 477 -89 c 2
 460 -168 l 1
 353 -215 308 -227 244 -227 c 0
 136 -227 70 -169 70 -81 c 0
 70 54 183 105 277 143 c 1
 289 179 310 197 339 197 c 0
 361 197 379 182 379 160 c 0xf0
 379 153 378 144 375 131 c 2
 363 75 l 1
 216 23 172 -5 172 -60 c 0
 172 -101 208 -127 264 -127 c 0
 302 -127 338 -119 374 -103 c 1
 377 -89 l 2
 383 -62 387 -54 396 -44 c 0
 408 -31 426 -23 441 -23 c 0xe4
289 306 m 0xe8
 289 344 324 386 371 386 c 2
 388 386 l 2
 420 386 443 363 443 334 c 0
 443 289 398 254 360 254 c 2
 343 254 l 2
 311 254 289 276 289 306 c 0xe8
EndSplineSet
EndChar

StartChar: Agrave
Encoding: 192 192 138
Width: 600
Flags: W
HStem: 0 100<4.5401 67 176 220.575 376.243 460 574 597.575> 158 100<273 430> 483 100<217.513 304>
DStem2: 67 100 176 100 0.526202 0.85036<57.356 125.62 242.754 450.398> 478 583 393 450 0.194944 -0.980814<113.878 309.407 411.388 470.224> 385 824 436 656 0.697444 -0.71664<-30.5239 187.36>
LayerCount: 2
Fore
SplineSet
241 483 m 2
 219 483 183 483 183 524 c 0
 183 543 197 564 217 576 c 0
 228 582 235 583 262 583 c 2
 478 583 l 1
 574 100 l 1
 602 100 611 98 619 90 c 1
 628 83 633 72 633 59 c 0
 633 40 618 17 598 7 c 0
 589 2 576 0 555 0 c 2
 416 0 l 2
 399 0 360 0 360 39 c 0
 360 50 365 77 394 93 c 0
 404 99 411 100 437 100 c 2
 460 100 l 1
 450 158 l 1
 212 158 l 1
 176 100 l 1
 199 100 l 2
 226 100 234 98 242 91 c 0
 251 83 256 72 256 59 c 0
 256 40 241 17 221 7 c 0
 212 2 199 0 178 0 c 2
 45 0 l 2
 7 0 -11 13 -11 37 c 0
 -11 48 -7 77 23 93 c 0
 33 99 42 100 67 100 c 1
 304 483 l 1
 241 483 l 2
430 258 m 1
 393 450 l 1
 273 258 l 1
 430 258 l 1
311 795 m 0
 311 816 330 839 356 839 c 0
 366 839 373 835 385 824 c 2
 494 712 l 2
 506 701 510 692 510 682 c 0
 510 657 483 640 465 640 c 0
 456 640 447 645 436 656 c 2
 327 767 l 2
 316 778 311 786 311 795 c 0
EndSplineSet
EndChar

StartChar: Aacute
Encoding: 193 193 139
Width: 600
Flags: W
HStem: 0 100<4.5401 67 176 220.575 376.243 460 574 597.575> 158 100<273 430> 483 100<217.513 304>
DStem2: 67 100 176 100 0.526202 0.85036<57.356 125.62 242.754 450.398> 478 583 393 450 0.194944 -0.980814<113.878 309.407 411.388 470.224> 539 824 416 656 0.814084 0.580748<-235.136 36.8214>
LayerCount: 2
Fore
SplineSet
241 483 m 2
 219 483 183 483 183 524 c 0
 183 543 197 564 217 576 c 0
 228 582 235 583 262 583 c 2
 478 583 l 1
 574 100 l 1
 602 100 611 98 619 90 c 1
 628 83 633 72 633 59 c 0
 633 40 618 17 598 7 c 0
 589 2 576 0 555 0 c 2
 416 0 l 2
 399 0 360 0 360 39 c 0
 360 50 365 77 394 93 c 0
 404 99 411 100 437 100 c 2
 460 100 l 1
 450 158 l 1
 212 158 l 1
 176 100 l 1
 199 100 l 2
 226 100 234 98 242 91 c 0
 251 83 256 72 256 59 c 0
 256 40 241 17 221 7 c 0
 212 2 199 0 178 0 c 2
 45 0 l 2
 7 0 -11 13 -11 37 c 0
 -11 48 -7 77 23 93 c 0
 33 99 42 100 67 100 c 1
 304 483 l 1
 241 483 l 2
430 258 m 1
 393 450 l 1
 273 258 l 1
 430 258 l 1
605 810 m 0
 605 793 593 780 573 767 c 2
 416 656 l 2
 401 645 390 640 381 640 c 0
 363 640 351 653 351 669 c 0
 351 684 361 698 382 712 c 2
 539 824 l 2
 555 835 564 839 574 839 c 0
 592 839 605 827 605 810 c 0
EndSplineSet
EndChar

StartChar: Acircumflex
Encoding: 194 194 140
Width: 600
Flags: W
HStem: 0 100<4.5401 67 176 220.575 376.243 460 574 597.575> 158 100<273 430> 483 100<217.513 304>
DStem2: 67 100 176 100 0.526202 0.85036<57.356 125.62 242.754 450.398> 478 583 393 450 0.194944 -0.980814<113.878 309.407 411.388 470.224> 462 839 443 750 0.695795 -0.71824<50.7033 210.431> 462 839 310 653 0.813426 0.581668<-264.265 -67.2235>
LayerCount: 2
Fore
SplineSet
241 483 m 2
 219 483 183 483 183 524 c 0
 183 543 197 564 217 576 c 0
 228 582 235 583 262 583 c 2
 478 583 l 1
 574 100 l 1
 602 100 611 98 619 90 c 1
 628 83 633 72 633 59 c 0
 633 40 618 17 598 7 c 0
 589 2 576 0 555 0 c 2
 416 0 l 2
 399 0 360 0 360 39 c 0
 360 50 365 77 394 93 c 0
 404 99 411 100 437 100 c 2
 460 100 l 1
 450 158 l 1
 212 158 l 1
 176 100 l 1
 199 100 l 2
 226 100 234 98 242 91 c 0
 251 83 256 72 256 59 c 0
 256 40 241 17 221 7 c 0
 212 2 199 0 178 0 c 2
 45 0 l 2
 7 0 -11 13 -11 37 c 0
 -11 48 -7 77 23 93 c 0
 33 99 42 100 67 100 c 1
 304 483 l 1
 241 483 l 2
430 258 m 1
 393 450 l 1
 273 258 l 1
 430 258 l 1
603 682 m 0
 603 658 579 640 561 640 c 0
 551 640 544 644 535 653 c 2
 443 750 l 1
 310 653 l 2
 296 643 288 640 279 640 c 0
 262 640 251 654 251 669 c 0
 251 687 260 694 283 711 c 2
 462 839 l 1
 586 711 l 2
 593 703 603 695 603 682 c 0
EndSplineSet
EndChar

StartChar: Atilde
Encoding: 195 195 141
Width: 600
Flags: W
HStem: 0 100<4.5401 67 176 220.575 376.243 460 574 597.575> 158 100<273 430> 483 100<217.513 304> 667 69<466.878 549.684> 730 69<324.917 411.886>
DStem2: 67 100 176 100 0.526202 0.85036<57.356 125.62 242.754 450.398> 478 583 393 450 0.194944 -0.980814<113.878 309.407 411.388 470.224>
LayerCount: 2
Fore
SplineSet
241 483 m 2xe0
 219 483 183 483 183 524 c 0
 183 543 197 564 217 576 c 0
 228 582 235 583 262 583 c 2
 478 583 l 1
 574 100 l 1
 602 100 611 98 619 90 c 1
 628 83 633 72 633 59 c 0
 633 40 618 17 598 7 c 0
 589 2 576 0 555 0 c 2
 416 0 l 2
 399 0 360 0 360 39 c 0
 360 50 365 77 394 93 c 0
 404 99 411 100 437 100 c 2
 460 100 l 1
 450 158 l 1
 212 158 l 1
 176 100 l 1
 199 100 l 2
 226 100 234 98 242 91 c 0
 251 83 256 72 256 59 c 0
 256 40 241 17 221 7 c 0
 212 2 199 0 178 0 c 2
 45 0 l 2
 7 0 -11 13 -11 37 c 0
 -11 48 -7 77 23 93 c 0
 33 99 42 100 67 100 c 1
 304 483 l 1
 241 483 l 2xe0
430 258 m 1
 393 450 l 1
 273 258 l 1
 430 258 l 1
512 736 m 0xf0
 548 736 571 799 606 799 c 0xe8
 621 799 632 788 632 775 c 0
 632 751 593 717 591 715 c 0
 557 681 530 667 501 667 c 0xf0
 448 667 401 730 365 730 c 0
 325 730 305 670 271 670 c 0
 256 670 246 680 246 693 c 0
 246 724 317 799 378 799 c 0xe8
 431 799 478 736 512 736 c 0xf0
EndSplineSet
EndChar

StartChar: Adieresis
Encoding: 196 196 142
Width: 600
Flags: W
HStem: 0 100<4.5401 67 176 220.575 376.243 460 574 597.575> 158 100<273 430> 483 100<217.513 304> 678 120<299.017 373.875 507.017 581.875>
VStem: 275 122<701.142 774.555> 483 122<701.142 774.555>
DStem2: 67 100 176 100 0.526202 0.85036<57.356 125.62 242.754 450.398> 478 583 393 450 0.194944 -0.980814<113.878 309.407 411.388 470.224>
LayerCount: 2
Fore
SplineSet
241 483 m 2
 219 483 183 483 183 524 c 0
 183 543 197 564 217 576 c 0
 228 582 235 583 262 583 c 2
 478 583 l 1
 574 100 l 1
 602 100 611 98 619 90 c 1
 628 83 633 72 633 59 c 0
 633 40 618 17 598 7 c 0
 589 2 576 0 555 0 c 2
 416 0 l 2
 399 0 360 0 360 39 c 0
 360 50 365 77 394 93 c 0
 404 99 411 100 437 100 c 2
 460 100 l 1
 450 158 l 1
 212 158 l 1
 176 100 l 1
 199 100 l 2
 226 100 234 98 242 91 c 0
 251 83 256 72 256 59 c 0
 256 40 241 17 221 7 c 0
 212 2 199 0 178 0 c 2
 45 0 l 2
 7 0 -11 13 -11 37 c 0
 -11 48 -7 77 23 93 c 0
 33 99 42 100 67 100 c 1
 304 483 l 1
 241 483 l 2
430 258 m 1
 393 450 l 1
 273 258 l 1
 430 258 l 1
275 725 m 0
 275 767 316 798 349 798 c 0
 378 798 397 778 397 750 c 0
 397 712 360 678 323 678 c 0
 294 678 275 698 275 725 c 0
483 725 m 0
 483 767 524 798 557 798 c 0
 586 798 605 778 605 750 c 0
 605 712 568 678 531 678 c 0
 502 678 483 698 483 725 c 0
EndSplineSet
EndChar

StartChar: Aring
Encoding: 197 197 143
Width: 600
Flags: W
HStem: 0 100<4.5401 67 176 220.575 376.243 460 574 597.575> 158 100<273 430> 483 100<217.513 304> 630 54<382.992 482.645> 818 53<401.501 502.008>
VStem: 317 55<695.006 788.7> 513 55<713.481 806.494>
DStem2: 67 100 176 100 0.526202 0.85036<57.356 125.62 242.754 450.398> 478 583 393 450 0.194944 -0.980814<113.878 309.407 411.388 470.224>
LayerCount: 2
Fore
SplineSet
241 483 m 2
 219 483 183 483 183 524 c 0
 183 543 197 564 217 576 c 0
 228 582 235 583 262 583 c 2
 478 583 l 1
 574 100 l 1
 602 100 611 98 619 90 c 1
 628 83 633 72 633 59 c 0
 633 40 618 17 598 7 c 0
 589 2 576 0 555 0 c 2
 416 0 l 2
 399 0 360 0 360 39 c 0
 360 50 365 77 394 93 c 0
 404 99 411 100 437 100 c 2
 460 100 l 1
 450 158 l 1
 212 158 l 1
 176 100 l 1
 199 100 l 2
 226 100 234 98 242 91 c 0
 251 83 256 72 256 59 c 0
 256 40 241 17 221 7 c 0
 212 2 199 0 178 0 c 2
 45 0 l 2
 7 0 -11 13 -11 37 c 0
 -11 48 -7 77 23 93 c 0
 33 99 42 100 67 100 c 1
 304 483 l 1
 241 483 l 2
430 258 m 1
 393 450 l 1
 273 258 l 1
 430 258 l 1
317 727 m 0
 317 799 389 871 468 871 c 0
 527 871 568 829 568 774 c 0
 568 699 493 630 417 630 c 0
 358 630 317 672 317 727 c 0
428 684 m 0
 465 684 513 717 513 764 c 0
 513 794 490 818 457 818 c 0
 419 818 372 784 372 738 c 0
 372 708 395 684 428 684 c 0
EndSplineSet
EndChar

StartChar: AE
Encoding: 198 198 144
Width: 600
Flags: W
HStem: 0 100<5.5401 74 234.444 288 388 535> 158 101<258 301> 483 100<234.513 271 470 596>
VStem: -10 221<16.9986 84.5069>
DStem2: 74 100 178 100 0.4574 0.889261<47.5696 112.869 225.554 430.695> 266.744 0 366.744 0 0.207912 0.978148<123.025 161.669 264.829 269.346 370.548 481.552>
LayerCount: 2
Fore
SplineSet
211 66 m 0
 211 45 197 0 141 0 c 2
 46 0 l 2
 8 0 -10 13 -10 37 c 0
 -10 48 -6 77 24 93 c 0
 34 99 43 100 67 100 c 2
 74 100 l 1
 271 483 l 1
 257 483 l 2
 232 483 221 485 214 492 c 0
 205 500 200 512 200 524 c 0
 200 545 217 567 234 576 c 0
 245 582 252 583 278 583 c 2
 717 583 l 1
 682 418 l 2
 681 415 673 352 618 352 c 0
 599 352 578 364 578 389 c 0
 578 396 579 405 582 418 c 2
 596 483 l 1
 470 483 l 1
 440 342 l 1
 459 342 l 1
 468 377 490 397 520 397 c 0
 541 397 561 381 561 360 c 0
 561 354 559 345 556 331 c 2
 540 253 l 2
 534 226 530 218 521 208 c 0
 508 195 492 187 476 187 c 0
 451 187 436 202 436 227 c 0
 436 232 437 237 438 243 c 1
 419 243 l 1
 388 100 l 1
 535 100 l 1
 540 123 l 2
 545 148 550 158 559 168 c 0
 571 181 588 189 604 189 c 0
 623 189 644 176 644 153 c 0
 644 146 643 138 640 123 c 2
 614 0 l 1
 265 0 l 2
 236 0 219 15 219 39 c 0
 219 75 251 100 280 100 c 2
 288 100 l 1
 301 158 l 1
 208 158 l 1
 178 100 l 1
 199 97 211 84 211 66 c 0
322 259 m 1
 367 471 l 1
 258 259 l 1
 322 259 l 1
EndSplineSet
EndChar

StartChar: Ccedilla
Encoding: 199 199 145
Width: 600
Flags: W
HStem: -229 70<211.39 312.792> -14 100<334 459.324> 497 100<325.305 503.524> 563 20G<614.5 638.5>
VStem: 80 102<143.938 272.1> 315 72<-155.404 -103.243>
DStem2: -15.602 -229 83.9729 -229 0.207912 0.978148<474.954 672.295>
LayerCount: 2
Fore
SplineSet
387 -105 m 0xec
 387 -171 332 -229 258 -229 c 0
 220 -229 149 -213 149 -174 c 0
 149 -149 173 -131 192 -131 c 0
 214 -131 228 -159 272 -159 c 0
 306 -159 315 -140 315 -128 c 0
 315 -111 299 -100 271 -100 c 0
 267 -100 263 -100 245 -102 c 1
 265 -9 l 1
 209 3 177 16 146 43 c 0
 103 81 80 135 80 195 c 0
 80 212 82 231 86 249 c 2
 100 315 l 2
 134 475 277 597 432 597 c 0xec
 486 597 520 588 576 559 c 1
 593 577 606 583 623 583 c 0xdc
 654 583 663 558 663 547 c 0
 663 540 662 532 659 517 c 2
 641 433 l 2
 640 429 632 367 577 367 c 0
 535 367 538 402 538 424 c 0
 538 476 464 497 415 497 c 0
 313 497 222 421 200 315 c 1
 186 251 l 2
 183 238 182 226 182 214 c 0
 182 135 243 86 347 86 c 0
 500 86 492 159 548 159 c 0
 571 159 588 142 588 119 c 0
 588 80 532 41 496 23 c 0
 451 1 404 -10 334 -14 c 1
 328 -42 l 1
 368 -50 387 -71 387 -105 c 0xec
EndSplineSet
EndChar

StartChar: Egrave
Encoding: 200 200 146
Width: 600
Flags: W
HStem: 0 100<39.4531 115 215 471> 243 99<267 331> 366 217<531.08 600.388> 483 100<159.513 197 297 531>
VStem: 325 103<191.423 243> 352 104<343.703 395.736>
DStem2: 93.7443 0 193.744 0 0.207912 0.978148<123.025 269.346 370.548 493.913> 386 824 437 656 0.697444 -0.71664<-30.5239 187.36>
LayerCount: 2
Fore
SplineSet
325 207 m 0xd8
 325 221 330 238 331 243 c 1
 246 243 l 1
 215 100 l 1
 471 100 l 1
 482 152 l 2
 482 153 489 219 547 219 c 0
 568 219 587 203 587 181 c 0
 587 175 585 166 582 152 c 2
 550 0 l 1
 79 0 l 2
 60 0 23 1 23 39 c 0
 23 50 28 76 57 93 c 0
 67 99 76 100 100 100 c 2
 115 100 l 1
 197 483 l 1
 182 483 l 2
 157 483 146 485 139 492 c 0
 130 500 125 511 125 524 c 0
 125 545 142 566 159 576 c 0
 170 582 177 583 203 583 c 2
 652 583 l 1xd8
 620 433 l 2
 614 405 610 397 601 387 c 0
 588 374 572 366 556 366 c 0xe8
 537 366 516 379 516 403 c 0
 516 410 517 419 520 433 c 2
 531 483 l 1
 297 483 l 1
 267 342 l 1
 352 342 l 1
 362 411 403 416 416 416 c 0
 441 416 456 400 456 375 c 0xd4
 456 366 454 359 452 349 c 2
 428 236 l 2
 423 210 419 200 410 191 c 0
 397 178 380 170 365 170 c 0
 345 170 325 183 325 207 c 0xd8
312 795 m 0
 312 816 331 839 357 839 c 0
 367 839 374 835 386 824 c 2
 495 712 l 2
 507 701 511 692 511 682 c 0
 511 657 484 640 466 640 c 0
 457 640 448 645 437 656 c 2
 328 767 l 2
 317 778 312 786 312 795 c 0
EndSplineSet
EndChar

StartChar: Eacute
Encoding: 201 201 147
Width: 600
Flags: W
HStem: 0 100<39.4531 115 215 471> 243 99<267 331> 366 217<531.08 600.388> 483 100<159.513 197 297 531>
VStem: 325 103<191.423 243> 352 104<343.703 395.736>
DStem2: 93.7443 0 193.744 0 0.207912 0.978148<123.025 269.346 370.548 493.913> 546 824 423 656 0.814084 0.580748<-235.136 36.8214>
LayerCount: 2
Fore
SplineSet
325 207 m 0xd8
 325 221 330 238 331 243 c 1
 246 243 l 1
 215 100 l 1
 471 100 l 1
 482 152 l 2
 482 153 489 219 547 219 c 0
 568 219 587 203 587 181 c 0
 587 175 585 166 582 152 c 2
 550 0 l 1
 79 0 l 2
 60 0 23 1 23 39 c 0
 23 50 28 76 57 93 c 0
 67 99 76 100 100 100 c 2
 115 100 l 1
 197 483 l 1
 182 483 l 2
 157 483 146 485 139 492 c 0
 130 500 125 511 125 524 c 0
 125 545 142 566 159 576 c 0
 170 582 177 583 203 583 c 2
 652 583 l 1xd8
 620 433 l 2
 614 405 610 397 601 387 c 0
 588 374 572 366 556 366 c 0xe8
 537 366 516 379 516 403 c 0
 516 410 517 419 520 433 c 2
 531 483 l 1
 297 483 l 1
 267 342 l 1
 352 342 l 1
 362 411 403 416 416 416 c 0
 441 416 456 400 456 375 c 0xd4
 456 366 454 359 452 349 c 2
 428 236 l 2
 423 210 419 200 410 191 c 0
 397 178 380 170 365 170 c 0
 345 170 325 183 325 207 c 0xd8
612 810 m 0
 612 793 600 780 580 767 c 2
 423 656 l 2
 408 645 397 640 388 640 c 0
 370 640 358 653 358 669 c 0
 358 684 368 698 389 712 c 2
 546 824 l 2
 562 835 571 839 581 839 c 0
 599 839 612 827 612 810 c 0
EndSplineSet
EndChar

StartChar: Ecircumflex
Encoding: 202 202 148
Width: 600
Flags: W
HStem: 0 100<39.4531 115 215 471> 243 99<267 331> 366 217<531.08 600.388> 483 100<159.513 197 297 531>
VStem: 325 103<191.423 243> 352 104<343.703 395.736>
DStem2: 93.7443 0 193.744 0 0.207912 0.978148<123.025 269.346 370.548 493.913> 470 839 451 750 0.695795 -0.71824<50.7033 210.431> 470 839 318 653 0.813426 0.581668<-264.265 -67.2235>
LayerCount: 2
Fore
SplineSet
325 207 m 0xd8
 325 221 330 238 331 243 c 1
 246 243 l 1
 215 100 l 1
 471 100 l 1
 482 152 l 2
 482 153 489 219 547 219 c 0
 568 219 587 203 587 181 c 0
 587 175 585 166 582 152 c 2
 550 0 l 1
 79 0 l 2
 60 0 23 1 23 39 c 0
 23 50 28 76 57 93 c 0
 67 99 76 100 100 100 c 2
 115 100 l 1
 197 483 l 1
 182 483 l 2
 157 483 146 485 139 492 c 0
 130 500 125 511 125 524 c 0
 125 545 142 566 159 576 c 0
 170 582 177 583 203 583 c 2
 652 583 l 1xd8
 620 433 l 2
 614 405 610 397 601 387 c 0
 588 374 572 366 556 366 c 0xe8
 537 366 516 379 516 403 c 0
 516 410 517 419 520 433 c 2
 531 483 l 1
 297 483 l 1
 267 342 l 1
 352 342 l 1
 362 411 403 416 416 416 c 0
 441 416 456 400 456 375 c 0xd4
 456 366 454 359 452 349 c 2
 428 236 l 2
 423 210 419 200 410 191 c 0
 397 178 380 170 365 170 c 0
 345 170 325 183 325 207 c 0xd8
611 682 m 0
 611 658 587 640 569 640 c 0
 559 640 552 644 543 653 c 2
 451 750 l 1
 318 653 l 2
 304 643 296 640 287 640 c 0
 270 640 259 654 259 669 c 0
 259 687 268 694 291 711 c 2
 470 839 l 1
 594 711 l 2
 601 703 611 695 611 682 c 0
EndSplineSet
EndChar

StartChar: Edieresis
Encoding: 203 203 149
Width: 600
Flags: W
HStem: 0 100<39.4531 115 215 471> 243 99<267 331> 366 217<531.08 600.388> 483 100<159.513 197 297 531> 678 120<307.017 381.875 515.017 589.875>
VStem: 283 122<701.142 774.555> 325 103<191.423 243> 352 104<343.703 395.736> 491 122<701.142 774.555>
DStem2: 93.7443 0 193.744 0 0.207912 0.978148<123.025 269.346 370.548 493.913>
LayerCount: 2
Fore
SplineSet
325 207 m 0xda80
 325 221 330 238 331 243 c 1
 246 243 l 1
 215 100 l 1
 471 100 l 1
 482 152 l 2
 482 153 489 219 547 219 c 0
 568 219 587 203 587 181 c 0
 587 175 585 166 582 152 c 2
 550 0 l 1
 79 0 l 2
 60 0 23 1 23 39 c 0
 23 50 28 76 57 93 c 0
 67 99 76 100 100 100 c 2
 115 100 l 1
 197 483 l 1
 182 483 l 2
 157 483 146 485 139 492 c 0
 130 500 125 511 125 524 c 0
 125 545 142 566 159 576 c 0
 170 582 177 583 203 583 c 2
 652 583 l 1xda80
 620 433 l 2
 614 405 610 397 601 387 c 0
 588 374 572 366 556 366 c 0xea80
 537 366 516 379 516 403 c 0
 516 410 517 419 520 433 c 2
 531 483 l 1
 297 483 l 1
 267 342 l 1
 352 342 l 1
 362 411 403 416 416 416 c 0
 441 416 456 400 456 375 c 0xd980
 456 366 454 359 452 349 c 2
 428 236 l 2
 423 210 419 200 410 191 c 0
 397 178 380 170 365 170 c 0
 345 170 325 183 325 207 c 0xda80
283 725 m 0xcc80
 283 767 324 798 357 798 c 0
 386 798 405 778 405 750 c 0
 405 712 368 678 331 678 c 0
 302 678 283 698 283 725 c 0xcc80
491 725 m 0
 491 767 532 798 565 798 c 0
 594 798 613 778 613 750 c 0
 613 712 576 678 539 678 c 0
 510 678 491 698 491 725 c 0
EndSplineSet
EndChar

StartChar: Igrave
Encoding: 204 204 150
Width: 600
Flags: W
HStem: 0 100<127.467 271 371 513.25> 483 100<229.513 353 453 615.989>
DStem2: 249.744 0 349.744 0 0.207912 0.978148<123.025 493.913> 395 824 446 656 0.697444 -0.71664<-30.5239 187.36>
LayerCount: 2
Fore
SplineSet
575 583 m 2
 594 583 632 584 632 545 c 0
 632 534 627 506 597 490 c 0
 588 485 577 483 554 483 c 2
 453 483 l 1
 371 100 l 1
 472 100 l 2
 499 100 507 98 515 91 c 0
 524 83 529 72 529 60 c 0
 529 36 513 0 451 0 c 2
 149 0 l 2
 124 0 93 3 93 40 c 0
 93 61 107 83 127 93 c 0
 137 99 144 100 170 100 c 2
 271 100 l 1
 353 483 l 1
 252 483 l 2
 227 483 216 485 209 492 c 0
 200 500 195 511 195 524 c 0
 195 545 212 566 229 576 c 0
 240 582 247 583 273 583 c 2
 575 583 l 2
321 795 m 0
 321 816 340 839 366 839 c 0
 376 839 383 835 395 824 c 2
 504 712 l 2
 516 701 520 692 520 682 c 0
 520 657 493 640 475 640 c 0
 466 640 457 645 446 656 c 2
 337 767 l 2
 326 778 321 786 321 795 c 0
EndSplineSet
EndChar

StartChar: Iacute
Encoding: 205 205 151
Width: 600
Flags: W
HStem: 0 100<127.467 271 371 513.25> 483 100<229.513 353 453 615.989>
DStem2: 249.744 0 349.744 0 0.207912 0.978148<123.025 493.913> 581 824 458 656 0.814084 0.580748<-235.136 36.8214>
LayerCount: 2
Fore
SplineSet
575 583 m 2
 594 583 632 584 632 545 c 0
 632 534 627 506 597 490 c 0
 588 485 577 483 554 483 c 2
 453 483 l 1
 371 100 l 1
 472 100 l 2
 499 100 507 98 515 91 c 0
 524 83 529 72 529 60 c 0
 529 36 513 0 451 0 c 2
 149 0 l 2
 124 0 93 3 93 40 c 0
 93 61 107 83 127 93 c 0
 137 99 144 100 170 100 c 2
 271 100 l 1
 353 483 l 1
 252 483 l 2
 227 483 216 485 209 492 c 0
 200 500 195 511 195 524 c 0
 195 545 212 566 229 576 c 0
 240 582 247 583 273 583 c 2
 575 583 l 2
647 810 m 0
 647 793 635 780 615 767 c 2
 458 656 l 2
 443 645 432 640 423 640 c 0
 405 640 393 653 393 669 c 0
 393 684 403 698 424 712 c 2
 581 824 l 2
 597 835 606 839 616 839 c 0
 634 839 647 827 647 810 c 0
EndSplineSet
EndChar

StartChar: Icircumflex
Encoding: 206 206 152
Width: 600
Flags: W
HStem: 0 100<127.467 271 371 513.25> 483 100<229.513 353 453 615.989>
DStem2: 249.744 0 349.744 0 0.207912 0.978148<123.025 493.913> 478 839 459 750 0.695795 -0.71824<50.7033 210.431> 478 839 326 653 0.813426 0.581668<-264.265 -67.2235>
LayerCount: 2
Fore
SplineSet
575 583 m 2
 594 583 632 584 632 545 c 0
 632 534 627 506 597 490 c 0
 588 485 577 483 554 483 c 2
 453 483 l 1
 371 100 l 1
 472 100 l 2
 499 100 507 98 515 91 c 0
 524 83 529 72 529 60 c 0
 529 36 513 0 451 0 c 2
 149 0 l 2
 124 0 93 3 93 40 c 0
 93 61 107 83 127 93 c 0
 137 99 144 100 170 100 c 2
 271 100 l 1
 353 483 l 1
 252 483 l 2
 227 483 216 485 209 492 c 0
 200 500 195 511 195 524 c 0
 195 545 212 566 229 576 c 0
 240 582 247 583 273 583 c 2
 575 583 l 2
619 682 m 0
 619 658 595 640 577 640 c 0
 567 640 560 644 551 653 c 2
 459 750 l 1
 326 653 l 2
 312 643 304 640 295 640 c 0
 278 640 267 654 267 669 c 0
 267 687 276 694 299 711 c 2
 478 839 l 1
 602 711 l 2
 609 703 619 695 619 682 c 0
EndSplineSet
EndChar

StartChar: Idieresis
Encoding: 207 207 153
Width: 600
Flags: W
HStem: 0 100<127.467 271 371 513.25> 483 100<229.513 353 453 615.989> 678 120<316.017 390.875 524.017 598.875>
VStem: 292 122<701.142 774.555> 500 122<701.142 774.555>
DStem2: 249.744 0 349.744 0 0.207912 0.978148<123.025 493.913>
LayerCount: 2
Fore
SplineSet
575 583 m 2
 594 583 632 584 632 545 c 0
 632 534 627 506 597 490 c 0
 588 485 577 483 554 483 c 2
 453 483 l 1
 371 100 l 1
 472 100 l 2
 499 100 507 98 515 91 c 0
 524 83 529 72 529 60 c 0
 529 36 513 0 451 0 c 2
 149 0 l 2
 124 0 93 3 93 40 c 0
 93 61 107 83 127 93 c 0
 137 99 144 100 170 100 c 2
 271 100 l 1
 353 483 l 1
 252 483 l 2
 227 483 216 485 209 492 c 0
 200 500 195 511 195 524 c 0
 195 545 212 566 229 576 c 0
 240 582 247 583 273 583 c 2
 575 583 l 2
292 725 m 0
 292 767 333 798 366 798 c 0
 395 798 414 778 414 750 c 0
 414 712 377 678 340 678 c 0
 311 678 292 698 292 725 c 0
500 725 m 0
 500 767 541 798 574 798 c 0
 603 798 622 778 622 750 c 0
 622 712 585 678 548 678 c 0
 519 678 500 698 500 725 c 0
EndSplineSet
EndChar

StartChar: Eth
Encoding: 208 208 154
Width: 600
Flags: W
HStem: 0 100<38.375 95 195 406.578> 243 100<95.5128 126 247 361.99> 483 100<159.513 177 277 466.021>
VStem: 520 102<239.657 430.659>
DStem2: 73.7443 0 173.744 0 0.207912 0.978148<123.025 248.554 371.526 493.913> 449.523 0 550.16 0 0.207912 0.978148<168.366 356.362>
LayerCount: 2
Fore
SplineSet
23 40 m 0
 23 63 40 100 95 100 c 1
 126 243 l 1
 118 243 l 2
 98 243 61 244 61 284 c 0
 61 305 78 326 95 336 c 0
 106 342 113 343 140 343 c 2
 147 343 l 1
 177 483 l 1
 143 483 125 496 125 521 c 0
 125 547 144 568 159 576 c 0
 170 582 177 583 204 583 c 2
 416 583 l 2
 541 583 622 494 622 370 c 0
 622 349 620 328 615 305 c 2
 605 258 l 2
 589 185 552 123 496 75 c 0
 436 23 371 0 284 0 c 2
 79 0 l 2
 52 0 23 5 23 40 c 0
378 305 m 0
 378 287 369 243 300 243 c 2
 226 243 l 1
 195 100 l 1
 306 100 l 2
 366 100 402 112 440 144 c 1
 474 175 495 210 505 261 c 1
 515 307 l 2
 518 322 520 336 520 350 c 0
 520 408 493 483 387 483 c 2
 277 483 l 1
 247 343 l 1
 321 343 l 2
 340 343 378 344 378 305 c 0
EndSplineSet
EndChar

StartChar: Ntilde
Encoding: 209 209 155
Width: 600
Flags: W
HStem: 0 100<37.0719 94 194 250.665> 7 93<208.935 275.163> 483 100<138.513 176 476.513 534 634 690.442> 667 69<482.838 565.756> 730 69<339.933 428.984>
DStem2: 72.7443 0 172.744 0 0.207912 0.978148<123.025 423.699> 297 583 257 394 0.405923 -0.913907<156.492 429.288> 431.402 0 531 0 0.207912 0.978148<195.267 493.777>
LayerCount: 2
Fore
SplineSet
706 544 m 0xa0
 706 525 694 483 634 483 c 1
 531 0 l 1
 432 0 l 1
 257 394 l 1
 194 100 l 1
 229 100 l 2xa0
 253 100 286 100 286 60 c 0
 286 40 272 19 251 7 c 0x60
 244 3 228 0 208 0 c 2
 79 0 l 2
 51 0 22 5 22 39 c 0
 22 59 35 100 94 100 c 1
 176 483 l 1
 161 483 l 2
 136 483 125 485 118 492 c 0
 109 500 104 511 104 524 c 0
 104 545 121 566 138 576 c 0
 149 582 156 583 182 583 c 2
 297 583 l 1
 472 191 l 1
 534 483 l 1
 499 483 l 2
 474 483 463 485 456 492 c 0
 447 500 442 511 442 524 c 0
 442 545 459 566 476 576 c 0
 487 582 494 583 520 583 c 2
 650 583 l 2
 677 583 684 581 693 574 c 1
 701 566 706 556 706 544 c 0xa0
528 736 m 0x30
 564 736 583 796 621 799 c 1x28
 638 797 648 788 648 776 c 0
 648 751 609 717 607 715 c 0
 573 681 546 667 517 667 c 0x30
 463 667 419 730 381 730 c 0
 340 730 320 670 287 670 c 0
 272 670 262 680 262 693 c 0
 262 724 331 799 393 799 c 0x28
 446 799 495 736 528 736 c 0x30
EndSplineSet
EndChar

StartChar: Ograve
Encoding: 210 210 156
Width: 600
Flags: W
HStem: -14 100<244.642 400.049> 497 100<326.193 481.42>
VStem: 75 103<156.686 338.017> 546 103<244.12 427.311>
DStem2: 398 824 449 656 0.697444 -0.71664<-30.5239 187.36>
LayerCount: 2
Fore
SplineSet
75 222 m 0
 75 415 249 597 427 597 c 0
 546 597 649 508 649 366 c 0
 649 157 466 -14 297 -14 c 0
 165 -14 75 87 75 222 c 0
318 86 m 0
 428 86 546 206 546 340 c 0
 546 430 490 497 406 497 c 0
 296 497 178 376 178 244 c 0
 178 154 234 86 318 86 c 0
324 795 m 0
 324 816 343 839 369 839 c 0
 379 839 386 835 398 824 c 2
 507 712 l 2
 519 701 523 692 523 682 c 0
 523 657 496 640 478 640 c 0
 469 640 460 645 449 656 c 2
 340 767 l 2
 329 778 324 786 324 795 c 0
EndSplineSet
EndChar

StartChar: Oacute
Encoding: 211 211 157
Width: 600
Flags: W
HStem: -14 100<244.642 400.049> 497 100<326.193 481.42>
VStem: 75 103<156.686 338.017> 546 103<244.12 427.311>
DStem2: 552 824 429 656 0.814084 0.580748<-235.136 36.8214>
LayerCount: 2
Fore
SplineSet
75 222 m 0
 75 415 249 597 427 597 c 0
 546 597 649 508 649 366 c 0
 649 157 466 -14 297 -14 c 0
 165 -14 75 87 75 222 c 0
318 86 m 0
 428 86 546 206 546 340 c 0
 546 430 490 497 406 497 c 0
 296 497 178 376 178 244 c 0
 178 154 234 86 318 86 c 0
618 810 m 0
 618 793 606 780 586 767 c 2
 429 656 l 2
 414 645 403 640 394 640 c 0
 376 640 364 653 364 669 c 0
 364 684 374 698 395 712 c 2
 552 824 l 2
 568 835 577 839 587 839 c 0
 605 839 618 827 618 810 c 0
EndSplineSet
EndChar

StartChar: Ocircumflex
Encoding: 212 212 158
Width: 600
Flags: W
HStem: -14 100<244.642 400.049> 497 100<326.193 481.42>
VStem: 75 103<156.686 338.017> 546 103<244.12 427.311>
DStem2: 478 839 459 750 0.695795 -0.71824<50.7033 210.431> 478 839 326 653 0.813426 0.581668<-264.265 -67.2235>
LayerCount: 2
Fore
SplineSet
75 222 m 0
 75 415 249 597 427 597 c 0
 546 597 649 508 649 366 c 0
 649 157 466 -14 297 -14 c 0
 165 -14 75 87 75 222 c 0
318 86 m 0
 428 86 546 206 546 340 c 0
 546 430 490 497 406 497 c 0
 296 497 178 376 178 244 c 0
 178 154 234 86 318 86 c 0
619 682 m 0
 619 658 595 640 577 640 c 0
 567 640 560 644 551 653 c 2
 459 750 l 1
 326 653 l 2
 312 643 304 640 295 640 c 0
 278 640 267 654 267 669 c 0
 267 687 276 694 299 711 c 2
 478 839 l 1
 602 711 l 2
 609 703 619 695 619 682 c 0
EndSplineSet
EndChar

StartChar: Otilde
Encoding: 213 213 159
Width: 600
Flags: W
HStem: -14 100<244.642 400.049> 497 100<326.193 481.42> 667 69<490.878 573.684> 730 69<348.917 435.886>
VStem: 75 103<156.686 338.017> 546 103<244.12 427.311>
LayerCount: 2
Fore
SplineSet
75 222 m 0xcc
 75 415 249 597 427 597 c 0
 546 597 649 508 649 366 c 0
 649 157 466 -14 297 -14 c 0
 165 -14 75 87 75 222 c 0xcc
318 86 m 0
 428 86 546 206 546 340 c 0
 546 430 490 497 406 497 c 0
 296 497 178 376 178 244 c 0
 178 154 234 86 318 86 c 0
536 736 m 0xec
 572 736 595 799 630 799 c 0xdc
 645 799 656 788 656 775 c 0
 656 751 617 717 615 715 c 0
 581 681 554 667 525 667 c 0xec
 472 667 425 730 389 730 c 0
 349 730 329 670 295 670 c 0
 280 670 270 680 270 693 c 0
 270 724 341 799 402 799 c 0xdc
 455 799 502 736 536 736 c 0xec
EndSplineSet
EndChar

StartChar: Odieresis
Encoding: 214 214 160
Width: 600
Flags: W
HStem: -14 100<244.642 400.049> 497 100<326.193 481.42> 678 120<316.017 390.875 524.017 598.875>
VStem: 75 103<156.686 338.017> 292 122<701.142 774.555> 500 122<701.142 774.555> 546 103<244.12 427.311>
LayerCount: 2
Fore
SplineSet
75 222 m 0xfa
 75 415 249 597 427 597 c 0
 546 597 649 508 649 366 c 0
 649 157 466 -14 297 -14 c 0
 165 -14 75 87 75 222 c 0xfa
318 86 m 0
 428 86 546 206 546 340 c 0
 546 430 490 497 406 497 c 0
 296 497 178 376 178 244 c 0
 178 154 234 86 318 86 c 0
292 725 m 0
 292 767 333 798 366 798 c 0
 395 798 414 778 414 750 c 0
 414 712 377 678 340 678 c 0
 311 678 292 698 292 725 c 0
500 725 m 0xfc
 500 767 541 798 574 798 c 0
 603 798 622 778 622 750 c 0
 622 712 585 678 548 678 c 0
 519 678 500 698 500 725 c 0xfc
EndSplineSet
EndChar

StartChar: multiply
Encoding: 215 215 161
Width: 600
Flags: W
DStem2: 164 177 220 106 0.771599 0.63611<-58.8091 159.243 273.49 491.509> 294 454 207 383 0.620195 -0.784448<-37.4234 131.034 223.199 392.404>
LayerCount: 2
Fore
SplineSet
529 139 m 0
 529 114 502 80 467 80 c 0
 450 80 442 85 426 106 c 2
 344 209 l 1
 220 106 l 1
 194 86 183 80 167 80 c 0
 144 80 127 97 127 120 c 0
 127 151 151 167 164 177 c 2
 289 280 l 1
 207 383 l 1
 195 400 190 409 190 420 c 0
 190 455 225 480 252 480 c 0
 268 480 277 474 294 454 c 2
 375 351 l 1
 500 454 l 2
 526 475 535 480 552 480 c 0
 575 480 592 463 592 440 c 0
 592 417 580 404 555 383 c 2
 431 280 l 1
 512 177 l 2
 524 161 529 151 529 139 c 0
EndSplineSet
EndChar

StartChar: Oslash
Encoding: 216 216 162
Width: 600
Flags: W
HStem: -14 100<245.323 400.612> 497 100<324.693 480.238> 618 20G<668.5 689>
VStem: 74 103<175.003 336.466> 546 103<243.991 398.873>
DStem2: 34 19 96 -40 0.708306 0.705905<-55.8225 103.237 219.203 625.228 747.124 892.475>
LayerCount: 2
Fore
SplineSet
649 365 m 0
 649 162 470 -14 297 -14 c 0
 248 -14 202 1 165 28 c 1
 96 -40 l 2
 71 -65 62 -70 43 -70 c 0
 19 -70 3 -54 3 -32 c 0
 3 -13 13 -2 34 19 c 2
 107 92 l 1
 85 131 74 173 74 219 c 0
 74 412 245 597 427 597 c 0
 479 597 524 581 566 549 c 1
 624 607 l 2
 648 632 659 638 678 638 c 0
 700 638 716 622 716 600 c 0
 716 579 705 567 686 548 c 2
 621 483 l 1
 640 448 649 408 649 365 c 0
318 86 m 0
 427 86 546 204 546 338 c 0
 546 360 543 382 537 400 c 1
 244 107 l 1
 266 93 291 86 318 86 c 0
405 497 m 0
 294 497 177 377 177 242 c 0
 177 218 181 196 189 174 c 1
 487 471 l 1
 462 488 436 497 405 497 c 0
EndSplineSet
EndChar

StartChar: Ugrave
Encoding: 217 217 163
Width: 600
Flags: W
HStem: -14 100<246.839 400.077> 483 100<156.514 174 274 370.815 474.513 532 632 688.895>
VStem: 109 102<120.75 227.889>
DStem2: 68.4501 -14 168.363 -14 0.207912 0.978148<215.762 508.084> 426.363 -14 526.45 -14 0.207912 0.978148<148.667 508.102> 398 824 449 656 0.697444 -0.71664<-30.5239 187.36>
LayerCount: 2
Fore
SplineSet
705 545 m 0
 705 525 692 483 632 483 c 1
 573 205 l 2
 557 134 519 78 452 35 c 0
 402 2 352 -14 297 -14 c 0
 185 -14 109 61 109 155 c 0
 109 171 111 188 115 205 c 2
 174 483 l 1
 140 484 122 497 122 520 c 0
 122 547 141 568 156 576 c 0
 167 582 175 583 200 583 c 2
 330 583 l 2
 358 583 365 582 374 574 c 0
 382 566 386 556 386 544 c 0
 386 533 382 506 352 490 c 0
 343 485 332 483 309 483 c 2
 274 483 l 1
 213 196 l 2
 212 189 211 182 211 176 c 0
 211 125 255 86 318 86 c 0
 389 86 458 135 471 196 c 2
 532 483 l 1
 497 483 l 2
 471 483 461 485 454 492 c 0
 445 500 440 511 440 524 c 0
 440 545 457 566 474 576 c 0
 485 582 492 583 518 583 c 2
 648 583 l 2
 670 583 705 583 705 545 c 0
324 795 m 0
 324 816 343 839 369 839 c 0
 379 839 386 835 398 824 c 2
 507 712 l 2
 519 701 523 692 523 682 c 0
 523 657 496 640 478 640 c 0
 469 640 460 645 449 656 c 2
 340 767 l 2
 329 778 324 786 324 795 c 0
EndSplineSet
EndChar

StartChar: Uacute
Encoding: 218 218 164
Width: 600
Flags: W
HStem: -14 100<246.839 400.077> 483 100<156.514 174 274 370.815 474.513 532 632 688.895>
VStem: 109 102<120.75 227.889>
DStem2: 68.4501 -14 168.363 -14 0.207912 0.978148<215.762 508.084> 426.363 -14 526.45 -14 0.207912 0.978148<148.667 508.102> 552 824 429 656 0.814084 0.580748<-235.136 36.8214>
LayerCount: 2
Fore
SplineSet
705 545 m 0
 705 525 692 483 632 483 c 1
 573 205 l 2
 557 134 519 78 452 35 c 0
 402 2 352 -14 297 -14 c 0
 185 -14 109 61 109 155 c 0
 109 171 111 188 115 205 c 2
 174 483 l 1
 140 484 122 497 122 520 c 0
 122 547 141 568 156 576 c 0
 167 582 175 583 200 583 c 2
 330 583 l 2
 358 583 365 582 374 574 c 0
 382 566 386 556 386 544 c 0
 386 533 382 506 352 490 c 0
 343 485 332 483 309 483 c 2
 274 483 l 1
 213 196 l 2
 212 189 211 182 211 176 c 0
 211 125 255 86 318 86 c 0
 389 86 458 135 471 196 c 2
 532 483 l 1
 497 483 l 2
 471 483 461 485 454 492 c 0
 445 500 440 511 440 524 c 0
 440 545 457 566 474 576 c 0
 485 582 492 583 518 583 c 2
 648 583 l 2
 670 583 705 583 705 545 c 0
618 810 m 0
 618 793 606 780 586 767 c 2
 429 656 l 2
 414 645 403 640 394 640 c 0
 376 640 364 653 364 669 c 0
 364 684 374 698 395 712 c 2
 552 824 l 2
 568 835 577 839 587 839 c 0
 605 839 618 827 618 810 c 0
EndSplineSet
EndChar

StartChar: Ucircumflex
Encoding: 219 219 165
Width: 600
Flags: W
HStem: -14 100<246.839 400.077> 483 100<156.514 174 274 370.815 474.513 532 632 688.895>
VStem: 109 102<120.75 227.889>
DStem2: 68.4501 -14 168.363 -14 0.207912 0.978148<215.762 508.084> 426.363 -14 526.45 -14 0.207912 0.978148<148.667 508.102> 478 839 459 750 0.695795 -0.71824<50.7033 210.431> 478 839 326 653 0.813426 0.581668<-264.265 -67.2235>
LayerCount: 2
Fore
SplineSet
705 545 m 0
 705 525 692 483 632 483 c 1
 573 205 l 2
 557 134 519 78 452 35 c 0
 402 2 352 -14 297 -14 c 0
 185 -14 109 61 109 155 c 0
 109 171 111 188 115 205 c 2
 174 483 l 1
 140 484 122 497 122 520 c 0
 122 547 141 568 156 576 c 0
 167 582 175 583 200 583 c 2
 330 583 l 2
 358 583 365 582 374 574 c 0
 382 566 386 556 386 544 c 0
 386 533 382 506 352 490 c 0
 343 485 332 483 309 483 c 2
 274 483 l 1
 213 196 l 2
 212 189 211 182 211 176 c 0
 211 125 255 86 318 86 c 0
 389 86 458 135 471 196 c 2
 532 483 l 1
 497 483 l 2
 471 483 461 485 454 492 c 0
 445 500 440 511 440 524 c 0
 440 545 457 566 474 576 c 0
 485 582 492 583 518 583 c 2
 648 583 l 2
 670 583 705 583 705 545 c 0
619 682 m 0
 619 658 595 640 577 640 c 0
 567 640 560 644 551 653 c 2
 459 750 l 1
 326 653 l 2
 312 643 304 640 295 640 c 0
 278 640 267 654 267 669 c 0
 267 687 276 694 299 711 c 2
 478 839 l 1
 602 711 l 2
 609 703 619 695 619 682 c 0
EndSplineSet
EndChar

StartChar: Udieresis
Encoding: 220 220 166
Width: 600
Flags: W
HStem: -14 100<246.839 400.077> 483 100<156.514 174 274 370.815 474.513 532 632 688.895> 678 120<316.017 390.875 524.017 598.875>
VStem: 109 102<120.75 227.889> 292 122<701.142 774.555> 500 122<701.142 774.555>
DStem2: 68.4501 -14 168.363 -14 0.207912 0.978148<215.762 508.084> 426.363 -14 526.45 -14 0.207912 0.978148<148.667 508.102>
LayerCount: 2
Fore
SplineSet
705 545 m 0
 705 525 692 483 632 483 c 1
 573 205 l 2
 557 134 519 78 452 35 c 0
 402 2 352 -14 297 -14 c 0
 185 -14 109 61 109 155 c 0
 109 171 111 188 115 205 c 2
 174 483 l 1
 140 484 122 497 122 520 c 0
 122 547 141 568 156 576 c 0
 167 582 175 583 200 583 c 2
 330 583 l 2
 358 583 365 582 374 574 c 0
 382 566 386 556 386 544 c 0
 386 533 382 506 352 490 c 0
 343 485 332 483 309 483 c 2
 274 483 l 1
 213 196 l 2
 212 189 211 182 211 176 c 0
 211 125 255 86 318 86 c 0
 389 86 458 135 471 196 c 2
 532 483 l 1
 497 483 l 2
 471 483 461 485 454 492 c 0
 445 500 440 511 440 524 c 0
 440 545 457 566 474 576 c 0
 485 582 492 583 518 583 c 2
 648 583 l 2
 670 583 705 583 705 545 c 0
292 725 m 0
 292 767 333 798 366 798 c 0
 395 798 414 778 414 750 c 0
 414 712 377 678 340 678 c 0
 311 678 292 698 292 725 c 0
500 725 m 0
 500 767 541 798 574 798 c 0
 603 798 622 778 622 750 c 0
 622 712 585 678 548 678 c 0
 519 678 500 698 500 725 c 0
EndSplineSet
EndChar

StartChar: Yacute
Encoding: 221 221 167
Width: 600
Flags: W
HStem: 0 100<144.026 271 371 458.665> 7 93<415.981 479.625> 483 100<148.875 188 617 676.95>
DStem2: 308 484 188 483 0.431992 -0.901878<0 151.167> 374 348 402 245 0.670342 0.742053<0 183.371> 555 824 432 656 0.814084 0.580748<-235.136 36.8214>
LayerCount: 2
Fore
SplineSet
627 483 m 2xa0
 617 483 l 1
 402 245 l 1
 371 100 l 1
 436 100 l 2xa0
 464 100 472 98 480 91 c 0
 489 83 494 72 494 59 c 0
 494 40 479 17 459 7 c 0x60
 452 3 436 0 415 0 c 2
 185 0 l 2
 157 0 128 5 128 39 c 0
 128 50 133 77 162 93 c 0
 172 99 179 100 206 100 c 2
 271 100 l 1
 302 245 l 1
 188 483 l 1
 152 483 133 497 133 521 c 0
 133 546 149 583 212 583 c 2
 301 583 l 2
 324 583 357 583 357 544 c 0
 357 523 345 499 308 484 c 1
 374 348 l 1
 497 484 l 1
 476 492 466 505 466 522 c 0
 466 548 486 568 500 576 c 0
 511 582 520 583 545 583 c 2
 637 583 l 2
 664 583 672 581 680 574 c 0
 689 566 694 556 694 545 c 0
 694 516 668 483 627 483 c 2xa0
621 810 m 0
 621 793 609 780 589 767 c 2
 432 656 l 2
 417 645 406 640 397 640 c 0
 379 640 367 653 367 669 c 0
 367 684 377 698 398 712 c 2
 555 824 l 2
 571 835 580 839 590 839 c 0
 608 839 621 827 621 810 c 0
EndSplineSet
EndChar

StartChar: Thorn
Encoding: 222 222 168
Width: 600
Flags: W
HStem: 0 100<58.4681 116 216 336.665> 7 93<294.935 357.625> 140 100<246 463.98> 343 100<289 478.058> 483 100<160.426 198 298 458.347>
VStem: 484 104<259.329 334.065>
DStem2: 94.7443 0 194.744 0 0.207912 0.978148<123.025 164.022 266.203 371.526 473.707 493.913>
LayerCount: 2
Fore
SplineSet
418 583 m 2xbc
 443 583 474 580 474 544 c 0
 474 533 469 506 440 490 c 0
 430 484 421 483 397 483 c 2
 298 483 l 1
 289 443 l 1
 387 443 l 2
 489 443 538 427 569 382 c 0
 581 365 588 342 588 319 c 0
 588 272 561 227 531 201 c 0
 480 156 425 140 323 140 c 2
 225 140 l 1
 216 100 l 1
 315 100 l 2xbc
 342 100 350 98 358 91 c 0
 367 83 372 72 372 59 c 0
 372 40 357 17 337 7 c 0x7c
 330 3 314 0 294 0 c 2
 80 0 l 2
 55 0 24 3 24 40 c 0
 24 61 38 83 58 93 c 0
 68 99 77 100 101 100 c 2
 116 100 l 1
 198 483 l 1
 183 483 l 2
 156 483 148 485 140 492 c 0
 131 500 126 511 126 524 c 0
 126 545 143 566 160 576 c 0
 169 581 183 583 204 583 c 2
 418 583 l 2xbc
377 240 m 2
 436 240 484 253 484 303 c 0
 484 331 458 343 399 343 c 2
 268 343 l 1
 246 240 l 1
 377 240 l 2
EndSplineSet
EndChar

StartChar: germandbls
Encoding: 223 223 169
Width: 600
Flags: W
HStem: -16 100<341 436.796> 0 100<57.4674 116> 523 100<315.563 433.255>
VStem: 23 228<16.3674 83.9844> 273 103<84.0658 137.068> 445 102<425.855 509.858> 467 103<115.648 255.245>
DStem2: 91.3434 -16 191.343 -16 0.207912 0.978148<135.734 560.185>
LayerCount: 2
Fore
SplineSet
79 0 m 2x7c
 53 0 23 2 23 39 c 0
 23 61 37 82 57 93 c 0
 67 99 75 100 100 100 c 2
 116 100 l 1
 197 478 l 2
 215 563 299 623 400 623 c 0
 488 623 547 568 547 491 c 0x7c
 547 425 515 390 489 365 c 1
 542 329 570 277 570 215 c 0
 570 112 497 -16 371 -16 c 0
 311 -16 273 19 273 72 c 0
 273 101 286 156 338 156 c 0
 380 156 376 121 376 113 c 0
 376 94 384 84 400 84 c 0
 440 84 467 148 467 191 c 0xba
 467 217 459 240 443 259 c 0
 390 325 297 280 297 341 c 0
 297 356 306 397 361 402 c 0
 388 405 397 407 409 415 c 1
 426 424 445 444 445 471 c 0
 445 502 420 523 379 523 c 0
 332 523 302 502 293 461 c 2
 216 100 l 1
 238 96 251 83 251 64 c 0
 251 45 243 0 172 0 c 2
 79 0 l 2x7c
EndSplineSet
EndChar

StartChar: agrave
Encoding: 224 224 170
Width: 600
Flags: W
HStem: -16 100<178.205 348.975> 0 100<510 547.621> 185 93<346.499 428> 196 92<227.236 426.887> 350 100<237.57 447.884>
VStem: 65 108<92.853 153.509> 453 104<279.133 339.806>
DStem2: 351 680 402 512 0.697444 -0.71664<-31.3344 186.633>
LayerCount: 2
Fore
SplineSet
526 100 m 2x6e
 550 100 583 100 583 59 c 0
 583 38 568 17 548 7 c 0
 540 2 526 0 505 0 c 2
 388 0 l 1x6e
 393 23 l 1
 340 -2 278 -16 219 -16 c 0
 129 -16 65 34 65 99 c 0
 65 166 154 288 345 288 c 0x9e
 377 288 408 285 447 278 c 1
 452 301 l 2
 453 305 453 308 453 311 c 0
 453 338 426 350 369 350 c 0
 297 350 241 327 209 327 c 0
 185 327 169 343 169 367 c 0
 169 396 189 413 209 420 c 0
 261 437 338 450 388 450 c 0
 496 450 557 408 557 335 c 0
 557 324 555 314 553 302 c 2
 510 100 l 1
 526 100 l 2x6e
320 196 m 0x1e
 247 196 173 155 173 118 c 0
 173 99 202 84 242 84 c 0
 296 84 355 101 418 135 c 1
 428 185 l 1xae
 390 192 354 196 320 196 c 0x1e
276 653 m 0
 276 672 295 696 322 696 c 0
 333 696 337 693 351 680 c 2
 460 569 l 2
 471 558 476 549 476 539 c 0
 476 514 450 496 430 496 c 0
 420 496 414 500 402 512 c 2
 293 624 l 2
 281 635 276 643 276 653 c 0
EndSplineSet
EndChar

StartChar: aacute
Encoding: 225 225 171
Width: 600
Flags: W
HStem: -16 100<178.205 348.975> 0 100<510 547.621> 185 93<346.499 428> 196 92<227.236 426.887> 350 100<237.57 447.884>
VStem: 65 108<92.853 153.509> 453 104<279.133 339.806>
DStem2: 518 680 395 512 0.814084 0.580748<-235.915 37.3668>
LayerCount: 2
Fore
SplineSet
526 100 m 2x6e
 550 100 583 100 583 59 c 0
 583 38 568 17 548 7 c 0
 540 2 526 0 505 0 c 2
 388 0 l 1x6e
 393 23 l 1
 340 -2 278 -16 219 -16 c 0
 129 -16 65 34 65 99 c 0
 65 166 154 288 345 288 c 0x9e
 377 288 408 285 447 278 c 1
 452 301 l 2
 453 305 453 308 453 311 c 0
 453 338 426 350 369 350 c 0
 297 350 241 327 209 327 c 0
 185 327 169 343 169 367 c 0
 169 396 189 413 209 420 c 0
 261 437 338 450 388 450 c 0
 496 450 557 408 557 335 c 0
 557 324 555 314 553 302 c 2
 510 100 l 1
 526 100 l 2x6e
320 196 m 0x1e
 247 196 173 155 173 118 c 0
 173 99 202 84 242 84 c 0
 296 84 355 101 418 135 c 1
 428 185 l 1xae
 390 192 354 196 320 196 c 0x1e
583 668 m 0
 583 650 573 639 552 624 c 2
 395 512 l 2
 377 500 369 496 359 496 c 0
 341 496 329 509 329 525 c 0
 329 534 332 549 361 569 c 2
 518 680 l 2
 536 693 542 696 553 696 c 0
 571 696 583 684 583 668 c 0
EndSplineSet
EndChar

StartChar: acircumflex
Encoding: 226 226 172
Width: 600
Flags: W
HStem: -16 100<178.205 348.975> 0 100<510 547.621> 185 93<346.499 428> 196 92<227.236 426.887> 350 100<237.57 447.884>
VStem: 65 108<92.853 153.509> 453 104<279.133 339.806>
DStem2: 259 567 285 510 0.811276 0.584663<-43.8281 153.191> 438 696 419 607 0.693743 -0.720222<50.9187 210.622>
LayerCount: 2
Fore
SplineSet
526 100 m 2x6e
 550 100 583 100 583 59 c 0
 583 38 568 17 548 7 c 0
 540 2 526 0 505 0 c 2
 388 0 l 1x6e
 393 23 l 1
 340 -2 278 -16 219 -16 c 0
 129 -16 65 34 65 99 c 0
 65 166 154 288 345 288 c 0x9e
 377 288 408 285 447 278 c 1
 452 301 l 2
 453 305 453 308 453 311 c 0
 453 338 426 350 369 350 c 0
 297 350 241 327 209 327 c 0
 185 327 169 343 169 367 c 0
 169 396 189 413 209 420 c 0
 261 437 338 450 388 450 c 0
 496 450 557 408 557 335 c 0
 557 324 555 314 553 302 c 2
 510 100 l 1
 526 100 l 2x6e
320 196 m 0x1e
 247 196 173 155 173 118 c 0
 173 99 202 84 242 84 c 0
 296 84 355 101 418 135 c 1
 428 185 l 1xae
 390 192 354 196 320 196 c 0x1e
579 539 m 0
 579 515 555 497 537 497 c 0
 528 497 519 501 510 510 c 2
 419 607 l 1
 285 510 l 2
 272 501 264 497 255 497 c 0
 238 497 226 510 226 525 c 0
 226 548 244 557 259 567 c 2
 438 696 l 1
 569 560 l 2
 576 553 579 547 579 539 c 0
EndSplineSet
EndChar

StartChar: atilde
Encoding: 227 227 173
Width: 600
Flags: W
HStem: -16 100<178.205 348.975> 0 100<510 547.621> 185 93<346.499 428> 196 92<227.236 426.887> 350 100<237.57 447.884> 523 69<445.908 528.211> 587 69<304.768 391.3>
VStem: 65 108<92.853 153.509> 453 104<279.133 339.806>
LayerCount: 2
Fore
SplineSet
526 100 m 2x6980
 550 100 583 100 583 59 c 0
 583 38 568 17 548 7 c 0
 540 2 526 0 505 0 c 2
 388 0 l 1x6980
 393 23 l 1
 340 -2 278 -16 219 -16 c 0
 129 -16 65 34 65 99 c 0
 65 166 154 288 345 288 c 0x9980
 377 288 408 285 447 278 c 1
 452 301 l 2
 453 305 453 308 453 311 c 0
 453 338 426 350 369 350 c 0
 297 350 241 327 209 327 c 0
 185 327 169 343 169 367 c 0
 169 396 189 413 209 420 c 0
 261 437 338 450 388 450 c 0
 496 450 557 408 557 335 c 0
 557 324 555 314 553 302 c 2
 510 100 l 1
 526 100 l 2x6980
320 196 m 0x1980
 247 196 173 155 173 118 c 0
 173 99 202 84 242 84 c 0
 296 84 355 101 418 135 c 1
 428 185 l 1xa980
 390 192 354 196 320 196 c 0x1980
611 632 m 0
 611 611 544 523 480 523 c 0x0d80
 426 523 382 587 345 587 c 0
 303 587 285 526 251 526 c 0
 236 526 226 537 226 551 c 0
 226 580 296 656 357 656 c 0x0b80
 410 656 457 592 492 592 c 0x0d80
 527 592 550 656 585 656 c 0x0b80
 600 656 611 645 611 632 c 0
EndSplineSet
EndChar

StartChar: adieresis
Encoding: 228 228 174
Width: 600
Flags: W
HStem: -16 100<178.205 348.975> 0 100<510 547.621> 185 93<346.499 428> 196 92<227.236 426.887> 350 100<237.57 447.884> 534 120<273.795 348.999 481.795 556.999>
VStem: 65 108<92.853 153.509> 250 122<556.892 630> 453 104<279.133 339.806> 458 122<556.892 630>
LayerCount: 2
Fore
SplineSet
526 100 m 2x6f80
 550 100 583 100 583 59 c 0
 583 38 568 17 548 7 c 0
 540 2 526 0 505 0 c 2
 388 0 l 1x6f80
 393 23 l 1
 340 -2 278 -16 219 -16 c 0
 129 -16 65 34 65 99 c 0
 65 166 154 288 345 288 c 0x9f80
 377 288 408 285 447 278 c 1
 452 301 l 2
 453 305 453 308 453 311 c 0
 453 338 426 350 369 350 c 0
 297 350 241 327 209 327 c 0
 185 327 169 343 169 367 c 0
 169 396 189 413 209 420 c 0
 261 437 338 450 388 450 c 0
 496 450 557 408 557 335 c 0
 557 324 555 314 553 302 c 2
 510 100 l 1
 526 100 l 2x6f80
320 196 m 0x1f
 247 196 173 155 173 118 c 0
 173 99 202 84 242 84 c 0
 296 84 355 101 418 135 c 1
 428 185 l 1xaf
 390 192 354 196 320 196 c 0x1f
250 582 m 0
 250 614 282 654 324 654 c 0
 353 654 372 634 372 606 c 0
 372 564 332 534 299 534 c 0
 270 534 250 555 250 582 c 0
458 582 m 0x0f40
 458 614 490 654 532 654 c 0
 561 654 580 634 580 606 c 0
 580 564 540 534 507 534 c 0
 478 534 458 555 458 582 c 0x0f40
EndSplineSet
EndChar

StartChar: aring
Encoding: 229 229 175
Width: 600
Flags: W
HStem: -16 100<178.205 348.975> 0 100<510 547.621> 185 93<346.499 428> 196 92<227.236 426.887> 350 100<237.57 447.884> 486 54<358.172 458.058> 674 53<378.658 477.828>
VStem: 65 108<92.853 153.509> 292 55<551.4 642.929> 453 104<279.133 339.806> 489 55<569.814 662.063>
LayerCount: 2
Fore
SplineSet
526 100 m 2x6fc0
 550 100 583 100 583 59 c 0
 583 38 568 17 548 7 c 0
 540 2 526 0 505 0 c 2
 388 0 l 1x6fc0
 393 23 l 1
 340 -2 278 -16 219 -16 c 0
 129 -16 65 34 65 99 c 0
 65 166 154 288 345 288 c 0x9fc0
 377 288 408 285 447 278 c 1
 452 301 l 2
 453 305 453 308 453 311 c 0
 453 338 426 350 369 350 c 0
 297 350 241 327 209 327 c 0
 185 327 169 343 169 367 c 0
 169 396 189 413 209 420 c 0
 261 437 338 450 388 450 c 0
 496 450 557 408 557 335 c 0
 557 324 555 314 553 302 c 2
 510 100 l 1
 526 100 l 2x6fc0
320 196 m 0x1f80
 247 196 173 155 173 118 c 0
 173 99 202 84 242 84 c 0
 296 84 355 101 418 135 c 1
 428 185 l 1xaf80
 390 192 354 196 320 196 c 0x1f80
292 583 m 0
 292 654 364 727 444 727 c 0
 503 727 544 685 544 630 c 0x0fa0
 544 556 468 486 392 486 c 0
 333 486 292 528 292 583 c 0
404 540 m 0
 440 540 489 574 489 619 c 0
 489 650 465 674 432 674 c 0
 384 674 347 629 347 594 c 0
 347 564 371 540 404 540 c 0
EndSplineSet
EndChar

StartChar: ae
Encoding: 230 230 176
Width: 600
Flags: W
HStem: -16 100<124.102 245.556 413.154 543.41> -1 21G<297.5 313> 172 86<417 557.993> 197 89<146.07 294.412> 325 101<141.586 254.373> 350 100<185.22 316.244 458.498 545.724>
VStem: 14 103<92.323 170.791> 558 107<258.675 337.095>
LayerCount: 2
Fore
SplineSet
531 450 m 0x07
 608 450 665 387 665 288 c 0
 665 267 663 243 657 218 c 1
 648 172 l 1
 397 172 l 1
 400 109 418 84 459 84 c 0
 512 84 555 118 591 118 c 0
 613 118 627 102 627 79 c 0
 627 45 602 28 592 22 c 0
 552 0 486 -16 439 -16 c 0xa7
 399 -16 377 -9 345 16 c 1
 334 5 321 -1 305 -1 c 0x43
 290 -1 280 5 272 16 c 1
 231 -7 199 -16 156 -16 c 0
 67 -16 14 31 14 106 c 0
 14 195 68 226 96 242 c 0
 142 268 209 286 256 286 c 0
 271 286 289 284 315 281 c 1
 319 301 l 2
 320 305 320 309 320 312 c 0
 320 334 305 350 281 350 c 0x97
 246 350 187 325 163 325 c 0
 141 325 125 342 125 365 c 0
 125 389 140 414 178 426 c 0x0b
 217 438 278 450 303 450 c 0
 349 450 380 433 407 394 c 1
 451 433 489 450 531 450 c 0x07
283 130 m 1
 295 189 l 1
 273 195 258 197 241 197 c 0x93
 204 197 161 186 137 171 c 1
 124 161 117 146 117 130 c 0
 117 102 139 84 176 84 c 0
 207 84 235 96 283 130 c 1
558 284 m 0
 558 334 527 350 506 350 c 0
 450 350 425 277 417 258 c 1
 557 258 l 1x27
 558 268 558 277 558 284 c 0
EndSplineSet
EndChar

StartChar: ccedilla
Encoding: 231 231 177
Width: 600
Flags: W
HStem: -229 70<216.793 317.04> -14 98<339 475.351> 350 100<294.516 480.75>
VStem: 93 102<121.44 253.917> 320 72<-154.929 -103.917>
LayerCount: 2
Fore
SplineSet
392 -106 m 0
 392 -181 327 -229 263 -229 c 0
 226 -229 154 -213 154 -174 c 0
 154 -149 178 -131 197 -131 c 0
 218 -131 237 -159 277 -159 c 0
 311 -159 320 -140 320 -128 c 0
 320 -110 303 -100 270 -100 c 0
 265 -100 260 -101 250 -102 c 1
 269 -14 l 1
 215 -8 184 2 154 26 c 1
 113 57 93 103 93 156 c 0
 93 288 207 450 407 450 c 0
 463 450 509 440 543 420 c 1
 554 441 567 450 587 450 c 0
 607 450 626 438 626 416 c 0
 626 409 625 400 622 384 c 2
 605 307 l 2
 600 281 596 271 587 262 c 0
 574 249 557 241 541 241 c 0
 528 241 515 247 508 255 c 1
 501 261 501 267 500 289 c 0
 500 307 496 316 486 325 c 1
 463 341 428 350 385 350 c 0
 248 350 195 241 195 178 c 0
 195 115 246 84 348 84 c 0
 510 84 497 140 545 140 c 0
 568 140 585 123 585 100 c 0
 585 71 543 -9 339 -16 c 1
 333 -42 l 1
 373 -50 392 -71 392 -106 c 0
EndSplineSet
EndChar

StartChar: egrave
Encoding: 232 232 178
Width: 600
Flags: W
HStem: -16 100<222.908 465.529> 172 88<200 494> 350 100<271.715 450.671>
VStem: 74 105<126.885 172> 494 107<260.497 310.852>
DStem2: 363 680 414 512 0.697444 -0.71664<-31.3344 186.633>
LayerCount: 2
Fore
SplineSet
74 166 m 0
 74 313 214 450 387 450 c 0
 517 450 601 373 601 262 c 0
 601 246 599 229 595 211 c 2
 587 172 l 1
 179 172 l 1
 189 112 236 84 324 84 c 0
 420 84 486 117 527 117 c 0
 550 117 565 101 565 78 c 0
 565 45 538 30 520 22 c 0
 470 2 365 -16 294 -16 c 0
 159 -16 74 57 74 166 c 0
200 260 m 1
 494 260 l 1
 490 315 439 350 366 350 c 0
 293 350 227 314 200 260 c 1
288 653 m 0
 288 672 307 696 334 696 c 0
 345 696 349 693 363 680 c 2
 472 569 l 2
 483 558 488 549 488 539 c 0
 488 514 462 496 442 496 c 0
 432 496 426 500 414 512 c 2
 305 624 l 2
 293 635 288 643 288 653 c 0
EndSplineSet
EndChar

StartChar: eacute
Encoding: 233 233 179
Width: 600
Flags: W
HStem: -16 100<222.908 465.529> 172 88<200 494> 350 100<271.715 450.671>
VStem: 74 105<126.885 172> 494 107<260.497 310.852>
DStem2: 530 680 407 512 0.814084 0.580748<-235.915 37.3668>
LayerCount: 2
Fore
SplineSet
74 166 m 0
 74 313 214 450 387 450 c 0
 517 450 601 373 601 262 c 0
 601 246 599 229 595 211 c 2
 587 172 l 1
 179 172 l 1
 189 112 236 84 324 84 c 0
 420 84 486 117 527 117 c 0
 550 117 565 101 565 78 c 0
 565 45 538 30 520 22 c 0
 470 2 365 -16 294 -16 c 0
 159 -16 74 57 74 166 c 0
200 260 m 1
 494 260 l 1
 490 315 439 350 366 350 c 0
 293 350 227 314 200 260 c 1
595 668 m 0
 595 650 585 639 564 624 c 2
 407 512 l 2
 389 500 381 496 371 496 c 0
 353 496 341 509 341 525 c 0
 341 534 344 549 373 569 c 2
 530 680 l 2
 548 693 554 696 565 696 c 0
 583 696 595 684 595 668 c 0
EndSplineSet
EndChar

StartChar: ecircumflex
Encoding: 234 234 180
Width: 600
Flags: W
HStem: -16 100<222.908 465.529> 172 88<200 494> 350 100<271.715 450.671>
VStem: 74 105<126.885 172> 494 107<260.497 310.852>
DStem2: 274 567 300 510 0.811276 0.584663<-43.8281 153.191> 453 696 434 607 0.693743 -0.720222<50.9187 210.622>
LayerCount: 2
Fore
SplineSet
74 166 m 0
 74 313 214 450 387 450 c 0
 517 450 601 373 601 262 c 0
 601 246 599 229 595 211 c 2
 587 172 l 1
 179 172 l 1
 189 112 236 84 324 84 c 0
 420 84 486 117 527 117 c 0
 550 117 565 101 565 78 c 0
 565 45 538 30 520 22 c 0
 470 2 365 -16 294 -16 c 0
 159 -16 74 57 74 166 c 0
200 260 m 1
 494 260 l 1
 490 315 439 350 366 350 c 0
 293 350 227 314 200 260 c 1
594 539 m 0
 594 515 570 497 552 497 c 0
 543 497 534 501 525 510 c 2
 434 607 l 1
 300 510 l 2
 287 501 279 497 270 497 c 0
 253 497 241 510 241 525 c 0
 241 548 259 557 274 567 c 2
 453 696 l 1
 584 560 l 2
 591 553 594 547 594 539 c 0
EndSplineSet
EndChar

StartChar: edieresis
Encoding: 235 235 181
Width: 600
Flags: W
HStem: -16 100<222.908 465.529> 172 88<200 494> 350 100<271.715 450.671> 534 120<288.795 363.999 496.795 571.999>
VStem: 74 105<126.885 172> 265 122<556.892 630> 473 122<556.892 630> 494 107<260.497 310.852>
LayerCount: 2
Fore
SplineSet
74 166 m 0xfe
 74 313 214 450 387 450 c 0
 517 450 601 373 601 262 c 0xfd
 601 246 599 229 595 211 c 2
 587 172 l 1
 179 172 l 1
 189 112 236 84 324 84 c 0
 420 84 486 117 527 117 c 0
 550 117 565 101 565 78 c 0
 565 45 538 30 520 22 c 0
 470 2 365 -16 294 -16 c 0
 159 -16 74 57 74 166 c 0xfe
200 260 m 1
 494 260 l 1
 490 315 439 350 366 350 c 0
 293 350 227 314 200 260 c 1
265 582 m 0
 265 614 297 654 339 654 c 0
 368 654 387 634 387 606 c 0
 387 564 347 534 314 534 c 0
 285 534 265 555 265 582 c 0
473 582 m 0xfe
 473 614 505 654 547 654 c 0
 576 654 595 634 595 606 c 0
 595 564 555 534 522 534 c 0
 493 534 473 555 473 582 c 0xfe
EndSplineSet
EndChar

StartChar: igrave
Encoding: 236 236 182
Width: 600
Flags: W
HStem: 0 100<87.626 271 371 514.665> 7 93<472.935 535.625> 337 100<220.514 322>
DStem2: 249.744 0 349.744 0 0.207912 0.978148<123.025 344.659> 352 680 403 512 0.697444 -0.71664<-31.3344 186.633>
LayerCount: 2
Fore
SplineSet
128 0 m 2xa0
 109 0 72 1 72 39 c 0
 72 50 77 77 106 93 c 0
 116 99 123 100 149 100 c 2
 271 100 l 1
 322 337 l 1
 244 337 l 2
 219 337 207 339 200 347 c 1
 191 354 186 365 186 378 c 0
 186 397 200 420 220 430 c 0
 231 436 239 437 265 437 c 2
 443 437 l 1
 371 100 l 1
 493 100 l 2xa0
 520 100 528 98 536 91 c 0
 545 83 550 72 550 59 c 0
 550 38 534 18 515 7 c 0x60
 508 3 492 0 472 0 c 2
 128 0 l 2xa0
277 653 m 0
 277 672 296 696 323 696 c 0
 334 696 338 693 352 680 c 2
 461 569 l 2
 472 558 477 549 477 539 c 0
 477 514 451 496 431 496 c 0
 421 496 415 500 403 512 c 2
 294 624 l 2
 282 635 277 643 277 653 c 0
EndSplineSet
EndChar

StartChar: iacute
Encoding: 237 237 183
Width: 600
Flags: W
HStem: 0 100<87.626 271 371 514.665> 7 93<472.935 535.625> 337 100<220.514 322>
DStem2: 249.744 0 349.744 0 0.207912 0.978148<123.025 344.659> 509 680 386 512 0.814084 0.580748<-235.915 37.3668>
LayerCount: 2
Fore
SplineSet
128 0 m 2xa0
 109 0 72 1 72 39 c 0
 72 50 77 77 106 93 c 0
 116 99 123 100 149 100 c 2
 271 100 l 1
 322 337 l 1
 244 337 l 2
 219 337 207 339 200 347 c 1
 191 354 186 365 186 378 c 0
 186 397 200 420 220 430 c 0
 231 436 239 437 265 437 c 2
 443 437 l 1
 371 100 l 1
 493 100 l 2xa0
 520 100 528 98 536 91 c 0
 545 83 550 72 550 59 c 0
 550 38 534 18 515 7 c 0x60
 508 3 492 0 472 0 c 2
 128 0 l 2xa0
574 668 m 0
 574 650 564 639 543 624 c 2
 386 512 l 2
 368 500 360 496 350 496 c 0
 332 496 320 509 320 525 c 0
 320 534 323 549 352 569 c 2
 509 680 l 2
 527 693 533 696 544 696 c 0
 562 696 574 684 574 668 c 0
EndSplineSet
EndChar

StartChar: icircumflex
Encoding: 238 238 184
Width: 600
Flags: W
HStem: 0 100<87.626 271 371 514.665> 7 93<472.935 535.625> 337 100<220.514 322>
DStem2: 249.744 0 349.744 0 0.207912 0.978148<123.025 344.659> 253 567 279 510 0.811276 0.584663<-43.8281 153.191> 432 696 413 607 0.693743 -0.720222<50.9187 210.622>
LayerCount: 2
Fore
SplineSet
128 0 m 2xa0
 109 0 72 1 72 39 c 0
 72 50 77 77 106 93 c 0
 116 99 123 100 149 100 c 2
 271 100 l 1
 322 337 l 1
 244 337 l 2
 219 337 207 339 200 347 c 1
 191 354 186 365 186 378 c 0
 186 397 200 420 220 430 c 0
 231 436 239 437 265 437 c 2
 443 437 l 1
 371 100 l 1
 493 100 l 2xa0
 520 100 528 98 536 91 c 0
 545 83 550 72 550 59 c 0
 550 38 534 18 515 7 c 0x60
 508 3 492 0 472 0 c 2
 128 0 l 2xa0
573 539 m 0
 573 515 549 497 531 497 c 0
 522 497 513 501 504 510 c 2
 413 607 l 1
 279 510 l 2
 266 501 258 497 249 497 c 0
 232 497 220 510 220 525 c 0
 220 548 238 557 253 567 c 2
 432 696 l 1
 563 560 l 2
 570 553 573 547 573 539 c 0
EndSplineSet
EndChar

StartChar: idieresis
Encoding: 239 239 185
Width: 600
Flags: W
HStem: 0 100<87.626 271 371 514.665> 7 93<472.935 535.625> 337 100<220.514 322> 534 120<267.795 342.999 475.795 550.999>
VStem: 244 122<556.892 630> 452 122<556.892 630>
DStem2: 249.744 0 349.744 0 0.207912 0.978148<123.025 344.659>
LayerCount: 2
Fore
SplineSet
128 0 m 2xbc
 109 0 72 1 72 39 c 0
 72 50 77 77 106 93 c 0
 116 99 123 100 149 100 c 2
 271 100 l 1
 322 337 l 1
 244 337 l 2
 219 337 207 339 200 347 c 1
 191 354 186 365 186 378 c 0
 186 397 200 420 220 430 c 0
 231 436 239 437 265 437 c 2
 443 437 l 1
 371 100 l 1
 493 100 l 2xbc
 520 100 528 98 536 91 c 0
 545 83 550 72 550 59 c 0
 550 38 534 18 515 7 c 0x7c
 508 3 492 0 472 0 c 2
 128 0 l 2xbc
244 582 m 0
 244 614 276 654 318 654 c 0
 347 654 366 634 366 606 c 0
 366 564 326 534 293 534 c 0
 264 534 244 555 244 582 c 0
452 582 m 0
 452 614 484 654 526 654 c 0
 555 654 574 634 574 606 c 0
 574 564 534 534 501 534 c 0
 472 534 452 555 452 582 c 0
EndSplineSet
EndChar

StartChar: eth
Encoding: 240 240 186
Width: 600
Flags: W
HStem: -16 100<236.598 406.74> 350 93<286.284 454.595> 568 72<295 328.771>
VStem: 82 105<130.021 257.075> 504 113<186.998 363.5>
DStem2: 330 551 300 468 0.902514 0.43066<-98.2958 0 148.319 235.431>
LayerCount: 2
Fore
SplineSet
259 598 m 0
 259 623 288 640 308 640 c 0
 331 640 359 631 400 609 c 1
 426 596 l 1
 511 637 l 2
 525 643 536 646 546 646 c 0
 561 646 571 636 571 621 c 0
 571 601 557 590 541 583 c 2
 491 558 l 1
 577 487 617 411 617 316 c 0
 617 70 422 -16 297 -16 c 0
 171 -16 82 63 82 168 c 0
 82 301 219 443 380 443 c 0
 430 443 459 433 514 396 c 1
 486 445 445 490 403 518 c 1
 300 468 l 2
 279 457 275 456 266 456 c 0
 252 456 243 467 243 483 c 0
 243 509 259 515 274 522 c 2
 330 551 l 1
 317 558 302 564 295 568 c 1
 280 573 l 2
 266 578 259 587 259 598 c 0
318 84 m 0
 404 84 504 145 504 237 c 0
 504 302 452 350 374 350 c 0
 275 350 187 270 187 190 c 0
 187 130 241 84 318 84 c 0
EndSplineSet
EndChar

StartChar: ntilde
Encoding: 241 241 187
Width: 600
Flags: W
HStem: 0 100<48.9944 116 216 243.575 374.279 431 531 547.575> 350 100<336.312 462.898> 417 20G<162 288> 523 69<446.582 529.209> 587 69<305.583 392.15>
VStem: 359 224<16.4642 84.6049> 472 103<253.045 339.093>
DStem2: 94.7443 0 194.744 0 0.207912 0.978148<123.025 334.686> 409.744 0 509.744 0 0.207912 0.978148<123.025 305.134>
LayerCount: 2
Fore
SplineSet
115 375 m 0xc2
 115 400 130 437 194 437 c 2
 288 437 l 1xa2
 278 389 l 1
 335 435 373 450 428 450 c 0
 514 450 575 407 575 324 c 0xc2
 575 311 573 297 570 282 c 2
 531 100 l 1
 565 100 583 86 583 61 c 0
 583 35 564 15 548 7 c 0
 539 2 526 0 505 0 c 2
 416 0 l 2
 377 0 359 13 359 37 c 0xc4
 359 62 373 100 431 100 c 1
 469 278 l 2
 471 286 472 293 472 299 c 0
 472 334 447 350 396 350 c 0
 346 350 319 337 255 282 c 1
 216 100 l 1
 222 100 l 2
 249 100 257 98 265 91 c 0
 274 83 279 72 279 59 c 0
 279 38 263 18 244 7 c 0
 235 2 222 0 201 0 c 2
 89 0 l 2
 68 0 33 1 33 39 c 0
 33 61 47 83 67 93 c 0
 77 98 85 100 110 100 c 2
 116 100 l 1
 167 337 l 1
 133 338 115 351 115 375 c 0xc2
493 592 m 0x90
 528 592 547 653 585 656 c 1x88
 602 654 613 646 613 633 c 0
 613 617 597 597 571 571 c 0
 537 537 510 523 481 523 c 0x90
 427 523 383 587 346 587 c 0
 304 587 286 526 252 526 c 0
 237 526 227 537 227 551 c 0
 227 578 297 656 357 656 c 0x88
 412 656 456 592 493 592 c 0x90
EndSplineSet
EndChar

StartChar: ograve
Encoding: 242 242 188
Width: 600
Flags: W
HStem: -16 100<235.67 408.628> 350 100<282.516 455.268>
VStem: 83 102<131.748 262.789> 507 102<175.617 302.587>
DStem2: 362 680 413 512 0.697444 -0.71664<-31.3344 186.633>
LayerCount: 2
Fore
SplineSet
83 172 m 0
 83 311 222 450 399 450 c 0
 523 450 609 370 609 263 c 0
 609 117 460 -16 297 -16 c 0
 170 -16 83 64 83 172 c 0
318 84 m 0
 426 84 507 165 507 242 c 0
 507 304 453 350 376 350 c 0
 275 350 185 279 185 192 c 0
 185 130 239 84 318 84 c 0
287 653 m 0
 287 672 306 696 333 696 c 0
 344 696 348 693 362 680 c 2
 471 569 l 2
 482 558 487 549 487 539 c 0
 487 514 461 496 441 496 c 0
 431 496 425 500 413 512 c 2
 304 624 l 2
 292 635 287 643 287 653 c 0
EndSplineSet
EndChar

StartChar: oacute
Encoding: 243 243 189
Width: 600
Flags: W
HStem: -16 100<235.67 408.628> 350 100<282.516 455.268>
VStem: 83 102<131.748 262.789> 507 102<175.617 302.587>
DStem2: 529 680 406 512 0.814084 0.580748<-235.915 37.3668>
LayerCount: 2
Fore
SplineSet
83 172 m 0
 83 311 222 450 399 450 c 0
 523 450 609 370 609 263 c 0
 609 117 460 -16 297 -16 c 0
 170 -16 83 64 83 172 c 0
318 84 m 0
 426 84 507 165 507 242 c 0
 507 304 453 350 376 350 c 0
 275 350 185 279 185 192 c 0
 185 130 239 84 318 84 c 0
594 668 m 0
 594 650 584 639 563 624 c 2
 406 512 l 2
 388 500 380 496 370 496 c 0
 352 496 340 509 340 525 c 0
 340 534 343 549 372 569 c 2
 529 680 l 2
 547 693 553 696 564 696 c 0
 582 696 594 684 594 668 c 0
EndSplineSet
EndChar

StartChar: ocircumflex
Encoding: 244 244 190
Width: 600
Flags: W
HStem: -16 100<235.67 408.628> 350 100<282.516 455.268>
VStem: 83 102<131.748 262.789> 507 102<175.617 302.587>
DStem2: 269 567 295 510 0.811276 0.584663<-43.8281 153.191> 448 696 429 607 0.693743 -0.720222<50.9187 210.622>
LayerCount: 2
Fore
SplineSet
83 172 m 0
 83 311 222 450 399 450 c 0
 523 450 609 370 609 263 c 0
 609 117 460 -16 297 -16 c 0
 170 -16 83 64 83 172 c 0
318 84 m 0
 426 84 507 165 507 242 c 0
 507 304 453 350 376 350 c 0
 275 350 185 279 185 192 c 0
 185 130 239 84 318 84 c 0
589 539 m 0
 589 515 565 497 547 497 c 0
 538 497 529 501 520 510 c 2
 429 607 l 1
 295 510 l 2
 282 501 274 497 265 497 c 0
 248 497 236 510 236 525 c 0
 236 548 254 557 269 567 c 2
 448 696 l 1
 579 560 l 2
 586 553 589 547 589 539 c 0
EndSplineSet
EndChar

StartChar: otilde
Encoding: 245 245 191
Width: 600
Flags: W
HStem: -16 100<235.67 408.628> 350 100<282.516 455.268> 523 69<459.908 542.211> 587 69<318.768 405.3>
VStem: 83 102<131.748 262.789> 507 102<175.617 302.587>
LayerCount: 2
Fore
SplineSet
83 172 m 0xcc
 83 311 222 450 399 450 c 0
 523 450 609 370 609 263 c 0
 609 117 460 -16 297 -16 c 0
 170 -16 83 64 83 172 c 0xcc
318 84 m 0
 426 84 507 165 507 242 c 0
 507 304 453 350 376 350 c 0
 275 350 185 279 185 192 c 0
 185 130 239 84 318 84 c 0
625 632 m 0
 625 611 558 523 494 523 c 0xec
 440 523 396 587 359 587 c 0
 317 587 299 526 265 526 c 0
 250 526 240 537 240 551 c 0
 240 580 310 656 371 656 c 0xdc
 424 656 471 592 506 592 c 0xec
 541 592 564 656 599 656 c 0xdc
 614 656 625 645 625 632 c 0
EndSplineSet
EndChar

StartChar: odieresis
Encoding: 246 246 192
Width: 600
Flags: W
HStem: -16 100<235.67 408.628> 350 100<282.516 455.268> 534 120<284.795 359.999 492.795 567.999>
VStem: 83 102<131.748 262.789> 261 122<556.892 630> 469 122<556.892 630> 507 102<175.617 302.587>
LayerCount: 2
Fore
SplineSet
83 172 m 0xfa
 83 311 222 450 399 450 c 0
 523 450 609 370 609 263 c 0
 609 117 460 -16 297 -16 c 0
 170 -16 83 64 83 172 c 0xfa
318 84 m 0
 426 84 507 165 507 242 c 0
 507 304 453 350 376 350 c 0
 275 350 185 279 185 192 c 0
 185 130 239 84 318 84 c 0
261 582 m 0
 261 614 293 654 335 654 c 0
 364 654 383 634 383 606 c 0
 383 564 343 534 310 534 c 0
 281 534 261 555 261 582 c 0
469 582 m 0xfc
 469 614 501 654 543 654 c 0
 572 654 591 634 591 606 c 0
 591 564 551 534 518 534 c 0
 489 534 469 555 469 582 c 0xfc
EndSplineSet
EndChar

StartChar: divide
Encoding: 247 247 193
Width: 600
Flags: W
HStem: 28 132<271.464 368.761> 230 100<135.467 583.576> 400 132<350.464 447.761>
VStem: 243 154<56.7388 131.261> 322 154<428.49 503.261>
CounterMasks: 1 e0
LayerCount: 2
Fore
SplineSet
178 330 m 2xe0
 562 330 l 2
 589 330 597 328 605 321 c 0
 614 313 619 302 619 289 c 0
 619 270 604 247 584 237 c 0
 575 232 563 230 541 230 c 2
 157 230 l 2
 133 230 121 232 114 240 c 1
 106 247 101 258 101 270 c 0
 101 291 115 312 135 323 c 0
 145 329 153 330 178 330 c 2xe0
243 80 m 0xf0
 243 114 272 160 334 160 c 0
 374 160 397 140 397 108 c 0
 397 74 368 28 306 28 c 0
 267 28 243 49 243 80 c 0xf0
322 452 m 0xe8
 322 486 351 532 413 532 c 0
 453 532 476 513 476 481 c 0
 476 445 447 400 385 400 c 0
 346 400 322 421 322 452 c 0xe8
EndSplineSet
EndChar

StartChar: oslash
Encoding: 248 248 194
Width: 600
Flags: W
HStem: -16 100<266.476 406.864> 350 100<281.393 428.626>
VStem: 83 103<145.587 262.666> 506 103<171.994 285.076>
DStem2: 111 72 107 -44 0.762726 0.646722<-133.214 4.67258 130.51 417.924 540.248 668.928>
LayerCount: 2
Fore
SplineSet
83 174 m 0
 83 309 224 450 394 450 c 0
 438 450 491 437 521 419 c 1
 579 468 l 2
 605 489 614 494 631 494 c 0
 653 494 669 478 669 457 c 0
 669 429 647 413 633 402 c 2
 582 359 l 1
 600 329 609 295 609 261 c 0
 609 126 469 -16 297 -16 c 0
 252 -16 212 -6 175 14 c 1
 107 -44 l 2
 81 -65 72 -70 56 -70 c 0
 32 -70 17 -54 17 -32 c 0
 17 -10 30 3 53 22 c 2
 111 72 l 1
 93 102 83 138 83 174 c 0
317 84 m 0
 427 84 506 166 506 240 c 0
 506 256 503 271 497 286 c 1
 266 91 l 1
 283 86 297 84 317 84 c 0
374 350 m 0
 265 350 186 269 186 194 c 0
 186 177 190 161 198 145 c 1
 430 342 l 1
 410 347 393 350 374 350 c 0
EndSplineSet
EndChar

StartChar: ugrave
Encoding: 249 249 195
Width: 600
Flags: W
HStem: -13 100<234.771 360.744> 0 21G<410 515.5> 337 100<128.513 167 424.514 482> 337 93<104.654 167>
VStem: 123 103<98.0718 184.795>
DStem2: 92.0779 -13 192.44 -13 0.207912 0.978148<174.887 357.929> 407.29 -13 506.981 -13 0.207912 0.978148<146.212 357.885> 360 680 411 512 0.697444 -0.71664<-31.3344 186.633>
LayerCount: 2
Fore
SplineSet
270 -13 m 0x88
 182 -13 123 31 123 113 c 0
 123 126 125 141 128 156 c 2
 167 337 l 1
 136 337 l 2xa8
 111 337 94 354 94 377 c 0
 94 397 108 419 128 430 c 0x18
 139 436 147 437 172 437 c 2
 288 437 l 1
 229 159 l 2
 227 151 226 144 226 137 c 0
 226 103 251 87 301 87 c 0
 351 87 379 100 443 155 c 1
 482 337 l 1
 447 337 l 2xa8
 422 337 411 339 404 347 c 1
 395 354 390 366 390 378 c 0
 390 397 404 420 424 430 c 0x18
 435 436 444 437 468 437 c 2
 603 437 l 1
 531 100 l 1
 565 100 583 86 583 61 c 0
 583 35 565 16 548 7 c 0
 539 2 526 0 505 0 c 2
 410 0 l 1x68
 420 48 l 1
 360 1 325 -13 270 -13 c 0x88
285 653 m 0
 285 672 304 696 331 696 c 0
 342 696 346 693 360 680 c 2
 469 569 l 2
 480 558 485 549 485 539 c 0
 485 514 459 496 439 496 c 0
 429 496 423 500 411 512 c 2
 302 624 l 2
 290 635 285 643 285 653 c 0
EndSplineSet
EndChar

StartChar: uacute
Encoding: 250 250 196
Width: 600
Flags: W
HStem: -13 100<234.771 360.744> 0 21G<410 515.5> 337 100<128.513 167 424.514 482> 337 93<104.654 167>
VStem: 123 103<98.0718 184.795>
DStem2: 92.0779 -13 192.44 -13 0.207912 0.978148<174.887 357.929> 407.29 -13 506.981 -13 0.207912 0.978148<146.212 357.885> 517 680 394 512 0.814084 0.580748<-235.915 37.3668>
LayerCount: 2
Fore
SplineSet
270 -13 m 0x88
 182 -13 123 31 123 113 c 0
 123 126 125 141 128 156 c 2
 167 337 l 1
 136 337 l 2xa8
 111 337 94 354 94 377 c 0
 94 397 108 419 128 430 c 0x18
 139 436 147 437 172 437 c 2
 288 437 l 1
 229 159 l 2
 227 151 226 144 226 137 c 0
 226 103 251 87 301 87 c 0
 351 87 379 100 443 155 c 1
 482 337 l 1
 447 337 l 2xa8
 422 337 411 339 404 347 c 1
 395 354 390 366 390 378 c 0
 390 397 404 420 424 430 c 0x18
 435 436 444 437 468 437 c 2
 603 437 l 1
 531 100 l 1
 565 100 583 86 583 61 c 0
 583 35 565 16 548 7 c 0
 539 2 526 0 505 0 c 2
 410 0 l 1x68
 420 48 l 1
 360 1 325 -13 270 -13 c 0x88
582 668 m 0
 582 650 572 639 551 624 c 2
 394 512 l 2
 376 500 368 496 358 496 c 0
 340 496 328 509 328 525 c 0
 328 534 331 549 360 569 c 2
 517 680 l 2
 535 693 541 696 552 696 c 0
 570 696 582 684 582 668 c 0
EndSplineSet
EndChar

StartChar: ucircumflex
Encoding: 251 251 197
Width: 600
Flags: W
HStem: -13 100<234.771 360.744> 0 21G<410 515.5> 337 100<128.513 167 424.514 482> 337 93<104.654 167>
VStem: 123 103<98.0718 184.795>
DStem2: 92.0779 -13 192.44 -13 0.207912 0.978148<174.887 357.929> 265 567 291 510 0.811276 0.584663<-43.8281 153.191> 407.29 -13 506.981 -13 0.207912 0.978148<146.212 357.885> 444 696 425 607 0.693743 -0.720222<50.9187 210.622>
LayerCount: 2
Fore
SplineSet
270 -13 m 0x88
 182 -13 123 31 123 113 c 0
 123 126 125 141 128 156 c 2
 167 337 l 1
 136 337 l 2xa8
 111 337 94 354 94 377 c 0
 94 397 108 419 128 430 c 0x18
 139 436 147 437 172 437 c 2
 288 437 l 1
 229 159 l 2
 227 151 226 144 226 137 c 0
 226 103 251 87 301 87 c 0
 351 87 379 100 443 155 c 1
 482 337 l 1
 447 337 l 2xa8
 422 337 411 339 404 347 c 1
 395 354 390 366 390 378 c 0
 390 397 404 420 424 430 c 0x18
 435 436 444 437 468 437 c 2
 603 437 l 1
 531 100 l 1
 565 100 583 86 583 61 c 0
 583 35 565 16 548 7 c 0
 539 2 526 0 505 0 c 2
 410 0 l 1x68
 420 48 l 1
 360 1 325 -13 270 -13 c 0x88
585 539 m 0
 585 515 561 497 543 497 c 0
 534 497 525 501 516 510 c 2
 425 607 l 1
 291 510 l 2
 278 501 270 497 261 497 c 0
 244 497 232 510 232 525 c 0
 232 548 250 557 265 567 c 2
 444 696 l 1
 575 560 l 2
 582 553 585 547 585 539 c 0
EndSplineSet
EndChar

StartChar: udieresis
Encoding: 252 252 198
Width: 600
Flags: W
HStem: -13 100<234.771 360.744> 0 21G<410 515.5> 337 100<128.513 167 424.514 482> 337 93<104.654 167> 534 120<279.795 354.999 487.795 562.999>
VStem: 123 103<98.0718 184.795> 256 122<556.892 630> 464 122<556.892 630>
DStem2: 92.0779 -13 192.44 -13 0.207912 0.978148<174.887 357.929> 407.29 -13 506.981 -13 0.207912 0.978148<146.212 357.885>
LayerCount: 2
Fore
SplineSet
270 -13 m 0x8f
 182 -13 123 31 123 113 c 0
 123 126 125 141 128 156 c 2
 167 337 l 1
 136 337 l 2xaf
 111 337 94 354 94 377 c 0
 94 397 108 419 128 430 c 0x1f
 139 436 147 437 172 437 c 2
 288 437 l 1
 229 159 l 2
 227 151 226 144 226 137 c 0
 226 103 251 87 301 87 c 0
 351 87 379 100 443 155 c 1
 482 337 l 1
 447 337 l 2xaf
 422 337 411 339 404 347 c 1
 395 354 390 366 390 378 c 0
 390 397 404 420 424 430 c 0x1f
 435 436 444 437 468 437 c 2
 603 437 l 1
 531 100 l 1
 565 100 583 86 583 61 c 0
 583 35 565 16 548 7 c 0
 539 2 526 0 505 0 c 2
 410 0 l 1x6f
 420 48 l 1
 360 1 325 -13 270 -13 c 0x8f
256 582 m 0
 256 614 288 654 330 654 c 0
 359 654 378 634 378 606 c 0
 378 564 338 534 305 534 c 0
 276 534 256 555 256 582 c 0
464 582 m 0
 464 614 496 654 538 654 c 0
 567 654 586 634 586 606 c 0
 586 564 546 534 513 534 c 0
 484 534 464 555 464 582 c 0
EndSplineSet
EndChar

StartChar: yacute
Encoding: 253 253 199
Width: 600
Flags: W
HStem: -205 100<21.4688 165 275 301.575> 337 100<118.711 142 256 310.652 450.875 490 599 646.443>
VStem: 102 224<352.46 419.497>
DStem2: 256 337 142 337 0.289451 -0.957193<0 232.558> 165 -105 275 -105 0.59239 0.805651<65.163 133.217 269.443 548.625> 551 680 428 512 0.814084 0.580748<-235.915 37.3668>
LayerCount: 2
Fore
SplineSet
435 375 m 0
 435 400 451 437 514 437 c 2
 606 437 l 2
 632 437 641 435 649 428 c 0
 658 420 662 410 662 399 c 0
 662 385 654 342 599 337 c 1
 275 -105 l 1
 280 -105 l 2
 305 -105 336 -105 336 -145 c 0
 336 -166 321 -187 302 -198 c 0
 293 -203 280 -205 258 -205 c 2
 43 -205 l 2
 18 -205 8 -203 1 -195 c 1
 -8 -188 -13 -177 -13 -165 c 0
 -13 -145 1 -123 21 -112 c 0
 31 -107 41 -105 65 -105 c 2
 165 -105 l 1
 243 3 l 1
 142 337 l 1
 116 340 102 354 102 375 c 0
 102 400 120 437 180 437 c 2
 270 437 l 2
 293 437 326 437 326 398 c 0
 326 374 310 338 256 337 c 1
 322 114 l 1
 490 337 l 1
 454 337 435 351 435 375 c 0
616 668 m 0
 616 650 606 639 585 624 c 2
 428 512 l 2
 410 500 402 496 392 496 c 0
 374 496 362 509 362 525 c 0
 362 534 365 549 394 569 c 2
 551 680 l 2
 569 693 575 696 586 696 c 0
 604 696 616 684 616 668 c 0
EndSplineSet
EndChar

StartChar: thorn
Encoding: 254 254 200
Width: 600
Flags: W
HStem: -205 100<-7.53119 52 152 231.575> 10 100<262.453 436.555> 350 100<318.296 479.658> 524 100<147.469 185>
VStem: 522 102<186.039 310.098>
DStem2: 30.7439 -205.002 130.744 -205.002 0.207912 0.978148<123.027 297.776 630.998 745.143>
LayerCount: 2
Fore
SplineSet
624 272 m 0
 624 136 498 10 331 10 c 0
 272 10 232 26 188 66 c 1
 152 -105 l 1
 210 -105 l 2
 235 -105 266 -105 266 -144 c 0
 266 -170 248 -189 232 -198 c 0
 223 -203 210 -205 188 -205 c 2
 14 -205 l 2
 -5 -205 -42 -206 -42 -165 c 0
 -42 -144 -27 -122 -8 -112 c 0
 2 -106 12 -105 36 -105 c 2
 52 -105 l 1
 185 524 l 1
 169 524 l 2
 144 524 113 524 113 564 c 0
 113 585 128 607 147 617 c 0
 157 622 167 624 191 624 c 2
 307 624 l 1
 257 392 l 1
 315 434 361 450 424 450 c 0
 545 450 624 377 624 272 c 0
522 250 m 0
 522 288 500 350 397 350 c 0
 275 350 220 263 220 207 c 0
 220 149 268 110 346 110 c 0
 456 110 522 187 522 250 c 0
EndSplineSet
EndChar

StartChar: ydieresis
Encoding: 255 255 201
Width: 600
Flags: W
HStem: -205 100<21.4688 165 275 301.575> 337 100<118.711 142 256 310.652 450.875 490 599 646.443> 534 120<284.795 359.999 492.795 567.999>
VStem: 102 224<352.46 419.497> 261 122<556.892 630> 469 122<556.892 630>
DStem2: 256 337 142 337 0.289451 -0.957193<0 232.558> 165 -105 275 -105 0.59239 0.805651<65.163 133.217 269.443 548.625>
LayerCount: 2
Fore
SplineSet
435 375 m 0xf4
 435 400 451 437 514 437 c 2
 606 437 l 2
 632 437 641 435 649 428 c 0
 658 420 662 410 662 399 c 0
 662 385 654 342 599 337 c 1
 275 -105 l 1
 280 -105 l 2
 305 -105 336 -105 336 -145 c 0
 336 -166 321 -187 302 -198 c 0
 293 -203 280 -205 258 -205 c 2
 43 -205 l 2
 18 -205 8 -203 1 -195 c 1
 -8 -188 -13 -177 -13 -165 c 0
 -13 -145 1 -123 21 -112 c 0
 31 -107 41 -105 65 -105 c 2
 165 -105 l 1
 243 3 l 1
 142 337 l 1
 116 340 102 354 102 375 c 0
 102 400 120 437 180 437 c 2
 270 437 l 2
 293 437 326 437 326 398 c 0
 326 374 310 338 256 337 c 1
 322 114 l 1
 490 337 l 1
 454 337 435 351 435 375 c 0xf4
261 582 m 0xec
 261 614 293 654 335 654 c 0
 364 654 383 634 383 606 c 0
 383 564 343 534 310 534 c 0
 281 534 261 555 261 582 c 0xec
469 582 m 0
 469 614 501 654 543 654 c 0
 572 654 591 634 591 606 c 0
 591 564 551 534 518 534 c 0
 489 534 469 555 469 582 c 0
EndSplineSet
EndChar

StartChar: uni0E01
Encoding: 3585 3585 202
Width: 600
Flags: W
HStem: 0 21G<110 214.257 422 526.242> 363 82<282.117 455.852>
VStem: 481 100<232.678 339.623>
DStem2: 110 0 210 0 0.207912 0.978148<20.7912 256.946> 422 0 522 0 0.207912 0.978148<20.7912 293.606>
LayerCount: 2
Fore
SplineSet
411 445 m 0
 522 445 581 375 581 297 c 0
 581 286 580 275 578 264 c 10
 522 0 l 25
 422 0 l 25
 478 264 l 18
 480 272 481 280 481 288 c 0
 481 339 438 363 394 363 c 8
 330 363 270 354 227 311 c 1
 350 311 l 1
 340 264 l 1
 275 251 258 228 253 202 c 10
 210 0 l 25
 110 0 l 25
 153 202 l 18
 158 227 189 257 217 264 c 1
 136 264 l 1
 146 311 l 1
 217 419 316 445 411 445 c 0
EndSplineSet
Comment: "Thai Gogai" 
EndChar

StartChar: uni0E02
Encoding: 3586 3586 203
Width: 600
Flags: W
HStem: 0 102<202 235 335 445> 263 55<262.625 333.229> 398 54<270.787 367.5> 425 20G<513.743 618>
VStem: 212 49<320.213 388.046> 405 73<295.259 357.882>
DStem2: 423.319 0 523 0 0.207912 0.978148<104.279 454.961>
LayerCount: 2
Fore
SplineSet
294 318 m 0xec
 321 318 343 343 343 367 c 0
 343 385 330 398 311 398 c 0
 289 398 261 377 261 350 c 0
 261 332 275 318 294 318 c 0xec
212 333 m 0
 212 401 276 452 351 452 c 0xec
 384 452 409 441 437 420 c 8
 467 398 478 372 478 335 c 0
 478 270 368 257 348 164 c 2
 335 102 l 25
 445 102 l 25
 518 445 l 25
 618 445 l 25xdc
 523 0 l 17
 180 0 l 9
 202 102 l 25
 235 102 l 25
 251 179 l 18
 262 232 298 238 329 259 c 9
 354 281 405 295 405 328 c 0
 405 342 392 358 392 358 c 1
 392 358 374 263 269 263 c 0
 234 263 212 294 212 333 c 0
EndSplineSet
EndChar

StartChar: uni0E03
Encoding: 3587 3587 204
Width: 600
Flags: W
HStem: 0 102<183 243 343 440> 204 50<173.9 247.42> 334 112<211.494 292.793>
VStem: 130 43<256.355 321.137> 255 47<261.806 332.262> 412 71<302.385 372>
DStem2: 418.319 0 518 0 0.207912 0.978148<104.279 454.961>
LayerCount: 2
Fore
SplineSet
207 254 m 0
 232 254 255 274 255 300 c 0
 255 319 243 334 224 334 c 0
 196 334 173 303 173 283 c 0
 173 265 188 254 207 254 c 0
302 306 m 0
 302 255 241 204 196 204 c 0
 153 204 130 241 130 288 c 0
 130 315 137 373 201 410 c 0
 227 425 265 446 302 446 c 0
 349 446 370 399 373 399 c 1
 398 446 422 447 430 447 c 0
 451 447 471 433 474 424 c 0
 480 405 483 392 483 377 c 0
 483 266 370 231 353 152 c 1
 343 102 l 25
 440 102 l 25
 513 445 l 25
 613 445 l 25
 518 0 l 17
 161 0 l 9
 183 102 l 25
 243 102 l 25
 256 163 l 18
 271 236 325 245 371 274 c 0
 405 295 412 279 412 333 c 0
 412 353 411 372 411 372 c 1
 373 300 l 1
 336 300 l 1
 321 372 l 1
 282 358 l 1
 282 358 302 337 302 306 c 0
EndSplineSet
EndChar

StartChar: uni0E04
Encoding: 3588 3588 205
Width: 600
Flags: W
HStem: 0 21G<55 170.185 420 524.218> 138 48<300.249 370.08> 266 46<308.677 378.691> 363 82<274.273 443.595>
VStem: 381 48<197.693 262.882> 479 103<243.952 330.482>
DStem2: 54.547 0 155.392 0 0.207912 0.978148<168.184 355.939> 420 0 520 0 0.207912 0.978148<20.7912 293.789>
LayerCount: 2
Fore
SplineSet
328 186 m 0
 349 186 381 206 381 233 c 0
 381 252 364 266 345 266 c 0
 317 266 299 238 299 216 c 0
 299 199 310 186 328 186 c 0
429 243 m 0
 429 192 377 138 317 138 c 16
 298 138 283 155 278 162 c 9
 155 0 l 25
 55 0 l 25
 113 275 l 18
 137 386 271 445 383 445 c 16
 480 445 582 405 582 309 c 0
 582 298 581 287 578 275 c 10
 520 0 l 25
 420 0 l 25
 478 275 l 18
 479 279 479 284 479 288 c 0
 479 333 422 363 365 363 c 8
 303 363 225 330 213 275 c 10
 186 144 l 17
 246 222 l 1
 264 243 297 312 354 312 c 0
 397 312 429 283 429 243 c 0
EndSplineSet
EndChar

StartChar: uni0E05
Encoding: 3589 3589 206
Width: 600
Flags: W
HStem: 0 21G<55 172.481 420 524.218> 111 48<294.316 364.821> 239 43<301.927 372.071> 358 84<249.824 299 445 470.588>
VStem: 375 48<170.559 235.588> 481 102<244.444 346.02>
DStem2: 54.547 0 155.392 0 0.207912 0.978148<168.184 369.743> 420 0 520 0 0.207912 0.978148<20.7912 306.738>
LayerCount: 2
Fore
SplineSet
322 159 m 0
 344 159 375 178 375 206 c 0
 375 225 358 239 339 239 c 0
 311 239 293 212 293 190 c 0
 293 172 303 159 322 159 c 0
423 216 m 0
 423 160 366 111 312 111 c 16
 293 111 277 128 273 135 c 9
 155 0 l 25
 55 0 l 25
 113 275 l 18
 149 444 317 442 317 442 c 1
 369 383 l 1
 445 442 l 1
 446 442 l 2
 455 442 583 440 583 320 c 0
 583 307 582 292 578 275 c 10
 520 0 l 25
 420 0 l 25
 478 275 l 18
 480 285 481 293 481 301 c 0
 481 359 427 358 427 358 c 1
 381 316 l 1
 329 316 l 1
 299 358 l 1
 299 358 231 356 213 275 c 9
 186 144 l 17
 241 204 l 1
 266 227 292 282 349 282 c 0
 391 282 423 255 423 216 c 0
EndSplineSet
EndChar

StartChar: uni0E06
Encoding: 3590 3590 207
Width: 600
Flags: W
HStem: -8 62<184.937 255.636> 0 21G<347.271 525.27> 134 64<193.091 263.01> 204 50<174.866 247.102> 426 19G<281.5 325.5 426 440.5 511.735 616>
VStem: 128 45<255.895 320.993> 133 50<55.8665 124.709> 255 47<262.358 332.648> 416 67<296.4 384.5>
DStem2: 419.469 -8 519.3 -8 0.207912 0.978148<108.368 463.171>
LayerCount: 2
Fore
SplineSet
207 254 m 0x3d80
 232 254 255 275 255 301 c 0
 255 319 243 334 224 334 c 0
 199 334 173 308 173 284 c 0
 173 266 188 254 207 254 c 0x3d80
215 54 m 0xbb80
 237 54 265 75 265 102 c 0
 265 120 251 134 232 134 c 0
 205 134 183 109 183 85 c 0
 183 67 196 54 215 54 c 0xbb80
133 63 m 0
 133 159 204 198 246 198 c 0
 276 198 306 186 306 186 c 9
 350 235 416 265 416 334 c 0
 416 354 411 372 411 372 c 1
 373 300 l 1
 336 300 l 1
 321 372 l 1
 282 358 l 1
 282 358 302 338 302 307 c 0
 302 256 241 204 196 204 c 0
 153 204 128 242 128 289 c 0
 128 402 261 446 302 446 c 0
 349 446 370 399 373 399 c 1
 398 446 422 447 430 447 c 0
 451 447 471 433 474 424 c 0
 480 405 483 392 483 377 c 0
 483 279 362 157 361 154 c 1
 442 98 l 9
 516 445 l 25
 616 445 l 25
 521 0 l 17
 371 0 l 1x7d80
 301 59 l 1
 301 59 293 20 274 8 c 17
 254 -3 235 -8 217 -8 c 0
 182 -8 133 15 133 63 c 0
EndSplineSet
EndChar

StartChar: uni0E07
Encoding: 3591 3591 208
Width: 600
Flags: W
HStem: 0 21G<341.148 519.223> 256 46<444.554 467> 382 63<453.733 522.852>
VStem: 384 59<304.193 370.932> 525 64<312.346 379.935>
DStem2: 265 347 168 270 0.569368 -0.822083<8.07163 296.559> 412.894 0 515 0 0.207912 0.978148<106.323 261.655>
LayerCount: 2
Fore
SplineSet
477 302 m 0
 502 302 525 324 525 350 c 0
 525 368 513 382 494 382 c 0
 468 382 443 357 443 334 c 0
 443 315 457 302 477 302 c 0
384 324 m 0
 384 377 440 445 508 445 c 16
 552 445 589 409 589 362 c 0
 589 355 589 348 587 341 c 10
 515 0 l 25
 355 0 l 25
 168 270 l 25
 265 347 l 25
 435 104 l 25
 467 256 l 17
 466 256 l 2
 463 256 456 252 447 252 c 0
 431 252 384 280 384 324 c 0
EndSplineSet
EndChar

StartChar: uni0E08
Encoding: 3592 3592 209
Width: 600
Flags: W
HStem: 0 21G<414.61 529.238> 120 52<324.821 387.471> 252 48<333.062 403.681> 363 82<307.278 469.992>
VStem: 271 52<174.138 240.879> 490 101<210.562 342.746>
DStem2: 424.778 0 524.808 0 0.207912 0.978148<164.597 314.693>
LayerCount: 2
Fore
SplineSet
357 172 m 0
 384 172 405 198 405 221 c 0
 405 239 393 252 374 252 c 0
 352 252 323 232 323 204 c 0
 323 186 338 172 357 172 c 0
271 186 m 0
 271 266 356 300 384 300 c 8
 410 300 425 294 441 276 c 24
 453 261 449 245 454 225 c 25
 459 161 l 25
 489 300 l 18
 490 303 490 305 490 308 c 0
 490 343 440 363 397 363 c 8
 343 363 313 348 257 311 c 9
 215 370 l 17
 289 432 335 445 415 445 c 0
 530 445 591 380 591 320 c 0
 591 314 590 308 589 302 c 10
 525 0 l 25
 420 0 l 25
 382 141 l 17
 371 126 356 120 340 120 c 0
 320 120 271 132 271 186 c 0
EndSplineSet
EndChar

StartChar: uni0E09
Encoding: 3593 3593 210
Width: 600
Flags: W
HStem: 0 58<445.5 514.275> 148 35<204 253.5> 263 31<223.517 284.379> 364 81<252.117 406.364>
VStem: 166 41<185.794 251.36> 289 48<191.9 261.686> 422 103<206.875 346.829> 520 57<62.6452 118.399>
AnchorPoint: "AboveBase" 564 500 basechar 0
LayerCount: 2
Fore
SplineSet
241 183 m 0xfc
 266 183 289 205 289 231 c 0
 289 249 277 263 258 263 c 0
 232 263 207 238 207 215 c 0
 207 196 221 183 241 183 c 0xfc
486 120 m 0
 465 120 445 113 445 83 c 0
 445 64 457 58 484 58 c 0
 506 58 520 85 520 97 c 0xfd
 520 111 505 120 486 120 c 0
166 197 m 0
 166 259 221 294 264 294 c 16
 295 294 337 264 337 231 c 0
 337 228 337 225 336 222 c 2
 314 117 l 1
 394 166 l 9
 420 285 l 18
 422 293 422 300 422 307 c 0
 422 354 368 364 329 364 c 0
 270 364 216 323 171 288 c 9
 131 352 l 17
 197 413 272 445 362 445 c 16
 461 445 525 407 525 325 c 0xfe
 525 313 523 299 520 285 c 10
 494 163 l 17
 501 165 512 167 522 167 c 0
 560 167 577 125 577 100 c 0
 577 65 554 0 451 0 c 24
 414 0 386 56 386 56 c 1
 283 0 l 9
 184 0 l 25
 216 150 l 17
 216 150 214 148 209 148 c 0
 199 148 166 162 166 197 c 0
EndSplineSet
EndChar

StartChar: uni0E0A
Encoding: 3594 3594 211
Width: 600
Flags: W
HStem: 0 102<202 235 335 445> 266 52<262.729 333.772> 398 54<277.38 371.5>
VStem: 213 48<320.517 387.051> 406 72<295.947 357.826> 479 102<230.125 392.688>
DStem2: 423.319 0 525 0 0.207912 0.978148<104.279 290.036 364.406 510.068>
LayerCount: 2
Fore
SplineSet
294 318 m 0
 321 318 343 343 343 367 c 0
 343 385 330 398 311 398 c 0
 289 398 261 377 261 350 c 0
 261 332 275 318 294 318 c 0
213 340 m 0
 213 408 299 452 356 452 c 0
 387 452 412 440 437 420 c 8
 465 397 478 372 478 335 c 1
 462 257 368 257 348 164 c 2
 335 102 l 25
 445 102 l 17
 479 263 l 1
 479 337 l 1
 501 391 518 445 529 499 c 9
 629 499 l 17
 615 434 600 376 581 337 c 1
 581 263 l 1
 525 0 l 1
 180 0 l 9
 202 102 l 25
 235 102 l 25
 251 179 l 18
 262 232 298 238 329 259 c 9
 352 278 406 298 406 330 c 0
 406 343 392 358 392 358 c 1
 392 358 369 266 283 266 c 0
 246 266 213 298 213 340 c 0
EndSplineSet
EndChar

StartChar: uni0E0B
Encoding: 3595 3595 212
Width: 600
Flags: W
HStem: 0 102<183 243 343 440> 204 50<175.02 246.33> 334 112<211 317.25>
VStem: 130 43<256.182 323.174> 255 47<262.424 332.706> 478 100<263.2 398.45> 479 4<282 342>
DStem2: 418.319 0 518 0 0.207912 0.978148<104.279 512.024>
LayerCount: 2
Fore
SplineSet
207 254 m 0xf8
 232 254 255 276 255 302 c 0
 255 320 243 334 224 334 c 0
 198 334 173 309 173 286 c 0
 173 267 187 254 207 254 c 0xf8
302 309 m 0
 302 254 239 204 196 204 c 0
 153 204 130 242 130 290 c 0
 130 314 138 373 201 410 c 0
 227 425 265 446 302 446 c 0
 349 446 370 399 373 399 c 1
 398 446 422 447 430 447 c 0
 451 447 471 433 474 424 c 0
 480 405 483 392 483 377 c 0xfa
 483 265 373 240 355 162 c 1
 343 102 l 25
 440 102 l 17
 478 282 l 1xfc
 479 342 l 1xfa
 499 395 513 448 524 501 c 9
 624 501 l 17
 613 447 600 394 581 342 c 1
 578 282 l 1xfc
 518 0 l 1
 161 0 l 9
 183 102 l 25
 243 102 l 25
 255 162 l 17
 271 235 325 245 371 274 c 0
 405 295 412 279 412 333 c 0
 412 353 411 372 411 372 c 1
 373 300 l 1
 336 300 l 1
 321 372 l 1
 282 358 l 1
 282 358 302 339 302 309 c 0
EndSplineSet
EndChar

StartChar: uni0E0C
Encoding: 3596 3596 213
Width: 600
Flags: W
HStem: 0 50<115.088 185.174 276.553 327.779> 276 41<215.342 277> 363 84<195.613 335.677>
VStem: 62 51<52.082 119.301> 195 40<60.6853 143.5> 239 37<47.401 107.329> 341 102<283.297 354.385>
DStem2: 271.928 -3 372.204 -3 0.207912 0.978148<183.401 333.099> 418.556 -3 518.362 -3 0.207912 0.978148<117.569 458.054>
LayerCount: 2
Fore
SplineSet
146 50 m 0
 173 50 195 75 195 99 c 0
 195 117 182 130 163 130 c 0
 141 130 113 109 113 82 c 0
 113 64 127 50 146 50 c 0
310 112 m 0
 295 112 276 98 276 76 c 0
 276 58 291 46 297 46 c 0
 317 46 330 66 330 83 c 0
 330 92 327 112 310 112 c 0
235 128 m 0
 235 79 199 0 141 0 c 0
 97 0 62 27 62 72 c 0
 62 78 62 85 64 93 c 10
 93 230 l 18
 98 253 128 271 154 276 c 1
 73 276 l 1
 81 317 l 1
 145 421 206 447 286 447 c 0
 370 447 443 415 443 341 c 0
 443 332 442 323 440 313 c 2
 406 156 l 1
 443 112 l 1
 514 445 l 1
 614 445 l 1
 519 0 l 1
 412 0 l 1
 373 50 l 1
 361 17 346 -3 311 -3 c 0
 292 -3 239 3 239 58 c 0
 239 84 245 136 278 155 c 0
 300 168 307 162 307 162 c 1
 340 313 l 2
 341 317 341 320 341 323 c 0
 341 359 297 363 268 363 c 8
 229 363 203 356 169 317 c 1
 285 317 l 1
 277 276 l 1
 224 264 197 251 193 230 c 2
 178 162 l 1
 178 162 187 166 198 166 c 0
 209 166 235 159 235 128 c 0
EndSplineSet
EndChar

StartChar: uni0E0D
Encoding: 3597 3597 214
Width: 600
Flags: W
HStem: -198 58<258.541 346> -67 51<267.649 332.556> 0 102<407 458> 0 43<152.046 221.819> 123 30<186.5 226.844> 363 82<214.788 340.319>
VStem: 89 61<44.5063 113.66> 219 39<-137.327 -78.3842> 232 44<52.4391 120.957> 334 48<-105.248 -50> 352 102<282.426 347.307>
DStem2: 241.914 -198 343.233 -198 0.207912 0.978148<327.768 528.544> 394.233 -198 493.914 -198 0.207912 0.978148<306.702 657.384>
LayerCount: 2
Fore
SplineSet
182 43 m 0xde80
 203 43 232 62 232 90 c 0
 232 109 218 123 199 123 c 0
 174 123 150 100 150 74 c 0
 150 56 163 43 182 43 c 0xde80
289 -140 m 0
 310 -140 334 -123 334 -97 c 0
 334 -81 322 -67 305 -67 c 0
 282 -67 258 -92 258 -113 c 0xcf40
 258 -129 271 -140 289 -140 c 0
219 -120 m 0
 219 -81 258 -16 316 -16 c 16
 347 -16 382 -35 382 -65 c 0
 382 -77 377 -91 374 -106 c 1
 427 -106 474 -51 502 -30 c 9
 549 -86 l 17
 499 -138 469 -161 408 -183 c 16
 380 -194 357 -198 335 -198 c 0
 286 -198 219 -173 219 -120 c 0
276 105 m 0xdea0
 276 71 256 0 166 0 c 0xdea0
 125 0 89 22 89 65 c 0
 89 71 90 77 91 84 c 10
 122 230 l 18
 127 253 156 271 183 276 c 1
 102 276 l 1
 110 317 l 1
 172 421 216 445 295 445 c 16
 376 445 454 399 454 332 c 0
 454 326 453 320 452 314 c 2
 407 102 l 1
 458 102 l 1xeea0
 531 445 l 1
 631 445 l 1
 536 0 l 1
 284 0 l 17
 351 314 l 2
 351 316 352 318 352 319 c 0
 352 345 313 363 277 363 c 8
 242 363 223 356 191 317 c 1
 314 317 l 1
 306 276 l 1
 253 264 230 266 222 230 c 2
 204 147 l 1
 204 147 212 153 224 153 c 0
 233 153 276 143 276 105 c 0xdea0
EndSplineSet
Substitution2: "Thai Descender Removal Single Substitution" uni0E0D.descless
EndChar

StartChar: uni0E0E
Encoding: 3598 3598 215
Width: 600
Flags: W
HStem: -177 48<198.132 270.491> -57 46<206.571 278.092> -20 41<123.779 193.245> 101 43<132.093 179.44> 363 82<300.103 475.663>
VStem: 82 40<23.3016 90.4164> 139 58<-128.387 -65.4066> 484 102<274.075 351.463>
DStem2: 379.295 -182 479 -182 0.207912 0.978148<89.966 511.638>
AnchorPoint: "BelowBase" 477 -200 basechar 0
LayerCount: 2
Fore
SplineSet
154 21 m 0xbf
 176 21 204 42 204 69 c 0
 204 87 190 101 171 101 c 0
 144 101 122 76 122 52 c 0
 122 34 135 21 154 21 c 0xbf
197 -103 m 0
 197 -118 207 -129 224 -129 c 0
 232 -129 242 -126 253 -122 c 8
 270 -115 273 -102 287 -90 c 17
 283 -81 259 -57 240 -57 c 0xdf
 221 -57 197 -80 197 -103 c 0
82 47 m 0
 82 99 127 144 165 144 c 0
 173 144 177 141 177 141 c 1
 192 211 l 2
 197 236 226 257 250 264 c 1
 148 264 l 1
 158 311 l 1
 230 419 325 445 419 445 c 0
 506 445 586 412 586 334 c 0
 586 325 585 316 583 306 c 10
 479 -182 l 25
 379 -182 l 17
 316 -119 l 1
 316 -119 280 -155 270 -160 c 0
 258 -165 228 -177 201 -177 c 0
 158 -177 139 -146 139 -121 c 0
 139 -49 231 -11 265 -11 c 0xdf
 285 -11 305 -21 316 -28 c 1
 373 34 l 1
 406 0 l 1
 355 -50 l 1
 398 -94 l 1
 483 306 l 2
 484 311 484 315 484 319 c 0
 484 358 437 363 401 363 c 8
 346 363 299 352 260 311 c 1
 362 311 l 1
 352 264 l 1
 313 251 299 253 290 211 c 10
 257 57 l 18
 250 24 203 -20 152 -20 c 0xbf
 111 -20 82 9 82 47 c 0
EndSplineSet
EndChar

StartChar: uni0E0F
Encoding: 3599 3599 216
Width: 600
Flags: W
HStem: -180 60<129.297 213.032> -60 58<141.932 239.5> 0 50<145.985 215.973> 276 41<312.832 362> 363 82<300.591 486.8>
VStem: 78 51<-141 -72.9772> 96 48<52.5162 119.467> 493 104<227.211 352.652>
DStem2: 269 -12 305 -44 0.613941 0.789352<-3.15741 86.1271> 386.595 -180 489 -180 0.207912 0.978148<98.1447 513.993>
AnchorPoint: "BelowBase" 484 -200 basechar 0
LayerCount: 2
Fore
SplineSet
177 50 m 0xfb
 204 50 226 75 226 99 c 0
 226 117 213 130 194 130 c 0
 172 130 144 109 144 82 c 0
 144 64 158 50 177 50 c 0xfb
129 -100 m 0xfd
 129 -106 135 -120 156 -120 c 0
 203 -120 210 -99 229 -87 c 25
 213 -76 209 -60 189 -60 c 24
 151 -60 129 -91 129 -100 c 0xfd
138 -180 m 0
 101 -180 78 -158 78 -124 c 0xfd
 78 -68 133 -23 159 -16 c 1
 194 -5 215 -2 230 -2 c 0
 249 -2 257 -8 269 -12 c 1
 325 60 l 1
 363 24 l 1
 305 -44 l 1
 321 -65 l 1
 359 -18 l 1
 407 -84 l 1
 492 313 l 2
 493 316 493 320 493 323 c 0
 493 359 445 363 408 363 c 8
 354 363 306 355 268 317 c 1
 370 317 l 1
 362 276 l 1
 323 264 309 266 301 229 c 10
 272 93 l 18
 263 53 213 0 163 0 c 16
 121 0 96 33 96 73 c 0xfb
 96 114 122 159 165 174 c 24
 174 177 190 168 190 168 c 1
 203 229 l 2
 208 252 235 270 260 276 c 1
 160 276 l 1
 168 317 l 1
 238 421 333 445 426 445 c 0
 514 445 597 414 597 338 c 0
 597 330 596 322 594 313 c 10
 489 -180 l 25
 387 -180 l 17
 338 -126 l 1
 298 -175 l 1
 247 -129 l 1
 247 -129 218 -151 217 -156 c 1
 201 -166 168 -180 138 -180 c 0
EndSplineSet
EndChar

StartChar: uni0E10
Encoding: 3600 3600 217
Width: 600
Flags: W
HStem: -198 107<436.007 490.187> -198 53<102.111 179.168> -71 54<105.746 181.849> -36 27<443.731 490.761> 0 21G<410.784 524.292> 79 54<305.385 374.586> 213 44<313.59 383.318> 291 68<396 458.137> 376 69<396.912 541.925>
VStem: 44 54<-140.482 -79.158> 260 44<134.51 202.597> 402 34<-89.8318 -41.4311> 475 99<149.352 272.927> 493 35<-85.8026 -37.0074>
DStem2: 219 -40 263 -55 0.641421 0.767189<16.7147 79.511> 356 -30 342 -92 0.558177 -0.829722<43.6283 132.575>
LayerCount: 2
Fore
SplineSet
459 -91 m 0x9ff4
 479 -91 493 -71 493 -58 c 0
 493 -45 483 -36 470 -36 c 0
 452 -36 436 -52 436 -70 c 0
 436 -82 445 -91 459 -91 c 0x9ff4
336 133 m 0
 357 133 386 152 386 180 c 0
 386 199 372 213 353 213 c 0
 328 213 304 190 304 164 c 0
 304 146 317 133 336 133 c 0
260 144 m 0
 260 226 334 257 364 257 c 8
 413 257 424 228 445 182 c 25
 456 144 l 25
 474 231 l 18
 475 234 475 237 475 240 c 0
 475 274 425 291 382 291 c 0
 346 291 310 290 263 290 c 9
 277 358 l 17
 326 405 360 445 464 445 c 0
 551 445 632 405 632 405 c 1
 600 322 l 1
 600 322 522 376 458 376 c 24
 434 376 396 359 396 359 c 1
 413 359 l 2
 436 359 477 357 501 345 c 0
 538 327 574 321 574 268 c 0x0ff8
 574 258 573 247 570 233 c 10
 520 0 l 25
 420 0 l 25
 373 102 l 17
 362 86 344 79 327 79 c 0
 304 79 260 92 260 144 c 0
402 -73 m 0
 402 -51 415 -9 475 -9 c 0x1ff8
 503 -9 528 -25 528 -49 c 0
 528 -52 528 -54 527 -57 c 2
 497 -198 l 1
 418 -198 l 1
 342 -92 l 1
 279 -185 l 1
 230 -119 l 1
 230 -119 199 -164 191 -174 c 1
 178 -187 148 -198 120 -198 c 0
 70 -198 44 -159 44 -123 c 0
 44 -53 110 -17 144 -17 c 0x6ff4
 190 -17 219 -40 219 -40 c 1
 270 21 l 1
 310 -4 l 1
 263 -55 l 1
 297 -99 l 1
 356 -30 l 1
 430 -140 l 1
 434 -123 l 1
 434 -123 402 -108 402 -73 c 0
98 -111 m 0
 98 -117 106 -145 138 -145 c 0
 170 -145 192 -106 194 -106 c 1
 194 -106 168 -71 140 -71 c 24x6ff0
 119 -71 98 -98 98 -111 c 0
EndSplineSet
Substitution2: "Thai Descender Removal Single Substitution" uni0E10.descless
EndChar

